#N canvas 115 67 973 691 10;
#X msg 243 503 clear;
#X obj 665 416 del;
#X obj 635 352 t b f;
#X obj 585 566 f;
#X obj 551 595 s;
#X obj 478 216 f;
#X obj 504 216 + 1;
#X msg 505 195 0;
#X obj 518 528 t b b;
#X obj 478 195 bng 15 250 50 0 empty empty empty 17 7 0 10 -262144
-1 -1;
#X obj 103 307 spigot;
#X obj 69 491 timer;
#X obj 69 471 t b b;
#X obj 111 449 t b a;
#X obj 111 429 spigot;
#X obj 155 429 spigot;
#X obj 207 409 == 0;
#X obj 103 327 t b a a;
#X msg 88 349 1;
#X obj 108 550 t a b;
#X obj 478 165 t b b;
#X msg 351 286 0;
#X msg 380 286 1;
#X msg 289 370 stop;
#X msg 178 229 1;
#X msg 228 205 0;
#X obj 178 254 t f;
#X obj 243 523 text define \$1-sequence;
#X obj 174 576 text size \$1-sequence;
#X obj 108 596 text insert \$1-sequence;
#X obj 478 236 text get \$1-sequence;
#X obj 707 470 timer;
#X obj 762 478 f;
#X obj 734 436 t b f;
#X obj 761 456 t f b f;
#X obj 736 501 /;
#X obj 736 521 swap 1;
#X obj 745 543 -;
#X obj 757 564 *;
#X msg 757 584 stop \, \$1;
#X obj 665 438 t b b;
#X obj 337 59 bng 32 250 50 0 empty empty empty 17 7 0 10 -262144 -1
-1;
#X obj 266 59 bng 32 250 50 0 empty empty empty 17 7 0 10 -262144 -1
-1;
#X floatatom 680 115 5 0 0 1 speed_factor - -, f 5;
#X obj 680 396 t f f;
#X obj 680 376 *;
#X obj 680 351 t b f;
#X obj 757 604 s \$0-del;
#X obj 619 376 r \$0-del;
#X obj 289 393 s \$0-del;
#X obj 478 115 t b b b;
#X obj 178 205 t b b b;
#X obj 529 115 s \$0-stop;
#X obj 247 153 r \$0-stop;
#X obj 103 255 r \$0-input;
#X obj 518 508 spigot;
#X obj 69 511 list prepend;
#X obj 566 332 unpack s f f;
#X obj 478 274 route stop;
#X msg 82 232 stop;
#X msg 214 254 0;
#X obj 82 212 r \$0-stoprec;
#X obj 312 248 t b b b;
#X obj 325 370 s \$0-stoprec;
#X obj 478 365 del;
#X obj 478 293 t b f;
#X msg 156 511 list \$1 \$2 0;
#X obj 478 255 list trim;
#X text 747 415 < don't process zero delays;
#X obj 707 416 sel 0;
#X obj 369 309 t f;
#N canvas 0 23 473 366 \$0-container 0;
#X obj 5 5 r \$1-ctlbus-1-source;
#X obj 5 25 list prepend \$1-ctlbus-1;
#X obj 5 45 s 1505-input;
#X obj 5 65 r \$1-ctlbus-2-source;
#X obj 5 85 list prepend \$1-ctlbus-2;
#X obj 5 105 s 1505-input;
#X obj 5 125 r \$1-ctlbus-3-source;
#X obj 5 145 list prepend \$1-ctlbus-3;
#X obj 5 165 s 1505-input;
#X obj 5 185 r \$1-ctlbus-4-source;
#X obj 5 205 list prepend \$1-ctlbus-4;
#X obj 5 225 s 1505-input;
#X obj 5 245 r \$1-ctlbus-5-source;
#X obj 5 265 list prepend \$1-ctlbus-5;
#X obj 5 285 s 1505-input;
#X obj 5 305 r \$1-ctlbus-6-source;
#X obj 5 325 list prepend \$1-ctlbus-6;
#X obj 5 345 s 1505-input;
#X obj 5 365 r \$1-ctlbus-7-source;
#X obj 5 385 list prepend \$1-ctlbus-7;
#X obj 5 405 s 1505-input;
#X obj 5 425 r \$1-ctlbus-8-source;
#X obj 5 445 list prepend \$1-ctlbus-8;
#X obj 5 465 s 1505-input;
#X obj 5 485 r \$1-ctlbus-9-source;
#X obj 5 505 list prepend \$1-ctlbus-9;
#X obj 5 525 s 1505-input;
#X obj 5 545 r \$1-ctlbus-10-source;
#X obj 5 565 list prepend \$1-ctlbus-10;
#X obj 5 585 s 1505-input;
#X obj 5 605 r \$1-ctlbus-11-source;
#X obj 5 625 list prepend \$1-ctlbus-11;
#X obj 5 645 s 1505-input;
#X obj 5 665 r \$1-ctlbus-12-source;
#X obj 5 685 list prepend \$1-ctlbus-12;
#X obj 5 705 s 1505-input;
#X obj 5 725 r \$1-ctlbus-13-source;
#X obj 5 745 list prepend \$1-ctlbus-13;
#X obj 5 765 s 1505-input;
#X obj 5 785 r \$1-ctlbus-14-source;
#X obj 5 805 list prepend \$1-ctlbus-14;
#X obj 5 825 s 1505-input;
#X obj 5 845 r \$1-ctlbus-15-source;
#X obj 5 865 list prepend \$1-ctlbus-15;
#X obj 5 885 s 1505-input;
#X obj 5 905 r \$1-ctlbus-16-source;
#X obj 5 925 list prepend \$1-ctlbus-16;
#X obj 5 945 s 1505-input;
#X connect 0 0 1 0;
#X connect 1 0 2 0;
#X connect 3 0 4 0;
#X connect 4 0 5 0;
#X connect 6 0 7 0;
#X connect 7 0 8 0;
#X connect 9 0 10 0;
#X connect 10 0 11 0;
#X connect 12 0 13 0;
#X connect 13 0 14 0;
#X connect 15 0 16 0;
#X connect 16 0 17 0;
#X connect 18 0 19 0;
#X connect 19 0 20 0;
#X connect 21 0 22 0;
#X connect 22 0 23 0;
#X connect 24 0 25 0;
#X connect 25 0 26 0;
#X connect 27 0 28 0;
#X connect 28 0 29 0;
#X connect 30 0 31 0;
#X connect 31 0 32 0;
#X connect 33 0 34 0;
#X connect 34 0 35 0;
#X connect 36 0 37 0;
#X connect 37 0 38 0;
#X connect 39 0 40 0;
#X connect 40 0 41 0;
#X connect 42 0 43 0;
#X connect 43 0 44 0;
#X connect 45 0 46 0;
#X connect 46 0 47 0;
#X restore 754 277 pd \$0-container;
#N canvas 82 51 678 599 init-receives 0;
#X obj 136 528 s pd-\$0-container;
#X obj 79 356 + 5;
#X obj 91 216 until;
#X obj 91 196 f 16;
#X obj 138 238 + 1;
#X obj 113 238 f;
#X msg 128 216 0;
#X msg 184 196 clear;
#X obj 110 356 + 25;
#X obj 216 375 makefilename \$0-input;
#X obj 79 337 * 60;
#X obj 110 337 * 60;
#X obj 141 337 * 60;
#X obj 141 356 + 45;
#X obj 184 309 + 1;
#X obj 184 218 s pd-\$0-container;
#X obj 145 276 t f f f f b f;
#X obj 290 395 * 3;
#X obj 299 430 + 1;
#X obj 325 430 + 2;
#X obj 150 30 inlet;
#X obj 214 125 moses 1;
#X obj 214 105 f \$2;
#X obj 269 125 moses 1;
#X obj 269 105 f \$3;
#X text 272 287 arguments : <project_name>;
#X text 350 300 <#inputs (default 16)>;
#X obj 136 477 pack f f f s s s f f f;
#X msg 136 497 obj 5 \$1 r \$5 \, obj 5 \$2 list prepend \$4 \, obj
5 \$3 s \$6 \, connect \$7 0 \$8 0 \, connect \$8 0 \$9 0;
#X obj 184 337 makefilename \$1-ctlbus-%d;
#X obj 200 356 makefilename \$1-ctlbus-%d-source;
#X text 351 313 <ctlbus_start_index (default 1)>;
#X obj 150 52 t b b b b;
#X obj 214 79 t b b;
#X connect 1 0 27 0;
#X connect 2 0 5 0;
#X connect 3 0 2 0;
#X connect 4 0 5 1;
#X connect 5 0 4 0;
#X connect 5 0 16 0;
#X connect 6 0 5 1;
#X connect 7 0 15 0;
#X connect 8 0 27 1;
#X connect 9 0 27 5;
#X connect 10 0 1 0;
#X connect 11 0 8 0;
#X connect 12 0 13 0;
#X connect 13 0 27 2;
#X connect 14 0 29 0;
#X connect 14 0 30 0;
#X connect 16 0 10 0;
#X connect 16 1 11 0;
#X connect 16 2 12 0;
#X connect 16 3 14 0;
#X connect 16 4 9 0;
#X connect 16 5 17 0;
#X connect 17 0 18 0;
#X connect 17 0 19 0;
#X connect 17 0 27 6;
#X connect 18 0 27 7;
#X connect 19 0 27 8;
#X connect 20 0 32 0;
#X connect 21 1 3 1;
#X connect 22 0 21 0;
#X connect 23 1 14 1;
#X connect 24 0 23 0;
#X connect 27 0 28 0;
#X connect 28 0 0 0;
#X connect 29 0 27 3;
#X connect 30 0 27 4;
#X connect 32 0 3 0;
#X connect 32 1 6 0;
#X connect 32 2 7 0;
#X connect 32 3 33 0;
#X connect 33 0 22 0;
#X connect 33 1 24 0;
#X restore 754 256 pd init-receives;
#X obj 231 14 inlet;
#X obj 504 565 s \$0-next;
#X obj 520 169 r \$0-next;
#X obj 231 59 bng 32 250 50 0 empty empty empty 17 7 0 10 -262144 -1
-1;
#X obj 301 59 tgl 32 0 empty empty empty 17 7 0 10 -262144 -1 -1 0
1;
#X obj 754 238 bng 15 250 50 0 empty empty empty 17 7 0 10 -262144
-1 -1;
#X obj 754 219 loadbang;
#X obj 478 405 s \$0-restart;
#X obj 489 142 r \$0-restart;
#X obj 478 385 spigot;
#X obj 231 34 route arm stop loop play speed;
#X obj 680 134 clip 0.001 1e+09;
#X obj 680 154 swap 1;
#X obj 680 175 /;
#X obj 520 337 *;
#X obj 520 312 t b f;
#X obj 699 234 t f f;
#X obj 180 389 t f f;
#X obj 156 449 t a b b b b;
#N canvas 0 23 386 444 get-actual-values 0;
#X obj 113 357 s;
#X obj 101 311 t b f;
#X obj 101 290 + 1;
#X obj 148 250 moses 1;
#X obj 148 230 f \$3;
#X obj 148 210 loadbang;
#X obj 92 149 until;
#X obj 92 129 f 16;
#X obj 139 171 + 1;
#X obj 114 171 f;
#X msg 129 149 0;
#X obj 92 99 t b b;
#X obj 125 77 moses 1;
#X obj 125 57 f \$2;
#X obj 125 37 loadbang;
#X obj 66 44 inlet;
#X obj 128 336 makefilename \$1-ctlbus-%ld-get;
#X connect 1 0 0 0;
#X connect 1 1 16 0;
#X connect 2 0 1 0;
#X connect 3 1 2 1;
#X connect 4 0 3 0;
#X connect 5 0 4 0;
#X connect 6 0 9 0;
#X connect 7 0 6 0;
#X connect 8 0 9 1;
#X connect 9 0 8 0;
#X connect 9 0 2 0;
#X connect 10 0 9 1;
#X connect 11 0 7 0;
#X connect 11 1 10 0;
#X connect 12 1 7 1;
#X connect 13 0 12 0;
#X connect 14 0 13 0;
#X connect 15 0 11 0;
#X connect 16 0 0 1;
#X restore 274 436 pd get-actual-values;
#X obj 166 485 route list;
#X obj 236 175 t b b b;
#X connect 0 0 27 0;
#X connect 1 0 40 0;
#X connect 2 0 1 0;
#X connect 2 1 45 0;
#X connect 3 0 4 0;
#X connect 5 0 6 0;
#X connect 5 0 30 0;
#X connect 6 0 5 1;
#X connect 7 0 5 1;
#X connect 8 0 74 0;
#X connect 8 1 3 0;
#X connect 9 0 5 0;
#X connect 10 0 17 0;
#X connect 11 0 56 0;
#X connect 12 0 11 0;
#X connect 12 1 11 1;
#X connect 13 0 12 0;
#X connect 13 1 56 1;
#X connect 14 0 13 0;
#X connect 15 0 91 0;
#X connect 16 0 15 1;
#X connect 17 0 18 0;
#X connect 17 1 14 0;
#X connect 17 2 15 0;
#X connect 18 0 90 0;
#X connect 19 0 29 0;
#X connect 19 1 28 0;
#X connect 20 0 9 0;
#X connect 20 1 7 0;
#X connect 21 0 70 0;
#X connect 22 0 70 0;
#X connect 23 0 49 0;
#X connect 24 0 26 0;
#X connect 25 0 26 0;
#X connect 26 0 10 1;
#X connect 28 0 29 1;
#X connect 30 0 67 0;
#X connect 31 0 35 0;
#X connect 32 0 35 1;
#X connect 33 0 31 1;
#X connect 33 1 34 0;
#X connect 34 0 32 1;
#X connect 34 1 32 0;
#X connect 34 2 38 1;
#X connect 35 0 36 0;
#X connect 36 0 37 0;
#X connect 36 1 37 1;
#X connect 37 0 38 0;
#X connect 38 0 39 0;
#X connect 39 0 47 0;
#X connect 40 0 55 0;
#X connect 40 1 31 0;
#X connect 41 0 50 0;
#X connect 42 0 94 0;
#X connect 43 0 84 0;
#X connect 44 0 1 1;
#X connect 44 1 69 0;
#X connect 45 0 44 0;
#X connect 46 0 45 0;
#X connect 46 1 45 1;
#X connect 48 0 1 0;
#X connect 50 0 20 0;
#X connect 50 1 22 0;
#X connect 50 2 52 0;
#X connect 51 0 24 0;
#X connect 51 1 60 0;
#X connect 53 0 94 0;
#X connect 54 0 10 0;
#X connect 55 0 8 0;
#X connect 56 0 19 0;
#X connect 57 0 4 1;
#X connect 57 1 3 1;
#X connect 57 2 2 0;
#X connect 58 0 65 0;
#X connect 58 1 57 0;
#X connect 59 0 10 0;
#X connect 60 0 90 0;
#X connect 61 0 59 0;
#X connect 62 0 21 0;
#X connect 62 1 23 0;
#X connect 62 2 63 0;
#X connect 64 0 82 0;
#X connect 65 0 64 0;
#X connect 65 1 87 0;
#X connect 66 0 19 0;
#X connect 67 0 58 0;
#X connect 69 1 33 0;
#X connect 70 0 55 1;
#X connect 73 0 83 0;
#X connect 75 0 9 0;
#X connect 76 0 51 0;
#X connect 77 0 82 1;
#X connect 78 0 72 0;
#X connect 79 0 78 0;
#X connect 81 0 20 0;
#X connect 82 0 80 0;
#X connect 83 0 76 0;
#X connect 83 1 42 0;
#X connect 83 2 77 0;
#X connect 83 3 41 0;
#X connect 83 4 43 0;
#X connect 84 0 85 0;
#X connect 85 0 86 0;
#X connect 85 1 86 1;
#X connect 86 0 89 0;
#X connect 87 0 64 1;
#X connect 88 0 87 0;
#X connect 88 1 87 1;
#X connect 89 0 88 0;
#X connect 89 1 46 0;
#X connect 90 0 14 1;
#X connect 90 1 16 0;
#X connect 91 0 66 0;
#X connect 91 1 11 0;
#X connect 91 2 0 0;
#X connect 91 4 62 0;
#X connect 93 0 66 0;
#X connect 94 0 25 0;
#X connect 94 1 92 0;
#X connect 94 2 62 0;
