#N canvas 529 35 776 805 10;
#X obj 358 276 text get \$1-oscin;
#X obj 358 92 loadbang;
#X obj 358 111 bng 15 250 50 0 empty empty empty 17 7 0 10 -262144
-1 -1;
#X obj 358 129 text size \$1-oscin;
#X obj 358 175 until;
#X obj 358 202 f;
#X obj 384 202 + 1;
#X msg 396 175 0;
#X text 55 21 TODO;
#X text 246 25 arguments : <project_name>;
#X text 317 39 <osc input udp port>;
#X text 317 52 <normbus_start_index (default 1)>;
#X obj 43 74 netreceive -u -b \$2;
#X obj 43 95 oscparse;
#X obj 358 319 list fromsymbol;
#X obj 358 297 list split 1;
#X obj 98 220 list length;
#X obj 171 395 list split 1;
#X obj 171 415 sel 47;
#X obj 171 374 list;
#X obj 98 263 until;
#X obj 98 290 f;
#X obj 124 290 + 1;
#X msg 136 263 0;
#X obj 98 240 t f b f;
#X obj 98 380 sel;
#X obj 198 532 list;
#X obj 157 290 - 1;
#X obj 219 496 list;
#X obj 219 475 list prepend;
#X obj 173 188 t l l b;
#X obj 43 116 list trim;
#X obj 308 475 t b b;
#X obj 171 435 t b b;
#X obj 231 574 list length;
#X obj 198 552 t l l;
#X obj 231 594 > 0;
#X obj 198 614 spigot;
#N canvas 0 23 450 300 \$0-container 0;
#X restore 43 158 pd \$0-container;
#X obj 43 137 s \$0-pd-container-input;
#X obj 198 663 list prepend;
#X obj 198 683 list;
#X obj 342 436 t b b;
#X obj 281 663 t b b;
#X obj 177 731 list;
#X obj 98 457 t b b;
#X obj 112 774 print;
#X obj 473 319 text define \$0-paths;
#X obj 364 774 text set \$0-paths;
#X obj 98 311 t f b;
#X obj 358 228 t f f b;
#X msg 473 276 clear;
#X obj 198 634 list tosymbol;
#X obj 418 730 list append;
#X obj 77 649 t b b;
#X obj 358 152 t f b f;
#X obj 430 202 - 1;
#X connect 0 0 15 0;
#X connect 1 0 2 0;
#X connect 2 0 3 0;
#X connect 3 0 55 0;
#X connect 4 0 5 0;
#X connect 5 0 6 0;
#X connect 5 0 50 0;
#X connect 6 0 5 1;
#X connect 7 0 5 1;
#X connect 12 0 13 0;
#X connect 13 0 31 0;
#X connect 14 0 30 0;
#X connect 15 0 14 0;
#X connect 15 1 53 1;
#X connect 16 0 24 0;
#X connect 17 0 18 0;
#X connect 17 1 19 1;
#X connect 18 0 33 0;
#X connect 18 1 29 0;
#X connect 19 0 17 0;
#X connect 20 0 21 0;
#X connect 21 0 22 0;
#X connect 21 0 49 0;
#X connect 22 0 21 1;
#X connect 23 0 21 1;
#X connect 24 0 20 0;
#X connect 24 1 23 0;
#X connect 24 2 27 0;
#X connect 25 0 45 0;
#X connect 26 0 35 0;
#X connect 27 0 25 1;
#X connect 28 0 26 1;
#X connect 28 0 29 1;
#X connect 29 0 28 0;
#X connect 30 0 16 0;
#X connect 30 1 19 1;
#X connect 30 2 42 0;
#X connect 31 0 39 0;
#X connect 32 0 29 1;
#X connect 32 1 26 1;
#X connect 33 0 32 0;
#X connect 33 1 26 0;
#X connect 34 0 36 0;
#X connect 35 0 37 0;
#X connect 35 1 34 0;
#X connect 36 0 37 1;
#X connect 37 0 52 0;
#X connect 40 0 41 0;
#X connect 41 0 40 1;
#X connect 41 0 44 1;
#X connect 42 0 32 0;
#X connect 42 1 43 0;
#X connect 43 0 40 1;
#X connect 43 1 44 1;
#X connect 44 0 53 0;
#X connect 45 0 54 0;
#X connect 45 1 26 0;
#X connect 49 0 25 0;
#X connect 49 1 19 0;
#X connect 50 0 0 0;
#X connect 50 1 48 1;
#X connect 50 2 51 0;
#X connect 51 0 47 0;
#X connect 52 0 40 0;
#X connect 53 0 48 0;
#X connect 54 1 44 0;
#X connect 55 0 4 0;
#X connect 55 1 7 0;
#X connect 55 2 56 0;
