#N canvas 754 153 450 300 10;
#X obj 77 130 f;
#X obj 77 80 inlet;
#X obj 87 110 r \$1-ctlbus-\$2-get;
#X obj 87 150 s \$1-ctlbus-\$2-source;
#X obj 77 170 s \$1-ctlbus-\$2;
#X text 167 62 arguments : <project_name>;
#X text 239 77 <ctlbus_index>;
#X connect 0 0 3 0;
#X connect 0 0 4 0;
#X connect 1 0 0 0;
#X connect 2 0 0 0;
