#N canvas 411 82 939 711 10;
#X obj 51 61 cnv 15 99 15 empty empty empty 20 9 0 12 #000000 #404040
0;
#X obj 51 70 cnv 15 99 102 empty empty empty 20 12 0 14 #fcfcfc #404040
0;
#X floatatom 69 88 2 1 99 0 - \$0-ctlbus-i \$0-ctlbus-o 0;
#X symbolatom 87 88 10 0 0 0 - \$0-ctlname-i \$0-ctlname-o 0;
#X obj 50 69 vradio 17 1 0 2 \$0-mode-o \$0-mode-i empty 0 -8 0 10
#fcfcfc #000000 #000000 0;
#X obj 51 51 cnv 15 99 17 empty empty \$1 4 9 0 11 #dcdcdc #404040
0;
#X floatatom 105 105 7 0 0 0 hithresh \$0-hithresh-i \$0-hithresh-o
0;
#X floatatom 105 122 7 0 0 0 lothresh \$0-lothresh-i \$0-lothresh-o
0;
#X obj 583 326 loadbang;
#X obj 272 304 t a;
#X msg 583 346 1;
#X obj 119 280 inlet;
#N canvas 658 241 547 510 preset 0;
#X obj 296 221 pack f f f f f f f f;
#X obj 296 63 r \$0-mode-o;
#X obj 312 82 r \$0-fix-o;
#X obj 55 307 s \$0-mode-i;
#X obj 84 326 s \$0-fix-i;
#X obj 81 242 unpack f f f f f f f f;
#X obj 258 247 list;
#X obj 258 197 t b b;
#X obj 379 82 r \$0-fix-for-preset;
#X obj 362 139 r \$0-hithresh-o;
#X obj 379 158 r \$0-lothresh-o;
#X obj 396 177 r \$0-togglemode-o;
#X obj 413 196 r \$0-invert-o;
#X obj 154 392 s \$0-hithresh-i;
#X obj 173 411 s \$0-lothresh-i;
#X obj 191 430 s \$0-togglemode-i;
#X obj 210 449 s \$0-invert-i;
#X obj 54 265 t b f;
#X obj 84 287 f;
#X text 87 31 <[get/set/delete]> <preset_system_name> <preset_name>
;
#N canvas 0 23 825 704 preset-get-set-delete 0;
#X obj 330 391 sel -1;
#X obj 273 299 t a a;
#X obj 166 551 spigot;
#X obj 253 531 == 0;
#X obj 226 511 t f f;
#X obj 220 551 spigot;
#X obj 166 511 t a a;
#X obj 363 411 t b f;
#X msg 330 411 1;
#X msg 338 434 0;
#X obj 26 209 sel -1;
#X obj 74 29 inlet;
#X obj 224 184 sel -1;
#X obj 93 658 outlet get;
#X obj 502 654 outlet getvalues;
#X obj 592 26 inlet getvalues;
#X obj 208 354 t b a;
#X obj 166 452 list prepend;
#X obj 166 394 t b b;
#X obj 166 432 list;
#X obj 330 455 t f;
#X obj 74 56 route get set delete;
#X obj 257 204 text delete \$2-presets;
#X obj 224 144 list split 3;
#X obj 330 351 list split 3;
#X obj 224 164 text search \$2-presets 0 1 2;
#X obj 330 371 text search \$2-presets 0 1 2;
#X obj 236 579 text set \$2-presets;
#X obj 206 600 text insert \$2-presets 0;
#X obj 26 169 list split 3;
#X obj 26 189 text search \$2-presets 0 1 2;
#X obj 59 229 text get \$2-presets;
#X obj 59 249 list split 3;
#X obj 26 149 list append \$1;
#X obj 273 279 list append \$1;
#X obj 224 124 list append \$1;
#X connect 0 0 8 0;
#X connect 0 1 7 0;
#X connect 1 0 16 0;
#X connect 1 1 24 0;
#X connect 2 0 28 0;
#X connect 3 0 5 1;
#X connect 4 0 2 1;
#X connect 4 1 3 0;
#X connect 5 0 27 0;
#X connect 6 0 2 0;
#X connect 6 1 5 0;
#X connect 7 0 9 0;
#X connect 7 1 27 1;
#X connect 8 0 20 0;
#X connect 9 0 20 0;
#X connect 10 1 31 0;
#X connect 11 0 21 0;
#X connect 12 1 22 0;
#X connect 15 0 19 1;
#X connect 16 0 18 0;
#X connect 16 1 17 1;
#X connect 17 0 6 0;
#X connect 18 0 19 0;
#X connect 18 1 14 0;
#X connect 19 0 17 0;
#X connect 20 0 4 0;
#X connect 21 0 33 0;
#X connect 21 1 34 0;
#X connect 21 2 35 0;
#X connect 23 0 25 0;
#X connect 24 0 26 0;
#X connect 25 0 12 0;
#X connect 26 0 0 0;
#X connect 29 0 30 0;
#X connect 30 0 10 0;
#X connect 31 0 32 0;
#X connect 32 1 13 0;
#X connect 33 0 29 0;
#X connect 34 0 1 0;
#X connect 35 0 23 0;
#X restore 81 218 pd preset-get-set-delete;
#X obj 81 81 r \$4-preset-cmd;
#X obj 329 101 r \$0-schmitt-o;
#X obj 346 120 r \$0-ctlbus-o;
#X obj 136 373 s \$0-ctlbus-i;
#X obj 117 354 s \$0-schmitt-i;
#X connect 0 0 6 1;
#X connect 1 0 0 0;
#X connect 2 0 0 1;
#X connect 5 0 17 0;
#X connect 5 1 18 1;
#X connect 5 2 25 0;
#X connect 5 3 24 0;
#X connect 5 4 13 0;
#X connect 5 5 14 0;
#X connect 5 6 15 0;
#X connect 5 7 16 0;
#X connect 6 0 20 1;
#X connect 7 0 6 0;
#X connect 7 1 0 0;
#X connect 8 0 0 1;
#X connect 9 0 0 4;
#X connect 10 0 0 5;
#X connect 11 0 0 6;
#X connect 12 0 0 7;
#X connect 17 0 18 0;
#X connect 17 1 3 0;
#X connect 18 0 4 0;
#X connect 20 0 5 0;
#X connect 20 1 7 0;
#X connect 21 0 20 0;
#X connect 22 0 0 2;
#X connect 23 0 0 3;
#X restore 251 109 pd preset;
#X obj 310 613 outlet;
#X msg 150 442 set \$1;
#X obj 150 462 s \$0-fix-i;
#X obj 572 182 - 1;
#X obj 572 222 route bang;
#X msg 572 242 symbol;
#X obj 637 449 loadbang;
#X msg 637 469 0;
#X obj 662 498 s \$0-mode-i;
#X floatatom 545 143 5 0 0 0 - - - 0;
#X obj 545 162 t f f;
#X obj 140 335 spigot;
#X obj 222 249 == 0;
#X obj 203 159 r \$0-mode-o;
#X text 168 52 arguments :;
#X text 169 69 <param_name> <module_name> <project_name> <parent_\$0>
;
#X obj 695 449 r \$4-\$1-mode;
#X obj 203 180 t f f f;
#X obj 140 355 t f f f;
#X obj 120 482 s \$0-fix-for-preset;
#X obj 134 139 tgl 15 0 \$0-togglemode-o \$0-togglemode-i toggle\\\ mode
-68 7 0 10 #fcfcfc #000000 #000000 0 1;
#X obj 134 156 tgl 15 0 \$0-invert-o \$0-invert-i invert -38 7 0 10
#fcfcfc #000000 #000000 0 1;
#X obj 69 71 tgl 15 0 \$0-fix-o \$0-fix-i empty 17 7 0 10 #fcfcfc #000000
#000000 0 1;
#X obj 287 451 sel 0;
#X obj 316 470 t b;
#X msg 316 489 1;
#X obj 287 515 f;
#X obj 198 323 r \$0-fix-o;
#X obj 229 427 spigot;
#X obj 287 427 spigot;
#X obj 296 373 spigot;
#X obj 221 396 f;
#X obj 238 370 sel 1;
#X obj 251 348 t f f;
#N canvas 0 23 337 375 schmitt 0;
#X obj 100 43 inlet;
#X obj 156 43 inlet;
#X obj 198 43 inlet;
#N canvas 408 136 264 294 once 0;
#X obj 107 156 spigot;
#X obj 107 27 inlet;
#X obj 107 227 outlet;
#X obj 107 182 t a b;
#X obj 157 27 inlet;
#X msg 157 67 1;
#X msg 163 163 0;
#X obj 157 47 t b;
#X connect 0 0 3 0;
#X connect 1 0 0 0;
#X connect 3 0 2 0;
#X connect 3 1 6 0;
#X connect 4 0 7 0;
#X connect 5 0 0 1;
#X connect 6 0 0 1;
#X connect 7 0 5 0;
#X restore 100 233 pd once;
#X obj 173 130 change;
#X obj 100 130 change;
#X obj 100 150 sel 1;
#X obj 173 150 sel 1;
#X obj 100 64 t f f;
#X msg 100 277 1;
#X msg 173 277 0;
#X obj 100 306 outlet;
#X obj 196 183 loadbang;
#N canvas 408 136 280 292 once 0;
#X obj 107 156 spigot;
#X obj 107 27 inlet;
#X obj 107 227 outlet;
#X obj 107 182 t a b;
#X obj 164 27 inlet;
#X msg 164 67 1;
#X msg 159 166 0;
#X obj 164 47 t b;
#X connect 0 0 3 0;
#X connect 1 0 0 0;
#X connect 3 0 2 0;
#X connect 3 1 6 0;
#X connect 4 0 7 0;
#X connect 5 0 0 1;
#X connect 6 0 0 1;
#X connect 7 0 5 0;
#X restore 173 233 pd once;
#X obj 100 257 t b b;
#X obj 173 257 t b b;
#X obj 100 110 >=;
#X obj 173 110 <=;
#X connect 0 0 8 0;
#X connect 1 0 16 1;
#X connect 2 0 17 1;
#X connect 3 0 14 0;
#X connect 4 0 7 0;
#X connect 5 0 6 0;
#X connect 6 0 3 0;
#X connect 7 0 13 0;
#X connect 8 0 16 0;
#X connect 8 1 17 0;
#X connect 9 0 11 0;
#X connect 10 0 11 0;
#X connect 12 0 3 1;
#X connect 13 0 15 0;
#X connect 14 0 9 0;
#X connect 14 1 13 1;
#X connect 15 0 10 0;
#X connect 15 1 3 1;
#X connect 16 0 5 0;
#X connect 17 0 4 0;
#X restore 345 515 pd schmitt;
#N canvas 0 23 540 384 toggle-mode-and-invert 0;
#X obj 90 136 f;
#X obj 115 136 == 0;
#X obj 158 176 spigot;
#X obj 90 116 sel 1;
#X text 176 72 toggleize output;
#X obj 136 288 == 0;
#X obj 179 266 spigot;
#X obj 136 226 t f f;
#X obj 136 266 spigot;
#X obj 185 226 t f f;
#X obj 212 246 == 0;
#X obj 185 207 tgl 15 0 empty empty invert 17 7 0 10 #fcfcfc #000000
#000000 0 1;
#X obj 111 52 t f f;
#X obj 111 176 spigot;
#X obj 164 136 t f f;
#X obj 191 156 == 0;
#X obj 164 117 tgl 15 0 empty empty toggle_mode 17 7 0 10 #fcfcfc #000000
#000000 0 1;
#X obj 111 29 inlet;
#X obj 179 327 outlet;
#X obj 283 30 inlet;
#X obj 324 30 inlet;
#X connect 0 0 1 0;
#X connect 0 0 13 0;
#X connect 1 0 0 1;
#X connect 2 0 7 0;
#X connect 3 0 0 0;
#X connect 5 0 18 0;
#X connect 6 0 18 0;
#X connect 7 0 8 0;
#X connect 7 1 6 0;
#X connect 8 0 5 0;
#X connect 9 0 8 1;
#X connect 9 1 10 0;
#X connect 10 0 6 1;
#X connect 11 0 9 0;
#X connect 12 0 3 0;
#X connect 12 1 2 0;
#X connect 13 0 7 0;
#X connect 14 0 13 1;
#X connect 14 1 15 0;
#X connect 15 0 2 1;
#X connect 16 0 14 0;
#X connect 17 0 12 0;
#X connect 19 0 14 0;
#X connect 20 0 9 0;
#X restore 308 553 pd toggle-mode-and-invert;
#X obj 410 414 r \$0-hithresh-o;
#X obj 430 434 r \$0-lothresh-o;
#X obj 415 515 r \$0-togglemode-o;
#X obj 455 534 r \$0-invert-o;
#X obj 278 587 t a a;
#X obj 637 518 s \$0-togglemode-i;
#X obj 604 538 s \$0-invert-i;
#X msg 287 489 0;
#X obj 545 123 r \$0-ctlbus-o;
#X obj 572 202 text get \$3-ctlbus;
#X obj 572 263 s \$0-ctlname-i;
#N canvas 243 67 340 358 create-ctlbus-receiver 0;
#X obj 49 34 inlet;
#X obj 76 176 pack s s s s;
#X obj 49 55 t b f;
#X obj 76 76 t b f f b;
#X msg 76 196 clear \, obj 50 50 receive \$1 \, obj 50 100 send \$2
\, obj 50 150 receive \$3 \, obj 50 200 send \$4 \, connect 0 0 1 0
\, connect 2 0 3 0, f 34;
#X obj 76 96 makefilename \$0-ctlbus-get;
#X obj 99 116 makefilename \$3-ctlbus-%d-get;
#X obj 122 136 makefilename \$3-ctlbus-%d;
#X obj 145 156 makefilename \$0-ctlbus;
#X obj 76 249 s pd-\$0-receive-ctlbus;
#X obj 49 296 s \$0-ctlbus-get;
#N canvas 448 72 536 411 \$0-receive-ctlbus 0;
#X obj 50 50 receive 1822-ctlbus-get;
#X obj 50 100 send \$3-ctlbus-1-get;
#X obj 50 150 receive \$3-ctlbus-1;
#X obj 50 200 send 1822-ctlbus;
#X connect 0 0 1 0;
#X connect 2 0 3 0;
#X restore 49 316 pd \$0-receive-ctlbus;
#X connect 0 0 2 0;
#X connect 1 0 4 0;
#X connect 2 0 10 0;
#X connect 2 1 3 0;
#X connect 3 0 5 0;
#X connect 3 1 6 0;
#X connect 3 2 7 0;
#X connect 3 3 8 0;
#X connect 4 0 9 0;
#X connect 5 0 1 0;
#X connect 6 0 1 1;
#X connect 7 0 1 2;
#X connect 8 0 1 3;
#X restore 545 288 pd create-ctlbus-receiver;
#X obj 119 249 s \$0-ctlbus-i;
#X obj 119 229 sel 1;
#X obj 119 300 r \$4-\$1-o;
#X obj 269 634 s \$4-\$1-i;
#X text 315 110 < [r \$4-preset-cmd] inside;
#X obj 134 71 tgl 15 0 \$0-schmitt-o \$0-schmitt-i schmitt -44 7 0
10 #fcfcfc #000000 #000000 0 1;
#X obj 340 324 receive \$0-ctlbus;
#X obj 351 352 r \$0-schmitt-o;
#X obj 351 372 t f f;
#X obj 341 395 == 0;
#X msg 230 278 1 0;
#X msg 272 278 0 1;
#X obj 255 249 sel 0 1;
#X obj 272 324 unpack f f;
#X obj 345 427 spigot;
#X obj 296 395 t f f;
#X text 483 585 desired behaviour : when not using schmitt \, consider
all non-zero values to be 1 \, or use the schmitt trigger to get only
0's or 1's. Then the toggle mode determines whether the toggle should
act as a temporary button or as a toggle;
#X obj 557 383 s \$0-ctlbus-i;
#X obj 583 403 s \$0-hithresh-i;
#N canvas 0 23 301 236 fix-on-preset-recall 0;
#X obj 136 58 r \$0-mode-i;
#X obj 103 118 spigot;
#X obj 136 78 sel 1;
#X msg 136 97 1;
#X obj 103 138 t f b;
#X msg 151 129 0;
#X obj 103 39 r \$0-fix-i;
#X obj 103 169 outlet;
#X connect 0 0 2 0;
#X connect 1 0 4 0;
#X connect 2 0 3 0;
#X connect 3 0 1 1;
#X connect 4 0 7 0;
#X connect 4 1 5 0;
#X connect 5 0 1 1;
#X connect 6 0 1 0;
#X restore 317 587 pd fix-on-preset-recall;
#X obj 733 68 ossia.model \$1;
#X obj 733 100 ossia-parameter mode \$0;
#X obj 733 121 ossia-parameter fix \$0;
#X obj 733 142 ossia-parameter schmitt \$0;
#X obj 733 163 ossia-parameter ctlbus \$0;
#X obj 733 184 ossia-parameter hithresh \$0;
#X obj 733 205 ossia-parameter lothresh \$0;
#X obj 733 226 ossia-parameter togglemode \$0;
#X obj 733 247 ossia-parameter invert \$0;
#X connect 8 0 10 0;
#X connect 9 0 74 0;
#X connect 10 0 78 0;
#X connect 10 0 79 0;
#X connect 11 0 24 0;
#X connect 14 0 15 0;
#X connect 16 0 58 0;
#X connect 17 0 18 0;
#X connect 17 1 59 0;
#X connect 18 0 59 0;
#X connect 19 0 20 0;
#X connect 20 0 21 0;
#X connect 20 0 54 0;
#X connect 20 0 55 0;
#X connect 22 0 23 0;
#X connect 23 0 60 0;
#X connect 23 1 16 0;
#X connect 24 0 31 0;
#X connect 25 0 24 1;
#X connect 26 0 30 0;
#X connect 29 0 21 0;
#X connect 30 0 62 0;
#X connect 30 1 25 0;
#X connect 30 2 73 0;
#X connect 31 0 32 0;
#X connect 31 1 14 0;
#X connect 31 2 44 1;
#X connect 36 0 56 0;
#X connect 36 1 37 0;
#X connect 37 0 38 0;
#X connect 38 0 39 0;
#X connect 39 0 48 0;
#X connect 40 0 44 0;
#X connect 41 0 53 0;
#X connect 42 0 36 0;
#X connect 43 0 76 0;
#X connect 44 0 41 0;
#X connect 45 0 44 0;
#X connect 46 0 45 0;
#X connect 46 1 41 1;
#X connect 47 0 48 0;
#X connect 48 0 53 0;
#X connect 49 0 47 1;
#X connect 50 0 47 2;
#X connect 51 0 48 1;
#X connect 52 0 48 2;
#X connect 53 0 64 0;
#X connect 53 1 13 0;
#X connect 56 0 39 0;
#X connect 57 0 22 0;
#X connect 58 0 17 0;
#X connect 62 0 61 0;
#X connect 63 0 24 0;
#X connect 67 0 43 0;
#X connect 68 0 69 0;
#X connect 69 0 70 0;
#X connect 69 1 75 1;
#X connect 70 0 42 1;
#X connect 71 0 9 0;
#X connect 72 0 9 0;
#X connect 73 0 71 0;
#X connect 73 1 72 0;
#X connect 74 0 46 0;
#X connect 74 1 43 1;
#X connect 75 0 47 0;
#X connect 76 0 42 0;
#X connect 76 1 75 0;
#X connect 80 0 53 0;
#X coords 0 -1 1 1 101 123 2 50 50;
