#N canvas 352 109 874 675 10;
#X obj 589 125 - 1;
#X obj 589 165 route bang;
#X msg 589 185 symbol;
#X floatatom 562 86 5 0 0 0 - - -, f 5;
#X obj 562 105 t f f;
#N canvas 243 67 340 358 create-ctlbus-receiver 0;
#X obj 49 34 inlet;
#X obj 76 176 pack s s s s;
#X obj 49 55 t b f;
#X obj 76 76 t b f f b;
#X msg 76 196 clear \, obj 50 50 receive \$1 \, obj 50 100 send \$2
\, obj 50 150 receive \$3 \, obj 50 200 send \$4 \, connect 0 0 1 0
\, connect 2 0 3 0, f 34;
#X obj 76 96 makefilename \$0-ctlbus-get;
#X obj 99 116 makefilename \$3-ctlbus-%d-get;
#X obj 122 136 makefilename \$3-ctlbus-%d;
#X obj 145 156 makefilename \$0-ctlbus;
#X obj 76 249 s pd-\$0-receive-ctlbus;
#X obj 49 296 s \$0-ctlbus-get;
#N canvas 448 72 536 411 \$0-receive-ctlbus 0;
#X obj 50 50 receive 1475-ctlbus-get;
#X obj 50 100 send \$3-ctlbus-1-get;
#X obj 50 150 receive \$3-ctlbus-1;
#X obj 50 200 send 1475-ctlbus;
#X connect 0 0 1 0;
#X connect 2 0 3 0;
#X restore 49 316 pd \$0-receive-ctlbus;
#X connect 0 0 2 0;
#X connect 1 0 4 0;
#X connect 2 0 10 0;
#X connect 2 1 3 0;
#X connect 3 0 5 0;
#X connect 3 1 6 0;
#X connect 3 2 7 0;
#X connect 3 3 8 0;
#X connect 4 0 9 0;
#X connect 5 0 1 0;
#X connect 6 0 1 1;
#X connect 7 0 1 2;
#X connect 8 0 1 3;
#X restore 562 231 pd create-ctlbus-receiver;
#X obj 589 206 s \$0-ctlname-i;
#X obj 589 145 text get \$3-ctlbus;
#X obj 562 66 r \$0-ctlbus-o;
#X obj 51 56 cnv 15 99 15 empty empty empty 20 9 0 12 -1 -66577 0;
#X obj 51 70 cnv 15 99 102 empty empty empty 20 12 0 14 -262144 -66577
0;
#X floatatom 69 71 13 0 0 0 - #0-fix-i #0-fix-o, f 13;
#X floatatom 69 88 2 1 99 0 - #0-ctlbus-i #0-ctlbus-o, f 2;
#X symbolatom 87 88 10 0 0 0 - #0-ctlname-i #0-ctlname-o, f 10;
#X obj 50 69 vradio 17 1 0 2 \$0-mode-o \$0-mode-i empty 0 -8 0 10
-262144 -1 -1 0;
#X obj 51 51 cnv 15 99 17 empty empty \$1 4 9 0 11 -228856 -66577 0
;
#X floatatom 87 105 10 0 0 0 max #0-max-i #0-max-o, f 10;
#X floatatom 87 122 10 0 0 0 min #0-min-i #0-min-o, f 10;
#X floatatom 87 139 10 0 0 0 pow #0-pow-i #0-pow-o, f 10;
#X floatatom 87 156 10 0 1e+09 0 sin #0-sin-i #0-sin-o, f 10;
#X obj 249 338 r \$0-fix-o;
#X obj 493 438 r \$0-pow-o;
#X obj 493 459 r \$0-sin-o;
#X obj 598 279 loadbang;
#X obj 285 447 spigot;
#X obj 365 395 spigot;
#X obj 277 415 f;
#X obj 294 389 sel 1;
#X obj 307 367 t f f;
#X obj 326 304 t a;
#X msg 598 299 1;
#X obj 156 275 inlet;
#X obj 492 396 r \$0-min-o;
#X obj 492 417 r \$0-max-o;
#X obj 365 520 t a a;
#X obj 396 544 outlet;
#X msg 196 466 set \$1;
#X obj 196 486 s \$0-fix-i;
#X obj 606 320 s \$0-max-i;
#X obj 598 376 loadbang;
#X msg 598 396 0;
#X obj 598 437 s \$0-mode-i;
#X obj 177 330 spigot;
#X obj 264 215 == 0;
#X obj 264 172 r \$0-mode-o;
#X obj 656 376 r \$4-\$1-mode;
#X obj 177 350 t f f f;
#X obj 177 510 s \$0-fix-for-preset;
#X obj 264 191 t f f;
#X obj 297 215 sel 0 1;
#X msg 326 277 0 1;
#X msg 297 277 1 0;
#X obj 326 327 unpack f f;
#X obj 365 368 receive \$0-ctlbus;
#X obj 353 258 s \$0-ctlbus-i;
#X obj 326 239 t b b;
#X obj 598 341 s \$0-ctlbus-i;
#N canvas 613 264 632 610 preset 0;
#X obj 307 235 pack f f f f f f f f;
#X obj 307 77 r \$0-mode-o;
#X obj 323 96 r \$0-fix-o;
#X obj 373 153 r \$0-max-o;
#X obj 390 172 r \$0-min-o;
#X obj 407 191 r \$0-pow-o;
#X obj 424 210 r \$0-sin-o;
#X obj 357 134 r \$0-norm-o;
#X obj 340 115 r \$0-raw-o;
#X obj 88 346 s \$0-mode-i;
#X obj 161 434 s \$0-max-i;
#X obj 180 453 s \$0-min-i;
#X obj 198 472 s \$0-pow-i;
#X obj 217 491 s \$0-sin-i;
#X obj 98 365 s \$0-fix-i;
#X obj 124 396 s \$0-raw-i;
#X obj 143 415 s \$0-norm-i;
#X obj 88 253 unpack f f f f f f f f;
#X obj 279 257 list;
#X obj 272 213 t b b;
#X obj 390 96 r \$0-fix-for-preset;
#X text 106 27 <[get/set/delete]> <preset_system_name> <preset_name>
;
#X text 430 27 <param_name>;
#N canvas 0 23 825 704 preset-get-set-delete 0;
#X obj 330 391 sel -1;
#X obj 273 299 t a a;
#X obj 166 551 spigot;
#X obj 253 531 == 0;
#X obj 226 511 t f f;
#X obj 220 551 spigot;
#X obj 166 511 t a a;
#X obj 363 411 t b f;
#X msg 330 411 1;
#X msg 338 434 0;
#X obj 26 209 sel -1;
#X obj 74 29 inlet;
#X obj 224 184 sel -1;
#X obj 93 658 outlet get;
#X obj 502 654 outlet getvalues;
#X obj 592 26 inlet getvalues;
#X obj 208 354 t b a;
#X obj 166 452 list prepend;
#X obj 166 394 t b b;
#X obj 166 432 list;
#X obj 330 455 t f;
#X obj 74 56 route get set delete;
#X obj 257 204 text delete \$2-presets;
#X obj 224 144 list split 3;
#X obj 330 351 list split 3;
#X obj 224 164 text search \$2-presets 0 1 2;
#X obj 330 371 text search \$2-presets 0 1 2;
#X obj 236 579 text set \$2-presets;
#X obj 206 600 text insert \$2-presets 0;
#X obj 26 169 list split 3;
#X obj 26 189 text search \$2-presets 0 1 2;
#X obj 59 229 text get \$2-presets;
#X obj 59 249 list split 3;
#X obj 26 149 list append \$1;
#X obj 273 279 list append \$1;
#X obj 224 124 list append \$1;
#X connect 0 0 8 0;
#X connect 0 1 7 0;
#X connect 1 0 16 0;
#X connect 1 1 24 0;
#X connect 2 0 28 0;
#X connect 3 0 5 1;
#X connect 4 0 2 1;
#X connect 4 1 3 0;
#X connect 5 0 27 0;
#X connect 6 0 2 0;
#X connect 6 1 5 0;
#X connect 7 0 9 0;
#X connect 7 1 27 1;
#X connect 8 0 20 0;
#X connect 9 0 20 0;
#X connect 10 1 31 0;
#X connect 11 0 21 0;
#X connect 12 1 22 0;
#X connect 15 0 19 1;
#X connect 16 0 18 0;
#X connect 16 1 17 1;
#X connect 17 0 6 0;
#X connect 18 0 19 0;
#X connect 18 1 14 0;
#X connect 19 0 17 0;
#X connect 20 0 4 0;
#X connect 21 0 33 0;
#X connect 21 1 34 0;
#X connect 21 2 35 0;
#X connect 23 0 25 0;
#X connect 24 0 26 0;
#X connect 25 0 12 0;
#X connect 26 0 0 0;
#X connect 29 0 30 0;
#X connect 30 0 10 0;
#X connect 31 0 32 0;
#X connect 32 1 13 0;
#X connect 33 0 29 0;
#X connect 34 0 1 0;
#X connect 35 0 23 0;
#X restore 88 233 pd preset-get-set-delete;
#X obj 88 96 r \$4-preset-cmd;
#X obj 98 322 f;
#X obj 61 290 t b f;
#X connect 0 0 18 1;
#X connect 1 0 0 0;
#X connect 2 0 0 1;
#X connect 3 0 0 4;
#X connect 4 0 0 5;
#X connect 5 0 0 6;
#X connect 6 0 0 7;
#X connect 7 0 0 3;
#X connect 8 0 0 2;
#X connect 17 0 26 0;
#X connect 17 1 25 1;
#X connect 17 2 15 0;
#X connect 17 3 16 0;
#X connect 17 4 10 0;
#X connect 17 5 11 0;
#X connect 17 6 12 0;
#X connect 17 7 13 0;
#X connect 18 0 23 1;
#X connect 19 0 18 0;
#X connect 19 1 0 0;
#X connect 20 0 0 1;
#X connect 23 0 17 0;
#X connect 23 1 19 0;
#X connect 24 0 23 0;
#X connect 25 0 14 0;
#X connect 26 0 25 0;
#X connect 26 1 9 0;
#X restore 176 116 pd preset;
#X text 174 67 <param_name> <module_name> <project_name> <parent_\$0>
;
#X text 174 51 arguments :;
#X text 126 215 leave open if we want;
#X text 126 228 fix parameter always;
#X text 126 241 active;
#X obj 156 295 r \$4-\$1-o;
#X text 32 295 direct link to UI >;
#X obj 359 564 s \$4-\$1-i;
#X text 423 564 < direct link to UI;
#X text 238 117 < [r \$4-preset-cmd] inside;
#N canvas 505 94 517 395 maaaaaaaaaaap 0;
#N canvas 130 63 734 585 scale 0;
#X obj 65 41 inlet;
#X obj 114 41 inlet min_in;
#X obj 194 41 inlet max_in;
#X obj 297 41 inlet min_out;
#X obj 383 41 inlet max_out;
#X obj 150 123 -;
#X obj 340 139 -;
#X obj 114 79 t b f;
#X obj 297 79 t b f;
#X obj 239 208 / 1;
#X obj 150 143 sel 0;
#X obj 65 348 *;
#X obj 239 229 t f f;
#X obj 82 302 t b f;
#X obj 93 528 outlet;
#X obj 194 79 t f f;
#X obj 383 79 t f f;
#X obj 184 164 t b b f;
#X msg 184 196 1;
#X msg 150 196 0;
#X obj 315 336 -;
#X obj 285 274 *;
#X text 358 307 < calcul de la valeur au point 0 (coeff b) b = y -
ax;
#X text 281 199 < calcul de la pente (coeff a) a = (y2 - y1) / (x2
- x1);
#X obj 285 295 t b f;
#X obj 211 426 +;
#X obj 216 385 t b f;
#X obj 93 506 spigot 1 1;
#X connect 0 0 11 0;
#X connect 1 0 7 0;
#X connect 2 0 15 0;
#X connect 3 0 8 0;
#X connect 4 0 16 0;
#X connect 5 0 10 0;
#X connect 6 0 9 0;
#X connect 7 0 5 0;
#X connect 7 1 5 1;
#X connect 8 0 6 0;
#X connect 8 1 6 1;
#X connect 9 0 12 0;
#X connect 10 0 19 0;
#X connect 10 1 17 0;
#X connect 11 0 25 0;
#X connect 12 0 11 1;
#X connect 12 1 21 0;
#X connect 13 0 11 0;
#X connect 13 1 11 1;
#X connect 15 0 5 0;
#X connect 15 1 21 1;
#X connect 16 0 6 0;
#X connect 16 1 20 0;
#X connect 17 0 18 0;
#X connect 17 1 9 0;
#X connect 17 2 9 1;
#X connect 18 0 27 1;
#X connect 19 0 27 1;
#X connect 20 0 25 1;
#X connect 21 0 24 0;
#X connect 24 0 20 0;
#X connect 24 1 20 1;
#X connect 25 0 27 0;
#X connect 26 0 25 0;
#X connect 26 1 25 1;
#X connect 27 0 14 0;
#X restore 125 139 pd scale;
#N canvas 130 63 734 585 scale 0;
#X obj 65 41 inlet;
#X obj 114 41 inlet min_in;
#X obj 194 41 inlet max_in;
#X obj 297 41 inlet min_out;
#X obj 383 41 inlet max_out;
#X obj 150 123 -;
#X obj 340 139 -;
#X obj 114 79 t b f;
#X obj 297 79 t b f;
#X obj 239 208 / 1;
#X obj 150 143 sel 0;
#X obj 65 348 *;
#X obj 239 229 t f f;
#X obj 82 305 t b f;
#X obj 93 528 outlet;
#X obj 194 79 t f f;
#X obj 383 79 t f f;
#X obj 184 164 t b b f;
#X msg 184 196 1;
#X msg 150 196 0;
#X obj 315 336 -;
#X obj 285 274 *;
#X text 358 307 < calcul de la valeur au point 0 (coeff b) b = y -
ax;
#X text 281 199 < calcul de la pente (coeff a) a = (y2 - y1) / (x2
- x1);
#X obj 285 295 t b f;
#X obj 211 426 +;
#X obj 215 386 t b f;
#X obj 93 506 spigot 1 1;
#X connect 0 0 11 0;
#X connect 1 0 7 0;
#X connect 2 0 15 0;
#X connect 3 0 8 0;
#X connect 4 0 16 0;
#X connect 5 0 10 0;
#X connect 6 0 9 0;
#X connect 7 0 5 0;
#X connect 7 1 5 1;
#X connect 8 0 6 0;
#X connect 8 1 6 1;
#X connect 9 0 12 0;
#X connect 10 0 19 0;
#X connect 10 1 17 0;
#X connect 11 0 25 0;
#X connect 12 0 11 1;
#X connect 12 1 21 0;
#X connect 13 0 11 0;
#X connect 13 1 11 1;
#X connect 15 0 5 0;
#X connect 15 1 21 1;
#X connect 16 0 6 0;
#X connect 16 1 20 0;
#X connect 17 0 18 0;
#X connect 17 1 9 0;
#X connect 17 2 9 1;
#X connect 18 0 27 1;
#X connect 19 0 27 1;
#X connect 20 0 25 1;
#X connect 21 0 24 0;
#X connect 24 0 20 0;
#X connect 24 1 20 1;
#X connect 25 0 27 0;
#X connect 26 0 25 0;
#X connect 26 1 25 1;
#X connect 27 0 14 0;
#X restore 178 327 pd scale;
#X obj 70 34 inlet;
#X obj 178 349 outlet;
#X obj 362 34 loadbang;
#X msg 378 79 0;
#X msg 407 79 1;
#X obj 185 34 inlet;
#X obj 223 34 inlet;
#X obj 109 34 inlet;
#X obj 147 34 inlet;
#X obj 261 34 inlet;
#X obj 299 34 inlet;
#X msg 349 79 1;
#X msg 320 79 -1;
#N canvas 344 324 418 335 powsine 0;
#X obj 80 48 inlet;
#X obj 121 270 outlet;
#X obj 202 47 inlet;
#X obj 137 47 inlet;
#N canvas 0 23 395 486 sigmoid 0;
#X obj 235 35 inlet;
#X obj 235 56 t f f;
#X obj 135 257 swap 1;
#X obj 135 283 -;
#X obj 120 183 swap 1;
#X obj 120 208 -;
#X obj 135 236 pow;
#X obj 120 163 abs;
#X obj 189 283 pow;
#X obj 189 163 abs;
#X obj 120 143 spigot;
#X obj 189 143 spigot;
#X obj 120 102 t f f;
#X obj 93 82 t f f;
#X obj 120 387 *;
#X obj 93 283 > 0;
#X obj 93 330 sel 0;
#X msg 93 351 -1;
#X obj 195 103 t f f;
#X obj 222 123 == 0;
#X obj 262 184 t f f;
#X obj 262 144 + 1;
#X obj 262 123 *;
#X obj 262 79 abs;
#X obj 195 82 >= 0;
#X obj 93 30 inlet;
#X obj 120 412 outlet;
#X obj 262 100 t f f;
#X connect 0 0 1 0;
#X connect 1 0 24 0;
#X connect 1 1 23 0;
#X connect 2 0 3 0;
#X connect 2 1 3 1;
#X connect 3 0 14 1;
#X connect 4 0 5 0;
#X connect 4 1 5 1;
#X connect 5 0 6 0;
#X connect 6 0 2 0;
#X connect 7 0 4 0;
#X connect 8 0 14 1;
#X connect 9 0 8 0;
#X connect 10 0 7 0;
#X connect 11 0 9 0;
#X connect 12 0 10 0;
#X connect 12 1 11 0;
#X connect 13 0 15 0;
#X connect 13 1 12 0;
#X connect 14 0 26 0;
#X connect 15 0 16 0;
#X connect 16 0 17 0;
#X connect 16 1 14 0;
#X connect 17 0 14 0;
#X connect 18 0 10 1;
#X connect 18 1 19 0;
#X connect 19 0 11 1;
#X connect 20 0 6 1;
#X connect 20 1 8 1;
#X connect 21 0 20 0;
#X connect 22 0 21 0;
#X connect 23 0 27 0;
#X connect 24 0 18 0;
#X connect 25 0 13 0;
#X connect 27 0 22 0;
#X connect 27 1 22 1;
#X restore 80 122 pd sigmoid;
#X obj 80 151 * 0.5;
#X obj 80 170 + 0.5;
#N canvas 0 23 364 443 power 0;
#X obj 211 47 inlet;
#X obj 211 68 t f f;
#X obj 111 269 swap 1;
#X obj 111 295 -;
#X obj 96 195 swap 1;
#X obj 96 220 -;
#X obj 111 248 pow;
#X obj 96 175 abs;
#X obj 165 295 pow;
#X obj 165 175 abs;
#X obj 96 155 spigot;
#X obj 165 155 spigot;
#X obj 96 114 t f f;
#X obj 171 115 t f f;
#X obj 198 135 == 0;
#X obj 238 196 t f f;
#X obj 238 156 + 1;
#X obj 238 135 *;
#X obj 238 91 abs;
#X obj 96 49 inlet;
#X obj 111 375 outlet;
#X obj 171 94 < 0;
#X obj 238 111 t f f;
#X connect 0 0 1 0;
#X connect 1 0 21 0;
#X connect 1 1 18 0;
#X connect 2 0 3 0;
#X connect 2 1 3 1;
#X connect 3 0 20 0;
#X connect 4 0 5 0;
#X connect 4 1 5 1;
#X connect 5 0 6 0;
#X connect 6 0 2 0;
#X connect 7 0 4 0;
#X connect 8 0 20 0;
#X connect 9 0 8 0;
#X connect 10 0 7 0;
#X connect 11 0 9 0;
#X connect 12 0 10 0;
#X connect 12 1 11 0;
#X connect 13 0 10 1;
#X connect 13 1 14 0;
#X connect 14 0 11 1;
#X connect 15 0 6 1;
#X connect 15 1 8 1;
#X connect 16 0 15 0;
#X connect 17 0 16 0;
#X connect 18 0 22 0;
#X connect 19 0 12 0;
#X connect 21 0 13 0;
#X connect 22 0 17 0;
#X connect 22 1 17 1;
#X restore 121 211 pd power;
#X text 149 122 < in : [-1 \, 1] - out : [-1 \, 1];
#X text 179 211 < in : [0 \, 1] - out : [0 \, 1];
#X connect 0 0 4 0;
#X connect 2 0 7 1;
#X connect 3 0 4 1;
#X connect 4 0 5 0;
#X connect 5 0 6 0;
#X connect 6 0 7 0;
#X connect 7 0 1 0;
#X restore 125 253 pd powsine;
#X connect 0 0 15 0;
#X connect 1 0 3 0;
#X connect 2 0 0 0;
#X connect 4 0 5 0;
#X connect 4 0 6 0;
#X connect 4 0 14 0;
#X connect 4 0 13 0;
#X connect 5 0 1 1;
#X connect 5 0 15 1;
#X connect 5 0 15 2;
#X connect 6 0 1 2;
#X connect 7 0 1 3;
#X connect 8 0 1 4;
#X connect 9 0 0 1;
#X connect 10 0 0 2;
#X connect 11 0 15 2;
#X connect 12 0 15 1;
#X connect 13 0 0 4;
#X connect 14 0 0 3;
#X connect 15 0 1 0;
#X restore 365 495 pd maaaaaaaaaaap;
#X obj 380 427 loadbang;
#X msg 380 453 0;
#X msg 409 453 1;
#X text 469 495 < drop-in vanilla [jl/map] substitute;
#N canvas 0 23 301 236 fix-on-preset-recall 0;
#X obj 136 58 r \$0-mode-i;
#X obj 103 118 spigot;
#X obj 136 78 sel 1;
#X msg 136 97 1;
#X obj 103 138 t f b;
#X msg 151 129 0;
#X obj 103 39 r \$0-fix-i;
#X obj 103 169 outlet;
#X connect 0 0 2 0;
#X connect 1 0 4 0;
#X connect 2 0 3 0;
#X connect 3 0 1 1;
#X connect 4 0 7 0;
#X connect 4 1 5 0;
#X connect 5 0 1 1;
#X connect 6 0 1 0;
#X restore 406 520 pd fix-on-preset-recall;
#X connect 0 0 7 0;
#X connect 1 0 2 0;
#X connect 1 1 6 0;
#X connect 2 0 6 0;
#X connect 3 0 4 0;
#X connect 4 0 5 0;
#X connect 4 1 0 0;
#X connect 7 0 1 0;
#X connect 8 0 3 0;
#X connect 20 0 26 0;
#X connect 21 0 68 5;
#X connect 22 0 68 6;
#X connect 23 0 30 0;
#X connect 24 0 34 0;
#X connect 25 0 68 0;
#X connect 26 0 24 0;
#X connect 27 0 26 0;
#X connect 28 0 27 0;
#X connect 28 1 24 1;
#X connect 29 0 52 0;
#X connect 30 0 38 0;
#X connect 30 0 56 0;
#X connect 31 0 42 0;
#X connect 32 0 68 3;
#X connect 33 0 68 4;
#X connect 34 0 65 0;
#X connect 34 1 35 0;
#X connect 36 0 37 0;
#X connect 39 0 40 0;
#X connect 40 0 41 0;
#X connect 42 0 46 0;
#X connect 43 0 42 1;
#X connect 44 0 48 0;
#X connect 45 0 41 0;
#X connect 46 0 47 0;
#X connect 46 1 36 0;
#X connect 46 2 26 1;
#X connect 48 0 43 0;
#X connect 48 1 49 0;
#X connect 49 0 51 0;
#X connect 49 1 55 0;
#X connect 50 0 29 0;
#X connect 51 0 29 0;
#X connect 52 0 28 0;
#X connect 52 1 25 1;
#X connect 53 0 25 0;
#X connect 55 0 50 0;
#X connect 55 1 54 0;
#X connect 63 0 42 0;
#X connect 68 0 34 0;
#X connect 69 0 70 0;
#X connect 69 0 71 0;
#X connect 70 0 68 1;
#X connect 70 0 68 3;
#X connect 71 0 68 2;
#X connect 71 0 68 4;
#X connect 73 0 34 0;
#X coords 0 -1 1 1 101 123 2 50 50;
