#N canvas 365 101 974 673 10;
#X obj 356 304 text define \$1-presets;
#N canvas 621 78 468 470 refreshlist 0;
#X obj 83 154 until;
#X obj 83 126 t f b;
#X msg 121 146 0;
#X obj 83 175 f;
#X obj 108 175 + 1;
#X obj 83 196 t f f;
#X obj 83 62 bng 15 250 50 0 empty empty refresh_presets_list 17 7
0 10 #fcfcfc #000000 #000000;
#X obj 83 107 text size \$1-presets;
#X obj 83 219 text get \$1-presets;
#X obj 83 81 t b b;
#X obj 83 42 r \$0-refreshlist;
#X obj 83 417 send;
#X obj 247 360 makefilename \$0-%i-preset-i;
#X obj 83 245 list prepend set;
#X obj 83 265 list trim;
#X obj 220 239 until;
#X obj 220 211 t f b;
#X msg 258 231 0;
#X obj 220 260 f;
#X obj 245 260 + 1;
#X obj 220 280 t b f;
#X msg 220 301 symbol;
#X msg 220 191 32;
#X connect 0 0 3 0;
#X connect 1 0 0 0;
#X connect 1 1 2 0;
#X connect 2 0 3 1;
#X connect 3 0 4 0;
#X connect 3 0 5 0;
#X connect 4 0 3 1;
#X connect 5 0 8 0;
#X connect 5 1 12 0;
#X connect 6 0 9 0;
#X connect 7 0 1 0;
#X connect 8 0 13 0;
#X connect 9 0 7 0;
#X connect 9 1 22 0;
#X connect 10 0 6 0;
#X connect 12 0 11 1;
#X connect 13 0 14 0;
#X connect 14 0 11 0;
#X connect 15 0 18 0;
#X connect 16 0 15 0;
#X connect 16 1 17 0;
#X connect 17 0 18 1;
#X connect 18 0 19 0;
#X connect 18 0 20 0;
#X connect 19 0 18 1;
#X connect 20 0 21 0;
#X connect 20 1 12 0;
#X connect 21 0 11 0;
#X connect 22 0 16 0;
#X restore 329 443 pd refreshlist;
#N canvas 526 32 504 432 clearpreset 0;
#X msg 80 58 -1;
#X obj 165 301 text delete \$1-presets;
#X obj 82 326 s \$0-refreshlist;
#X obj 303 223 text get \$1-presets;
#X obj 303 301 s \$1-preset-cmd;
#X obj 303 246 list prepend delete;
#X obj 303 266 list trim;
#X obj 159 120 text size \$1-presets;
#X obj 144 141 <;
#X obj 111 120 t f f;
#X obj 111 161 spigot;
#X obj 111 181 t b f f f;
#X obj 121 301 outlet;
#X obj 401 301 outlet;
#X obj 111 81 t f b;
#X obj 111 58 r \$0-clear-o;
#X connect 0 0 14 0;
#X connect 3 0 5 0;
#X connect 5 0 6 0;
#X connect 6 0 4 0;
#X connect 6 0 13 0;
#X connect 7 0 8 1;
#X connect 8 0 10 1;
#X connect 9 0 10 0;
#X connect 9 1 8 0;
#X connect 10 0 11 0;
#X connect 11 0 2 0;
#X connect 11 1 12 0;
#X connect 11 2 1 0;
#X connect 11 3 3 0;
#X connect 14 0 9 0;
#X connect 14 1 7 0;
#X connect 15 0 14 0;
#X restore 761 77 pd clearpreset;
#N canvas 457 33 365 370 writepreset 0;
#X obj 138 196 text get \$1-presets;
#X obj 138 282 s \$1-preset-cmd;
#X obj 138 239 list trim;
#X obj 141 106 text size \$1-presets;
#X obj 126 127 <;
#X obj 93 106 t f f;
#X obj 93 147 spigot;
#X obj 138 219 list prepend set;
#X obj 93 166 t f f;
#X obj 93 282 outlet;
#X obj 237 282 outlet;
#X obj 93 73 t f b;
#X obj 93 52 r \$0-write-o;
#X connect 0 0 7 0;
#X connect 2 0 1 0;
#X connect 2 0 10 0;
#X connect 3 0 4 1;
#X connect 4 0 6 1;
#X connect 5 0 6 0;
#X connect 5 1 4 0;
#X connect 6 0 8 0;
#X connect 7 0 2 0;
#X connect 8 0 9 0;
#X connect 8 1 0 0;
#X connect 11 0 5 0;
#X connect 11 1 3 0;
#X connect 12 0 11 0;
#X restore 725 102 pd writepreset;
#N canvas 509 45 355 353 recallpreset 0;
#X obj 97 185 text get \$1-presets;
#X obj 97 272 s \$1-preset-cmd;
#X obj 97 228 list trim;
#X obj 102 101 text size \$1-presets;
#X obj 87 122 <;
#X obj 54 101 t f f;
#X obj 54 142 spigot;
#X obj 97 208 list prepend get;
#X obj 54 162 t f f;
#X obj 54 272 outlet;
#X obj 194 272 outlet;
#X obj 54 31 r \$0-recall-o;
#X obj 54 54 t f b;
#X connect 0 0 7 0;
#X connect 2 0 1 0;
#X connect 2 0 10 0;
#X connect 3 0 4 1;
#X connect 4 0 6 1;
#X connect 5 0 6 0;
#X connect 5 1 4 0;
#X connect 6 0 8 0;
#X connect 7 0 2 0;
#X connect 8 0 9 0;
#X connect 8 1 0 0;
#X connect 11 0 12 0;
#X connect 12 0 5 0;
#X connect 12 1 3 0;
#X restore 643 77 pd recallpreset;
#X obj 492 620 send;
#X floatatom 492 552 5 0 0 0 - - - 0;
#X obj 492 571 t b f;
#X obj 289 620 send;
#X obj 289 571 t b f;
#X obj 289 520 until;
#X obj 289 542 f;
#X obj 289 478 t b b;
#X obj 289 457 bng 15 250 50 0 empty empty empty 17 7 0 10 #fcfcfc
#000000 #000000;
#X obj 314 542 - 1;
#N canvas 47 34 369 685 overwrite-or-writenew 0;
#X obj 92 258 sel -1;
#X msg 114 312 0;
#X msg 92 278 1;
#X obj 108 383 spigot;
#X obj 65 383 spigot;
#X obj 65 340 t s s;
#X obj 141 362 == 0;
#X obj 114 340 t f f;
#X obj 151 427 text set \$1-presets;
#X obj 92 238 text search \$1-presets;
#X obj 92 509 text insert \$1-presets 1e+09;
#N canvas 0 23 428 364 filter-blanks 0;
#X obj 159 73 list fromsymbol;
#X obj 159 92 route bang;
#X msg 204 228 0;
#X obj 132 177 t b a;
#X msg 176 228 1;
#X obj 159 111 bng 15 250 50 0 empty empty empty 17 7 0 10 #fcfcfc
#000000 #000000;
#X obj 132 51 t a a;
#X obj 159 308 spigot 1;
#X obj 235 137 route 32;
#X obj 290 137 route 32;
#X obj 290 160 bng 15 250 50 0 empty empty empty 17 7 0 10 #fcfcfc
#000000 #000000;
#X obj 216 205 spigot 1;
#X obj 216 111 t b a b;
#X msg 261 181 1;
#X msg 290 181 0;
#X obj 132 32 inlet;
#X obj 159 328 outlet;
#X obj 204 251 t f f;
#X obj 159 283 t a b;
#X obj 215 308 spigot 1;
#X obj 215 328 outlet;
#X obj 260 288 == 0;
#X connect 0 0 1 0;
#X connect 1 0 5 0;
#X connect 1 1 12 0;
#X connect 2 0 17 0;
#X connect 3 0 4 0;
#X connect 3 1 18 0;
#X connect 4 0 17 0;
#X connect 5 0 2 0;
#X connect 6 0 3 0;
#X connect 6 1 0 0;
#X connect 7 0 16 0;
#X connect 8 0 9 0;
#X connect 8 1 10 0;
#X connect 9 0 8 0;
#X connect 9 1 10 0;
#X connect 10 0 14 0;
#X connect 11 0 2 0;
#X connect 12 0 11 0;
#X connect 12 1 8 0;
#X connect 12 2 13 0;
#X connect 13 0 11 1;
#X connect 14 0 11 1;
#X connect 15 0 6 0;
#X connect 17 0 7 1;
#X connect 17 1 21 0;
#X connect 18 0 7 0;
#X connect 18 1 19 0;
#X connect 19 0 20 0;
#X connect 21 0 19 1;
#X restore 46 62 pd filter-blanks;
#X obj 46 42 r \$0-preset-o;
#X obj 30 207 s \$0-refreshlist;
#X obj 46 174 t b s s;
#X obj 65 489 t b s;
#X obj 150 469 send;
#X obj 65 530 text size \$1-presets;
#X obj 65 623 send;
#X obj 65 549 - 1;
#X obj 79 113 text size \$1-presets;
#X obj 46 82 t s b;
#X obj 46 154 spigot;
#X obj 190 623 outlet;
#X obj 65 568 t b f f;
#X obj 154 285 t b f f f;
#X obj 190 469 f;
#X obj 108 406 t b b s;
#X obj 171 448 makefilename \$0-%i-write-i;
#X obj 91 600 makefilename \$0-%i-write-i;
#X obj 79 134 < 32;
#X connect 0 0 2 0;
#X connect 0 1 25 0;
#X connect 1 0 7 0;
#X connect 2 0 7 0;
#X connect 3 0 27 0;
#X connect 4 0 15 0;
#X connect 5 0 4 0;
#X connect 5 1 3 0;
#X connect 6 0 3 1;
#X connect 7 0 4 1;
#X connect 7 1 6 0;
#X connect 9 0 0 0;
#X connect 11 0 21 0;
#X connect 12 0 11 0;
#X connect 14 0 13 0;
#X connect 14 1 5 0;
#X connect 14 2 9 0;
#X connect 15 0 17 0;
#X connect 15 1 10 0;
#X connect 17 0 19 0;
#X connect 19 0 24 0;
#X connect 20 0 30 0;
#X connect 21 0 22 0;
#X connect 21 1 20 0;
#X connect 22 0 14 0;
#X connect 24 0 18 0;
#X connect 24 1 29 0;
#X connect 24 2 23 0;
#X connect 25 0 1 0;
#X connect 25 1 28 0;
#X connect 25 2 8 1;
#X connect 25 3 26 1;
#X connect 26 0 23 0;
#X connect 27 0 16 0;
#X connect 27 1 26 0;
#X connect 27 2 8 0;
#X connect 28 0 16 1;
#X connect 29 0 18 1;
#X connect 30 0 22 1;
#X restore 681 57 pd overwrite-or-writenew;
#X obj 340 334 loadbang;
#X obj 356 377 s \$0-refreshlist;
#X obj 329 421 s \$0-preset-i;
#X msg 329 401 symbol;
#X obj 492 532 inlet;
#N canvas 505 113 448 427 recall-colors 0;
#X obj 164 136 until;
#X obj 189 161 + 1;
#X obj 164 161 f;
#X msg 194 112 0;
#X obj 164 90 t b b;
#X obj 228 221 t b f;
#X msg 137 251 color 13 0 22;
#X msg 143 270 color 0 0 22;
#X obj 137 70 t f b;
#X obj 137 221 t b f;
#X obj 137 50 inlet focusindex;
#X obj 252 49 inlet resetindex;
#X obj 137 351 send;
#X obj 164 304 t f;
#X obj 137 304 t a;
#X obj 164 325 makefilename \$0-%i-recall-i;
#X msg 164 112 32;
#X connect 0 0 2 0;
#X connect 1 0 2 1;
#X connect 2 0 1 0;
#X connect 2 0 5 0;
#X connect 3 0 2 1;
#X connect 4 0 16 0;
#X connect 4 1 3 0;
#X connect 5 0 7 0;
#X connect 5 1 13 0;
#X connect 6 0 14 0;
#X connect 7 0 14 0;
#X connect 8 0 9 0;
#X connect 8 1 4 0;
#X connect 9 0 6 0;
#X connect 9 1 13 0;
#X connect 10 0 8 0;
#X connect 11 0 5 0;
#X connect 13 0 15 0;
#X connect 14 0 12 0;
#X connect 15 0 12 1;
#X connect 16 0 0 0;
#X restore 700 495 pd recall-colors;
#N canvas 505 113 488 385 write-colors 0;
#X obj 176 130 until;
#X obj 201 155 + 1;
#X obj 176 155 f;
#X msg 206 106 0;
#X obj 176 84 t b b;
#X obj 240 197 t b f;
#X msg 149 227 color 13 0 22;
#X msg 155 246 color 0 0 22;
#X obj 149 63 t f b;
#X obj 149 197 t b f;
#X obj 149 43 inlet focusindex;
#X obj 268 42 inlet resetindex;
#X obj 149 330 send;
#X obj 176 283 t f;
#X obj 149 283 t a;
#X obj 176 304 makefilename \$0-%i-write-i;
#X msg 176 106 32;
#X connect 0 0 2 0;
#X connect 1 0 2 1;
#X connect 2 0 1 0;
#X connect 2 0 5 0;
#X connect 3 0 2 1;
#X connect 4 0 16 0;
#X connect 4 1 3 0;
#X connect 5 0 7 0;
#X connect 5 1 13 0;
#X connect 6 0 14 0;
#X connect 7 0 14 0;
#X connect 8 0 9 0;
#X connect 8 1 4 0;
#X connect 9 0 6 0;
#X connect 9 1 13 0;
#X connect 10 0 8 0;
#X connect 11 0 5 0;
#X connect 13 0 15 0;
#X connect 14 0 12 0;
#X connect 15 0 12 1;
#X connect 16 0 0 0;
#X restore 643 516 pd write-colors;
#X obj 802 281 text get \$1-presets;
#X obj 692 336 symbol;
#X obj 692 284 bng 15 250 50 0 empty empty empty 17 7 0 10 #fcfcfc
#000000 #000000;
#X obj 738 250 t b f;
#X obj 692 360 spigot;
#X obj 750 360 spigot;
#X obj 738 302 t f f;
#X obj 794 336 == 0;
#X obj 832 301 text get \$1-presets;
#X obj 750 336 symbol;
#X obj 776 250 t b f;
#X obj 692 383 text search \$1-presets;
#X msg 738 281 1;
#X msg 767 281 0;
#X obj 750 403 text search \$1-presets;
#X obj 692 303 t b b;
#X obj 862 252 outlet;
#N canvas 0 23 493 371 append-filename 0;
#X obj 140 52 inlet;
#X obj 138 294 outlet;
#X obj 246 200 list fromsymbol;
#X obj 138 200 list fromsymbol;
#X obj 138 260 list tosymbol;
#X obj 246 140 loadbang;
#X obj 138 179 symbol;
#X obj 138 240 list append;
#X obj 246 160 bng 15 250 50 0 empty empty empty 17 7 0 10 #fcfcfc
#000000 #000000;
#X obj 246 179 symbol /\$1-presets.txt;
#X connect 0 0 6 0;
#X connect 2 0 7 1;
#X connect 3 0 7 0;
#X connect 4 0 1 0;
#X connect 5 0 8 0;
#X connect 6 0 3 0;
#X connect 7 0 4 0;
#X connect 8 0 9 0;
#X connect 9 0 2 0;
#X restore 372 107 pd append-filename;
#N canvas 0 23 493 371 append-filename 0;
#X obj 140 52 inlet;
#X obj 138 294 outlet;
#X obj 246 200 list fromsymbol;
#X obj 138 200 list fromsymbol;
#X obj 138 260 list tosymbol;
#X obj 246 140 loadbang;
#X obj 138 179 symbol;
#X obj 138 240 list append;
#X obj 246 160 bng 15 250 50 0 empty empty empty 17 7 0 10 #fcfcfc
#000000 #000000;
#X obj 246 179 symbol /\$1-presets.txt;
#X connect 0 0 6 0;
#X connect 2 0 7 1;
#X connect 3 0 7 0;
#X connect 4 0 1 0;
#X connect 5 0 8 0;
#X connect 6 0 3 0;
#X connect 7 0 4 0;
#X connect 8 0 9 0;
#X connect 9 0 2 0;
#X restore 329 149 pd append-filename;
#X obj 329 169 list prepend read;
#X obj 372 127 list prepend write;
#X obj 329 250 list trim;
#X obj 643 474 unpack f f;
#X msg 681 441 \$1 -1;
#X msg 643 414 -1 \$1;
#X msg 537 433 -1 -1;
#X obj 643 132 t f f;
#X obj 681 132 t f f;
#X obj 329 271 t b a;
#X obj 329 357 t b b;
#X obj 329 189 t a b;
#X obj 537 304 bng 15 250 50 0 empty empty empty 17 7 0 10 #fcfcfc
#000000 #000000;
#X obj 537 283 loadbang;
#X obj 862 160 list split 1;
#X obj 862 180 list append \$1;
#X obj 862 200 list;
#X obj 862 220 list trim;
#X obj 329 58 r \$2-file-cmd;
#X obj 451 174 openpanel;
#X obj 524 174 savepanel;
#X obj 451 193 list prepend read;
#X obj 524 212 list prepend write;
#X obj 329 77 route open save;
#X text 443 31 arguments :;
#X text 443 47 <module_name> <project_name>;
#X obj 525 592 makefilename \$0-%i-recall-i;
#X obj 322 592 makefilename \$0-%i-clear-i;
#X obj 312 334 bng 15 250 50 0 empty empty empty 17 7 0 10 #fcfcfc
#000000 #000000;
#X obj 21 36 cnv 15 199 123 empty empty empty 20 9 0 12 #000000 #404040
0;
#X obj 21 21 cnv 15 199 17 \$0-read-file-o \$0-read-file-i \$1 38 9
0 11 #dcdcdc #404040 0;
#X obj 21 40 cnv 15 199 568 empty empty empty 4 10 0 12 #fcfcfc #202020
0;
#X symbolatom 22 41 25 0 0 0 - \$0-preset-i \$0-preset-o 0;
#X obj 22 22 bng 15 250 50 0 \$0-read-o \$0-read-i R 5 8 0 10 #fcfcfc
#fcfcfc #000000;
#X obj 37 22 bng 15 250 50 0 \$0-write-file-o \$0-write-file-i W 5
8 0 10 #fcfcfc #fcfcfc #000000;
#X obj 21 58 cnv 5 199 5 empty empty empty 4 9 0 11 #000000 #404040
0;
#X obj 21 59 cnv 3 199 3 empty empty empty 4 9 0 11 #dcdcdc #000000
0;
#X obj 22 65 project/preset-manager-unit \$0 0;
#X obj 22 82 project/preset-manager-unit \$0 1;
#X obj 22 99 project/preset-manager-unit \$0 2;
#X obj 22 116 project/preset-manager-unit \$0 3;
#X obj 22 133 project/preset-manager-unit \$0 4;
#X obj 22 150 project/preset-manager-unit \$0 5;
#X obj 22 167 project/preset-manager-unit \$0 6;
#X obj 22 184 project/preset-manager-unit \$0 7;
#X obj 22 201 project/preset-manager-unit \$0 8;
#X obj 22 218 project/preset-manager-unit \$0 9;
#X obj 22 235 project/preset-manager-unit \$0 10;
#X obj 22 252 project/preset-manager-unit \$0 11;
#X obj 22 269 project/preset-manager-unit \$0 12;
#X obj 22 286 project/preset-manager-unit \$0 13;
#X obj 22 303 project/preset-manager-unit \$0 14;
#X obj 22 320 project/preset-manager-unit \$0 15;
#X obj 22 337 project/preset-manager-unit \$0 16;
#X obj 22 354 project/preset-manager-unit \$0 17;
#X obj 22 371 project/preset-manager-unit \$0 18;
#X obj 22 388 project/preset-manager-unit \$0 19;
#X obj 22 405 project/preset-manager-unit \$0 20;
#X obj 22 422 project/preset-manager-unit \$0 21;
#X obj 22 439 project/preset-manager-unit \$0 22;
#X obj 22 456 project/preset-manager-unit \$0 23;
#X obj 22 473 project/preset-manager-unit \$0 24;
#X obj 22 490 project/preset-manager-unit \$0 25;
#X obj 22 507 project/preset-manager-unit \$0 26;
#X obj 22 524 project/preset-manager-unit \$0 27;
#X obj 22 541 project/preset-manager-unit \$0 28;
#X obj 22 558 project/preset-manager-unit \$0 29;
#X obj 22 575 project/preset-manager-unit \$0 30;
#X obj 22 592 project/preset-manager-unit \$0 31;
#X msg 289 499 32;
#X msg 318 499 31;
#X obj 524 136 r \$0-write-file-o;
#X obj 451 155 r \$0-read-file-o;
#X connect 2 0 25 0;
#X connect 2 1 56 0;
#X connect 3 0 50 0;
#X connect 3 1 56 0;
#X connect 4 0 49 0;
#X connect 4 1 56 0;
#X connect 6 0 7 0;
#X connect 7 0 5 0;
#X connect 7 1 68 0;
#X connect 9 0 8 0;
#X connect 9 1 69 0;
#X connect 10 0 11 0;
#X connect 11 0 14 0;
#X connect 11 0 9 0;
#X connect 12 0 111 0;
#X connect 12 1 112 0;
#X connect 13 0 12 0;
#X connect 14 0 11 1;
#X connect 15 0 50 0;
#X connect 16 0 52 0;
#X connect 19 0 18 0;
#X connect 20 0 6 0;
#X connect 23 0 24 1;
#X connect 24 0 27 0;
#X connect 25 0 38 0;
#X connect 26 0 35 0;
#X connect 26 1 23 0;
#X connect 27 0 34 0;
#X connect 28 0 37 0;
#X connect 29 0 27 1;
#X connect 29 1 30 0;
#X connect 30 0 28 1;
#X connect 31 0 32 1;
#X connect 32 0 28 0;
#X connect 33 0 36 0;
#X connect 33 1 31 0;
#X connect 34 0 47 0;
#X connect 35 0 29 0;
#X connect 36 0 29 0;
#X connect 37 0 46 0;
#X connect 38 0 24 0;
#X connect 38 1 32 0;
#X connect 40 0 43 0;
#X connect 41 0 42 0;
#X connect 42 0 53 0;
#X connect 43 0 44 0;
#X connect 44 0 51 0;
#X connect 45 0 22 0;
#X connect 45 1 21 0;
#X connect 46 0 45 0;
#X connect 47 0 45 0;
#X connect 48 0 45 0;
#X connect 49 0 47 0;
#X connect 49 1 26 0;
#X connect 50 0 46 0;
#X connect 50 1 33 0;
#X connect 51 0 52 0;
#X connect 51 1 0 0;
#X connect 52 0 19 0;
#X connect 52 1 17 0;
#X connect 53 0 44 0;
#X connect 53 1 54 0;
#X connect 54 0 48 0;
#X connect 55 0 54 0;
#X connect 56 0 57 0;
#X connect 56 1 58 1;
#X connect 57 0 58 0;
#X connect 58 0 59 0;
#X connect 59 0 39 0;
#X connect 60 0 65 0;
#X connect 61 0 63 0;
#X connect 62 0 64 0;
#X connect 63 0 44 0;
#X connect 64 0 44 0;
#X connect 65 0 41 0;
#X connect 65 1 40 0;
#X connect 68 0 5 1;
#X connect 69 0 8 1;
#X connect 70 0 52 0;
#X connect 111 0 10 0;
#X connect 112 0 11 1;
#X connect 113 0 62 0;
#X connect 114 0 61 0;
#X coords 0 -1 1 1 201 589 2 20 20;
