#N canvas 122 85 874 702 10;
#N canvas 304 23 973 748 wiring 0;
#X obj 356 318 text define \$1-soundbank;
#X obj 115 329 text delete \$1-soundbank;
#X obj 46 251 loadbang;
#X obj 74 329 until;
#X obj 74 349 text insert \$1-soundbank 0;
#X msg 115 309 -1;
#X obj 182 691 s \$0-abspath-i;
#X obj 243 555 * 0.001;
#X obj 314 607 s \$0-channels-i;
#X obj 243 535 t f f;
#X obj 225 574 /;
#X obj 116 483 route bang;
#X obj 225 647 s \$0-duration-i;
#X obj 270 627 s \$0-samplerate-i;
#X obj 741 555 r \$0-volume-o;
#X obj 741 595 line~;
#X msg 741 575 \$1 5;
#N canvas 0 23 410 559 split-last-slash 0;
#X obj 98 103 list fromsymbol;
#X obj 195 282 list;
#X obj 117 146 list length;
#X obj 117 215 until;
#X obj 144 186 - 1;
#X obj 117 166 t f f;
#X obj 152 356 list split;
#X obj 180 375 list split 1;
#X obj 117 236 f;
#X obj 141 236 - 1;
#X obj 180 395 sel 47;
#X obj 117 256 t b f f;
#X obj 261 375 f;
#X obj 291 288 t b b;
#X obj 98 441 list split;
#X obj 98 123 t l l l;
#X obj 98 80 inlet;
#X obj 98 478 list tosymbol;
#X obj 98 503 outlet;
#X obj 261 394 + 1;
#X connect 0 0 15 0;
#X connect 1 0 6 0;
#X connect 2 0 5 0;
#X connect 3 0 8 0;
#X connect 4 0 8 1;
#X connect 5 0 3 0;
#X connect 5 1 4 0;
#X connect 6 1 7 0;
#X connect 7 0 10 0;
#X connect 8 0 9 0;
#X connect 8 0 11 0;
#X connect 9 0 8 1;
#X connect 10 0 13 0;
#X connect 11 0 1 0;
#X connect 11 1 6 1;
#X connect 11 2 12 1;
#X connect 12 0 19 0;
#X connect 13 0 3 1;
#X connect 13 1 12 0;
#X connect 14 0 17 0;
#X connect 15 0 14 0;
#X connect 15 1 2 0;
#X connect 15 2 1 1;
#X connect 16 0 0 0;
#X connect 17 0 18 0;
#X connect 19 0 14 1;
#X restore 89 153 pd split-last-slash;
#X obj 139 221 list prepend read;
#X obj 205 256 list trim;
#N canvas 0 23 410 559 split-last-slash 0;
#X obj 98 103 list fromsymbol;
#X obj 195 282 list;
#X obj 117 146 list length;
#X obj 117 215 until;
#X obj 144 186 - 1;
#X obj 117 166 t f f;
#X obj 152 356 list split;
#X obj 180 375 list split 1;
#X obj 117 236 f;
#X obj 141 236 - 1;
#X obj 180 395 sel 47;
#X obj 117 256 t b f f;
#X obj 261 375 f;
#X obj 291 288 t b b;
#X obj 98 441 list split;
#X obj 98 123 t l l l;
#X obj 98 80 inlet;
#X obj 98 478 list tosymbol;
#X obj 98 503 outlet;
#X obj 261 394 + 1;
#X connect 0 0 15 0;
#X connect 1 0 6 0;
#X connect 2 0 5 0;
#X connect 3 0 8 0;
#X connect 4 0 8 1;
#X connect 5 0 3 0;
#X connect 5 1 4 0;
#X connect 6 1 7 0;
#X connect 7 0 10 0;
#X connect 8 0 9 0;
#X connect 8 0 11 0;
#X connect 9 0 8 1;
#X connect 10 0 13 0;
#X connect 11 0 1 0;
#X connect 11 1 6 1;
#X connect 11 2 12 1;
#X connect 12 0 19 0;
#X connect 13 0 3 1;
#X connect 13 1 12 0;
#X connect 14 0 17 0;
#X connect 15 0 14 0;
#X connect 15 1 2 0;
#X connect 15 2 1 1;
#X connect 16 0 0 0;
#X connect 17 0 18 0;
#X connect 19 0 14 1;
#X restore 202 120 pd split-last-slash;
#X obj 249 221 list prepend write;
#X obj 211 65 route open save read write;
#X obj 461 47 openpanel;
#X obj 534 47 savepanel;
#X obj 61 577 loadbang;
#X msg 116 609 symbol;
#X obj 534 28 r \$0-write-o;
#X obj 461 28 r \$0-read-o;
#X obj 338 136 s \$0-read-i;
#X obj 364 114 s \$0-write-i;
#X obj 461 86 list prepend read;
#X obj 534 66 list prepend write;
#X obj 534 120 list trim;
#X obj 534 141 s \$0-to-text;
#X obj 329 277 r \$0-to-text;
#X obj 205 276 s \$0-to-text;
#X obj 211 30 inlet;
#X obj 249 170 makefilename %s/\$1-soundbank.txt;
#X obj 139 201 makefilename %s/\$1-soundbank.txt;
#X obj 329 298 t a a;
#X obj 329 338 route read;
#X msg 329 377 update;
#X obj 329 397 s \$0-soundbank-cmd;
#X obj 329 358 bng 15 250 50 0 empty empty empty 17 7 0 10 -262144
-1 -1;
#N canvas 0 23 483 697 decode-spaces 0;
#X obj 171 68 list fromsymbol;
#X obj 217 332 list;
#X obj 117 146 list length;
#X obj 117 215 until;
#X obj 144 186 - 1;
#X obj 117 166 t f f;
#X obj 180 384 list split;
#X obj 208 403 list split 1;
#X obj 117 236 f;
#X obj 143 236 - 1;
#X obj 117 256 t b f f;
#X obj 120 354 f;
#X obj 120 375 sel 0;
#X obj 98 286 t b b;
#X obj 275 505 list append;
#X obj 349 505 list;
#X obj 347 447 t b b;
#X obj 183 590 list;
#X obj 171 88 t l l b;
#X obj 183 611 list tosymbol;
#X obj 171 41 inlet;
#X obj 183 634 outlet;
#X obj 214 460 == 0;
#X obj 189 460 f;
#X obj 214 480 sel 1;
#X msg 214 499 92;
#X obj 208 423 sel 59;
#X msg 286 475 32;
#X connect 0 0 18 0;
#X connect 1 0 6 0;
#X connect 2 0 5 0;
#X connect 3 0 8 0;
#X connect 4 0 8 1;
#X connect 5 0 3 0;
#X connect 5 1 4 0;
#X connect 6 1 7 0;
#X connect 7 0 26 0;
#X connect 8 0 9 0;
#X connect 8 0 10 0;
#X connect 9 0 8 1;
#X connect 10 0 13 0;
#X connect 10 1 6 1;
#X connect 10 2 11 1;
#X connect 11 0 12 0;
#X connect 12 0 17 0;
#X connect 13 0 11 0;
#X connect 13 1 1 0;
#X connect 14 0 15 0;
#X connect 14 0 17 1;
#X connect 15 0 14 1;
#X connect 16 0 14 1;
#X connect 16 1 15 1;
#X connect 17 0 19 0;
#X connect 18 0 2 0;
#X connect 18 1 1 1;
#X connect 18 2 16 0;
#X connect 19 0 21 0;
#X connect 20 0 0 0;
#X connect 22 0 23 1;
#X connect 22 0 24 0;
#X connect 23 0 22 0;
#X connect 24 0 25 0;
#X connect 25 0 14 0;
#X connect 26 0 27 0;
#X connect 26 1 14 0;
#X connect 27 0 14 0;
#X restore 190 669 pd decode-spaces;
#X obj 249 147 symbol;
#X obj 139 174 symbol;
#X obj 659 631 *~;
#X obj 116 463 text get \$1-soundbank;
#X obj 643 535 *~;
#X obj 550 300 text get \$1-soundbank;
#X obj 550 245 f;
#X obj 631 427 /;
#X obj 631 400 t f f;
#X obj 643 505 line~;
#X obj 671 400 * 0.001;
#X msg 643 479 0 \, 1 \$1;
#X obj 550 320 route bang;
#X obj 551 400 r \$0-stop-o;
#X obj 674 568 tabread4~;
#X msg 723 400 set \$1;
#X obj 659 677 outlet~;
#X obj 671 656 s~ \$1-soundbank-audio-out;
#X obj 550 182 r \$0-play-o;
#X obj 116 511 t b b;
#X msg 143 566 0;
#X obj 595 562 line~;
#X msg 595 542 \$1 10;
#X obj 728 507 del;
#X obj 728 527 s \$0-stop-i;
#X obj 728 487 t b f;
#X obj 659 606 *~;
#X obj 631 447 t b f f;
#X msg 612 479 1;
#X obj 551 427 t b b;
#X msg 551 479 0;
#X msg 581 479 0;
#X obj 581 447 del 10;
#X obj 565 203 r \$0-line;
#X obj 116 443 r \$0-line;
#X obj 565 224 t f f;
#X obj 592 245 change;
#X obj 592 266 s \$0-stop-i;
#X obj 550 362 s \$0-stop-i;
#X obj 225 627 i;
#X obj 250 30 r \$2-file-cmd;
#X obj 173 511 unpack s s s f f f f f s;
#X text 186 483 filename \, abspath \, arrayname \, samples \, samplerate
\, headersize \, channels \, bytespersample \, endianness (l / b);
#X obj 631 362 unpack f f s;
#X msg 631 342 \$4 \$5 \$3;
#X msg 74 309 100;
#X obj 46 409 array define \$1-soundbank-array-0;
#X obj 46 270 t b b b;
#X obj 46 389 text set \$1-soundbank 0;
#N canvas 0 23 450 300 set-line-zero 0;
#X obj 146 12 inlet;
#X obj 146 213 outlet;
#X text 54 241 filename \, abspath \, arrayname \, samples \, samplerate
\, headersize \, channels \, bytespersample \, endianness (l / b);
#X obj 146 66 makefilename \$1-soundbank-array-0;
#X obj 146 142 list;
#X obj 146 96 pack s f 44100 f f f;
#X msg 146 119 . . \$1 0 44100 0 1 2 l;
#X connect 0 0 3 0;
#X connect 3 0 5 0;
#X connect 4 0 1 0;
#X connect 5 0 6 0;
#X connect 6 0 4 0;
#X restore 46 369 pd set-line-zero;
#X connect 2 0 93 0;
#X connect 3 0 4 0;
#X connect 5 0 1 0;
#X connect 7 0 10 1;
#X connect 9 0 7 0;
#X connect 9 1 13 0;
#X connect 10 0 85 0;
#X connect 11 0 65 0;
#X connect 11 1 87 0;
#X connect 14 0 16 0;
#X connect 15 0 48 1;
#X connect 16 0 15 0;
#X connect 17 0 39 0;
#X connect 18 0 19 0;
#X connect 19 0 36 0;
#X connect 20 0 38 0;
#X connect 21 0 19 0;
#X connect 22 0 47 0;
#X connect 22 1 46 0;
#X connect 22 2 29 0;
#X connect 22 3 30 0;
#X connect 23 0 31 0;
#X connect 24 0 32 0;
#X connect 25 0 26 0;
#X connect 26 0 6 0;
#X connect 27 0 24 0;
#X connect 28 0 23 0;
#X connect 31 0 33 0;
#X connect 32 0 33 0;
#X connect 33 0 34 0;
#X connect 35 0 40 0;
#X connect 37 0 22 0;
#X connect 38 0 21 0;
#X connect 39 0 18 0;
#X connect 40 0 41 0;
#X connect 40 1 0 0;
#X connect 41 0 44 0;
#X connect 42 0 43 0;
#X connect 44 0 42 0;
#X connect 45 0 6 0;
#X connect 46 0 38 0;
#X connect 47 0 39 0;
#X connect 48 0 62 0;
#X connect 48 0 63 0;
#X connect 49 0 11 0;
#X connect 50 0 60 0;
#X connect 51 0 58 0;
#X connect 52 0 51 0;
#X connect 53 0 73 0;
#X connect 54 0 53 0;
#X connect 54 1 50 1;
#X connect 55 0 50 0;
#X connect 56 0 53 1;
#X connect 57 0 55 0;
#X connect 58 0 84 0;
#X connect 58 1 90 0;
#X connect 59 0 75 0;
#X connect 60 0 72 1;
#X connect 61 0 60 0;
#X connect 64 0 52 0;
#X connect 65 0 26 0;
#X connect 65 1 66 0;
#X connect 66 0 13 0;
#X connect 66 0 8 0;
#X connect 66 0 85 0;
#X connect 67 0 72 0;
#X connect 68 0 67 0;
#X connect 69 0 70 0;
#X connect 71 0 69 0;
#X connect 71 1 69 1;
#X connect 72 0 48 0;
#X connect 73 0 74 0;
#X connect 73 1 57 0;
#X connect 73 2 71 0;
#X connect 74 0 68 0;
#X connect 75 0 76 0;
#X connect 75 1 78 0;
#X connect 76 0 68 0;
#X connect 77 0 55 0;
#X connect 78 0 77 0;
#X connect 79 0 81 0;
#X connect 80 0 49 0;
#X connect 81 0 52 1;
#X connect 81 1 82 0;
#X connect 82 0 83 0;
#X connect 85 0 12 0;
#X connect 86 0 22 0;
#X connect 87 1 45 0;
#X connect 87 3 10 0;
#X connect 87 4 9 0;
#X connect 87 6 8 0;
#X connect 89 0 54 0;
#X connect 89 1 56 0;
#X connect 89 2 61 0;
#X connect 90 0 89 0;
#X connect 91 0 3 0;
#X connect 93 1 91 0;
#X connect 93 2 5 0;
#X connect 95 0 94 0;
#X restore 396 32 pd wiring;
#X obj 396 13 inlet file-msgs;
#X obj 396 51 outlet~ audio-out;
#X obj 21 92 cnv 12 831 12 empty empty empty 20 12 0 14 -1 -66577 0
;
#X obj 21 100 cnv 30 831 585 empty empty empty 4 18 0 11 -262144 -66577
0;
#X obj 21 81 cnv 12 831 17 empty empty \$1 38 9 0 11 -228856 -66577
0;
#X obj 37 82 bng 15 250 50 0 \$0-write-o \$0-write-i W 5 8 0 10 -262144
-1 -1;
#X obj 22 82 bng 15 250 50 0 \$0-read-o \$0-read-i R 5 8 0 10 -262144
-1 -1;
#X obj 654 82 hsl 195 15 0 1 0 0 \$0-volume-o \$0-volume-i volume 4
8 0 10 -262144 -1 -191407 0 0;
#X obj 636 82 bng 15 100 50 0 \$0-playstop-o \$0-playstop-i > 5 7 0
10 -262144 -262144 -1;
#N canvas 402 321 557 289 toggleize-playstop 0;
#X obj 128 87 tgl 15 0 empty empty empty 17 7 0 10 -262144 -1 -1 0
1;
#X obj 128 105 sel 0 1;
#X obj 201 35 r \$0-playstop-o;
#X obj 147 202 s \$0-playstop-i;
#X obj 172 134 s \$0-stop-o;
#X obj 245 134 s \$0-play-o;
#X obj 55 35 r \$0-stop-i;
#X obj 128 35 r \$0-play-i;
#X msg 55 55 0;
#X msg 128 55 1;
#X msg 147 157 label_font 0 6 \, label_pos 4 7 \, color 13 0 22 \,
label ||;
#X msg 128 177 label_font 0 10 \, label_pos 5 7 \, color 0 0 22 \,
label >;
#X connect 0 0 1 0;
#X connect 1 0 11 0;
#X connect 1 0 4 0;
#X connect 1 1 10 0;
#X connect 1 1 5 0;
#X connect 2 0 0 0;
#X connect 6 0 8 0;
#X connect 7 0 9 0;
#X connect 8 0 0 0;
#X connect 9 0 0 0;
#X connect 10 0 3 0;
#X connect 11 0 3 0;
#X restore 510 13 pd toggleize-playstop;
#X floatatom 193 101 7 0 0 0 rate #0-samplerate-i #0-samplerate-o,
f 7;
#X floatatom 97 101 7 0 0 0 duration #0-duration-i #0-duration-o,
f 7;
#X symbolatom 369 101 80 0 0 0 path #0-abspath-i #0-abspath-o, f 80
;
#X floatatom 315 101 2 0 0 0 channels #0-channels-i #0-channels-o,
f 2;
#X obj 21 118 cnv 5 831 5 empty empty empty 20 12 0 14 -1 -66577 0
;
#X obj 21 119 cnv 3 831 3 empty empty empty 4 9 0 11 -228856 -66577
0;
#X text 239 100 Hz;
#X text 143 100 ms;
#X text 23 17 arguments : <soundbank_name> <project_name>;
#X obj 22 142 project/soundbank-unit \$1 2 \$0;
#X obj 22 193 project/soundbank-unit \$1 5 \$0;
#X obj 22 669 project/soundbank-unit \$1 33 \$0;
#X obj 22 125 project/soundbank-unit \$1 1 \$0;
#X obj 22 159 project/soundbank-unit \$1 3 \$0;
#X obj 22 176 project/soundbank-unit \$1 4 \$0;
#X obj 22 210 project/soundbank-unit \$1 6 \$0;
#X obj 22 227 project/soundbank-unit \$1 7 \$0;
#X obj 22 244 project/soundbank-unit \$1 8 \$0;
#X obj 22 261 project/soundbank-unit \$1 9 \$0;
#X obj 22 278 project/soundbank-unit \$1 10 \$0;
#X obj 22 295 project/soundbank-unit \$1 11 \$0;
#X obj 22 312 project/soundbank-unit \$1 12 \$0;
#X obj 22 329 project/soundbank-unit \$1 13 \$0;
#X obj 22 346 project/soundbank-unit \$1 14 \$0;
#X obj 22 363 project/soundbank-unit \$1 15 \$0;
#X obj 22 380 project/soundbank-unit \$1 16 \$0;
#X obj 22 397 project/soundbank-unit \$1 17 \$0;
#X obj 22 414 project/soundbank-unit \$1 18 \$0;
#X obj 22 431 project/soundbank-unit \$1 19 \$0;
#X obj 22 448 project/soundbank-unit \$1 20 \$0;
#X obj 22 465 project/soundbank-unit \$1 21 \$0;
#X obj 22 482 project/soundbank-unit \$1 22 \$0;
#X obj 22 499 project/soundbank-unit \$1 23 \$0;
#X obj 22 516 project/soundbank-unit \$1 24 \$0;
#X obj 22 533 project/soundbank-unit \$1 25 \$0;
#X obj 22 550 project/soundbank-unit \$1 26 \$0;
#X obj 22 567 project/soundbank-unit \$1 27 \$0;
#X obj 22 584 project/soundbank-unit \$1 28 \$0;
#X obj 22 601 project/soundbank-unit \$1 29 \$0;
#X obj 22 618 project/soundbank-unit \$1 30 \$0;
#X obj 22 635 project/soundbank-unit \$1 31 \$0;
#X obj 22 652 project/soundbank-unit \$1 32 \$0;
#X obj 299 125 project/soundbank-unit \$1 34 \$0;
#X obj 299 142 project/soundbank-unit \$1 35 \$0;
#X obj 299 159 project/soundbank-unit \$1 36 \$0;
#X obj 299 176 project/soundbank-unit \$1 37 \$0;
#X obj 299 193 project/soundbank-unit \$1 38 \$0;
#X obj 299 210 project/soundbank-unit \$1 39 \$0;
#X obj 299 227 project/soundbank-unit \$1 40 \$0;
#X obj 299 244 project/soundbank-unit \$1 41 \$0;
#X obj 299 261 project/soundbank-unit \$1 42 \$0;
#X obj 299 278 project/soundbank-unit \$1 43 \$0;
#X obj 299 295 project/soundbank-unit \$1 44 \$0;
#X obj 299 312 project/soundbank-unit \$1 45 \$0;
#X obj 299 329 project/soundbank-unit \$1 46 \$0;
#X obj 299 346 project/soundbank-unit \$1 47 \$0;
#X obj 299 363 project/soundbank-unit \$1 48 \$0;
#X obj 299 380 project/soundbank-unit \$1 49 \$0;
#X obj 299 397 project/soundbank-unit \$1 50 \$0;
#X obj 299 414 project/soundbank-unit \$1 51 \$0;
#X obj 299 431 project/soundbank-unit \$1 52 \$0;
#X obj 299 448 project/soundbank-unit \$1 53 \$0;
#X obj 299 465 project/soundbank-unit \$1 54 \$0;
#X obj 299 482 project/soundbank-unit \$1 55 \$0;
#X obj 299 499 project/soundbank-unit \$1 56 \$0;
#X obj 299 516 project/soundbank-unit \$1 57 \$0;
#X obj 299 533 project/soundbank-unit \$1 58 \$0;
#X obj 299 550 project/soundbank-unit \$1 59 \$0;
#X obj 299 567 project/soundbank-unit \$1 60 \$0;
#X obj 299 584 project/soundbank-unit \$1 61 \$0;
#X obj 299 601 project/soundbank-unit \$1 62 \$0;
#X obj 299 618 project/soundbank-unit \$1 63 \$0;
#X obj 299 635 project/soundbank-unit \$1 64 \$0;
#X obj 299 652 project/soundbank-unit \$1 65 \$0;
#X obj 299 669 project/soundbank-unit \$1 66 \$0;
#X obj 576 125 project/soundbank-unit \$1 67 \$0;
#X obj 576 142 project/soundbank-unit \$1 68 \$0;
#X obj 576 159 project/soundbank-unit \$1 69 \$0;
#X obj 576 176 project/soundbank-unit \$1 70 \$0;
#X obj 576 193 project/soundbank-unit \$1 71 \$0;
#X obj 576 210 project/soundbank-unit \$1 72 \$0;
#X obj 576 227 project/soundbank-unit \$1 73 \$0;
#X obj 576 244 project/soundbank-unit \$1 74 \$0;
#X obj 576 261 project/soundbank-unit \$1 75 \$0;
#X obj 576 278 project/soundbank-unit \$1 76 \$0;
#X obj 576 295 project/soundbank-unit \$1 77 \$0;
#X obj 576 312 project/soundbank-unit \$1 78 \$0;
#X obj 576 329 project/soundbank-unit \$1 79 \$0;
#X obj 576 346 project/soundbank-unit \$1 80 \$0;
#X obj 576 363 project/soundbank-unit \$1 81 \$0;
#X obj 576 380 project/soundbank-unit \$1 82 \$0;
#X obj 576 397 project/soundbank-unit \$1 83 \$0;
#X obj 576 414 project/soundbank-unit \$1 84 \$0;
#X obj 576 431 project/soundbank-unit \$1 85 \$0;
#X obj 576 448 project/soundbank-unit \$1 86 \$0;
#X obj 576 465 project/soundbank-unit \$1 87 \$0;
#X obj 576 482 project/soundbank-unit \$1 88 \$0;
#X obj 576 499 project/soundbank-unit \$1 89 \$0;
#X obj 576 516 project/soundbank-unit \$1 90 \$0;
#X obj 576 533 project/soundbank-unit \$1 91 \$0;
#X obj 576 550 project/soundbank-unit \$1 92 \$0;
#X obj 576 567 project/soundbank-unit \$1 93 \$0;
#X obj 576 584 project/soundbank-unit \$1 94 \$0;
#X obj 576 601 project/soundbank-unit \$1 95 \$0;
#X obj 576 618 project/soundbank-unit \$1 96 \$0;
#X obj 576 635 project/soundbank-unit \$1 97 \$0;
#X obj 576 652 project/soundbank-unit \$1 98 \$0;
#X obj 576 669 project/soundbank-unit \$1 99 \$0;
#X connect 0 0 2 0;
#X connect 1 0 0 0;
#X coords 0 -1 1 1 833 606 2 20 80;
