#N canvas 92 34 956 777 10;
#X obj 51 51 cnv 13 28 13 empty empty \$2 2 7 0 14 -228856 -66577 0
;
#X obj 80 50 bng 15 250 50 0 \$0-loadfile-o \$0-loadfile-i + 5 7 0
10 -262144 -1 -1;
#X obj 284 177 openpanel;
#X symbolatom 125 50 33 0 0 0 - #0-filename-i #0-filename-o, f 33
;
#X msg 188 464 symbol;
#X obj 274 566 s \$0-filename-i;
#X obj 284 157 r \$0-loadfile-o;
#X obj 396 69 route update;
#N canvas 0 23 410 559 split-last-slash 0;
#X obj 98 103 list fromsymbol;
#X obj 195 282 list;
#X obj 117 146 list length;
#X obj 117 215 until;
#X obj 144 186 - 1;
#X obj 117 166 t f f;
#X obj 152 356 list split;
#X obj 180 375 list split 1;
#X obj 117 236 f;
#X obj 141 236 - 1;
#X obj 180 395 sel 47;
#X obj 117 256 t b f f;
#X obj 261 375 f;
#X obj 291 288 t b b;
#X obj 98 441 list split;
#X obj 98 123 t l l l;
#X obj 98 80 inlet;
#X obj 126 466 list tosymbol;
#X obj 126 491 outlet;
#X obj 261 394 + 1;
#X connect 0 0 15 0;
#X connect 1 0 6 0;
#X connect 2 0 5 0;
#X connect 3 0 8 0;
#X connect 4 0 8 1;
#X connect 5 0 3 0;
#X connect 5 1 4 0;
#X connect 6 1 7 0;
#X connect 7 0 10 0;
#X connect 8 0 9 0;
#X connect 8 0 11 0;
#X connect 9 0 8 1;
#X connect 10 0 13 0;
#X connect 11 0 1 0;
#X connect 11 1 6 1;
#X connect 11 2 12 1;
#X connect 12 0 19 0;
#X connect 13 0 3 1;
#X connect 13 1 12 0;
#X connect 14 1 17 0;
#X connect 15 0 14 0;
#X connect 15 1 2 0;
#X connect 15 2 1 1;
#X connect 16 0 0 0;
#X connect 17 0 18 0;
#X connect 19 0 14 1;
#X restore 328 523 pd split-last-slash;
#X obj 382 331 soundfiler;
#X msg 382 311 read -resize \$1 \$2;
#X obj 382 247 t s b;
#X obj 382 291 pack s s;
#X obj 334 224 t s s;
#X obj 328 483 symbol;
#X obj 382 428 sel 1;
#X obj 382 409 > 0;
#X obj 382 371 t a a;
#X obj 420 483 list;
#X obj 396 89 bng 15 250 50 0 empty empty empty 17 7 0 10 -262144 -1
-1;
#X obj 328 503 t s s;
#X obj 328 620 list append;
#X obj 355 664 text set \$1-soundbank;
#X obj 594 193 f \$2;
#X obj 396 129 text get \$1-soundbank;
#X obj 396 149 list split 1;
#X obj 396 109 f;
#X obj 110 50 bng 15 250 50 0 \$0-info-o \$0-info-i i 5 8 0 10 -262144
-262144 -1;
#X obj 594 213 s \$0-text-line-index;
#X obj 396 644 r \$0-text-line-index;
#X obj 382 351 list append;
#X msg 382 390 \$2;
#X obj 382 447 t b b b;
#X obj 396 171 list split 1;
#X obj 396 49 r \$3-soundbank-cmd;
#N canvas 0 23 483 697 decode-spaces 0;
#X obj 171 68 list fromsymbol;
#X obj 217 332 list;
#X obj 117 146 list length;
#X obj 117 215 until;
#X obj 144 186 - 1;
#X obj 117 166 t f f;
#X obj 180 384 list split;
#X obj 208 403 list split 1;
#X obj 117 236 f;
#X obj 143 236 - 1;
#X obj 117 256 t b f f;
#X obj 120 354 f;
#X obj 120 375 sel 0;
#X obj 98 286 t b b;
#X obj 275 505 list append;
#X obj 349 505 list;
#X obj 347 447 t b b;
#X obj 183 590 list;
#X obj 171 88 t l l b;
#X obj 183 611 list tosymbol;
#X obj 171 41 inlet;
#X obj 183 634 outlet;
#X obj 214 460 == 0;
#X obj 189 460 f;
#X obj 214 480 sel 1;
#X msg 214 499 92;
#X obj 208 423 sel 59;
#X msg 286 475 32;
#X connect 0 0 18 0;
#X connect 1 0 6 0;
#X connect 2 0 5 0;
#X connect 3 0 8 0;
#X connect 4 0 8 1;
#X connect 5 0 3 0;
#X connect 5 1 4 0;
#X connect 6 1 7 0;
#X connect 7 0 26 0;
#X connect 8 0 9 0;
#X connect 8 0 10 0;
#X connect 9 0 8 1;
#X connect 10 0 13 0;
#X connect 10 1 6 1;
#X connect 10 2 11 1;
#X connect 11 0 12 0;
#X connect 12 0 17 0;
#X connect 13 0 11 0;
#X connect 13 1 1 0;
#X connect 14 0 15 0;
#X connect 14 0 17 1;
#X connect 15 0 14 1;
#X connect 16 0 14 1;
#X connect 16 1 15 1;
#X connect 17 0 19 0;
#X connect 18 0 2 0;
#X connect 18 1 1 1;
#X connect 18 2 16 0;
#X connect 19 0 21 0;
#X connect 20 0 0 0;
#X connect 22 0 23 1;
#X connect 22 0 24 0;
#X connect 23 0 22 0;
#X connect 24 0 25 0;
#X connect 25 0 14 0;
#X connect 26 0 27 0;
#X connect 26 1 14 0;
#X connect 27 0 14 0;
#X restore 396 191 pd decode-spaces;
#X obj 415 89 r \$0-text-line-index;
#N canvas 0 23 479 692 encode-spaces 0;
#X obj 171 68 list fromsymbol;
#X obj 217 332 list;
#X obj 117 146 list length;
#X obj 117 215 until;
#X obj 144 186 - 1;
#X obj 117 166 t f f;
#X obj 180 384 list split;
#X obj 208 403 list split 1;
#X obj 117 236 f;
#X obj 143 236 - 1;
#X obj 117 256 t b f f;
#X obj 120 354 f;
#X obj 120 375 sel 0;
#X obj 98 286 t b b;
#X obj 208 423 sel 32;
#X obj 275 505 list append;
#X obj 349 505 list;
#X obj 347 447 t b b;
#X obj 183 590 list;
#X obj 171 88 t l l b;
#X obj 183 611 list tosymbol;
#X obj 171 41 inlet;
#X obj 183 634 outlet;
#X msg 194 448 59;
#X connect 0 0 19 0;
#X connect 1 0 6 0;
#X connect 2 0 5 0;
#X connect 3 0 8 0;
#X connect 4 0 8 1;
#X connect 5 0 3 0;
#X connect 5 1 4 0;
#X connect 6 1 7 0;
#X connect 7 0 14 0;
#X connect 8 0 9 0;
#X connect 8 0 10 0;
#X connect 9 0 8 1;
#X connect 10 0 13 0;
#X connect 10 1 6 1;
#X connect 10 2 11 1;
#X connect 11 0 12 0;
#X connect 12 0 18 0;
#X connect 13 0 11 0;
#X connect 13 1 1 0;
#X connect 14 0 23 0;
#X connect 14 1 15 0;
#X connect 15 0 16 0;
#X connect 15 0 18 1;
#X connect 16 0 15 1;
#X connect 17 0 15 1;
#X connect 17 1 16 1;
#X connect 18 0 20 0;
#X connect 19 0 2 0;
#X connect 19 1 1 1;
#X connect 19 2 17 0;
#X connect 20 0 22 0;
#X connect 21 0 0 0;
#X connect 23 0 15 0;
#X restore 373 565 pd encode-spaces;
#N canvas 0 23 479 692 encode-spaces 0;
#X obj 171 68 list fromsymbol;
#X obj 217 332 list;
#X obj 117 146 list length;
#X obj 117 215 until;
#X obj 144 186 - 1;
#X obj 117 166 t f f;
#X obj 180 384 list split;
#X obj 208 403 list split 1;
#X obj 117 236 f;
#X obj 143 236 - 1;
#X obj 117 256 t b f f;
#X obj 120 354 f;
#X obj 120 375 sel 0;
#X obj 98 286 t b b;
#X obj 208 423 sel 32;
#X obj 275 505 list append;
#X obj 349 505 list;
#X obj 347 447 t b b;
#X obj 183 590 list;
#X obj 171 88 t l l b;
#X obj 183 611 list tosymbol;
#X obj 171 41 inlet;
#X obj 183 634 outlet;
#X msg 194 448 59;
#X connect 0 0 19 0;
#X connect 1 0 6 0;
#X connect 2 0 5 0;
#X connect 3 0 8 0;
#X connect 4 0 8 1;
#X connect 5 0 3 0;
#X connect 5 1 4 0;
#X connect 6 1 7 0;
#X connect 7 0 14 0;
#X connect 8 0 9 0;
#X connect 8 0 10 0;
#X connect 9 0 8 1;
#X connect 10 0 13 0;
#X connect 10 1 6 1;
#X connect 10 2 11 1;
#X connect 11 0 12 0;
#X connect 12 0 18 0;
#X connect 13 0 11 0;
#X connect 13 1 1 0;
#X connect 14 0 23 0;
#X connect 14 1 15 0;
#X connect 15 0 16 0;
#X connect 15 0 18 1;
#X connect 16 0 15 1;
#X connect 17 0 15 1;
#X connect 17 1 16 1;
#X connect 18 0 20 0;
#X connect 19 0 2 0;
#X connect 19 1 1 1;
#X connect 19 2 17 0;
#X connect 20 0 22 0;
#X connect 21 0 0 0;
#X connect 23 0 15 0;
#X restore 328 544 pd encode-spaces;
#X text 65 19 args : <soundbank_name> <unit_index> <soundbank_\$0>
;
#X obj 95 50 bng 15 250 50 0 \$0-unloadfile-o \$0-unloadfile-i - 4
7 0 14 -262144 -1 -1;
#X obj 594 69 array define \$1-soundbank-array-\$2;
#X obj 473 483 s \$0-stop-i;
#X obj 134 396 array size \$1-soundbank-array-\$2;
#X obj 187 376 text set \$1-soundbank;
#X obj 228 356 r \$0-text-line-index;
#X msg 134 376 0;
#X obj 107 296 r \$0-unloadfile-o;
#X obj 427 271 makefilename \$1-soundbank-array-\$2;
#X obj 134 339 t b b b;
#X obj 627 311 r \$0-info-o;
#X obj 627 494 sel 0 1;
#X msg 646 513 color 13 0 22;
#X msg 627 532 color 0 0 22;
#X obj 627 552 s \$0-info-i;
#X obj 642 330 r \$0-text-line-index;
#X obj 627 349 f;
#X obj 642 419 r \$0-text-line-index;
#X obj 627 438 ==;
#X obj 627 369 s \$3-line;
#X obj 627 399 r \$3-line;
#X obj 627 460 t f f;
#X obj 762 512 f;
#X obj 762 533 sel 1;
#X obj 762 554 s \$0-info-i;
#X obj 328 644 t b a;
#X obj 107 316 t b b;
#X obj 328 687 s \$0-updated;
#X obj 94 427 s \$0-updated;
#X obj 762 483 r \$0-updated;
#X text 557 44 TODO : use clone or something to allow loading multichannel
;
#X obj 328 600 pack s s s;
#X obj 415 619 makefilename \$1-soundbank-array-\$2;
#X obj 594 93 r \$1-sounbank-units-loadbang;
#X obj 594 135 s \$0-loadbang;
#X obj 601 114 loadbang;
#X obj 594 173 r \$0-loadbang;
#X obj 204 427 r \$0-loadbang;
#X obj 415 599 r \$0-loadbang;
#X connect 2 0 13 0;
#X connect 4 0 5 0;
#X connect 6 0 2 0;
#X connect 7 0 19 0;
#X connect 8 0 5 0;
#X connect 8 0 38 0;
#X connect 9 0 30 0;
#X connect 9 1 30 1;
#X connect 10 0 9 0;
#X connect 11 0 12 0;
#X connect 11 1 48 0;
#X connect 12 0 10 0;
#X connect 13 0 11 0;
#X connect 13 1 14 1;
#X connect 14 0 20 0;
#X connect 15 0 32 0;
#X connect 16 0 15 0;
#X connect 17 0 31 0;
#X connect 17 1 18 1;
#X connect 18 0 21 1;
#X connect 19 0 26 0;
#X connect 20 0 8 0;
#X connect 20 1 37 0;
#X connect 21 0 65 0;
#X connect 23 0 28 0;
#X connect 24 0 25 0;
#X connect 25 1 33 0;
#X connect 26 0 24 0;
#X connect 29 0 22 1;
#X connect 30 0 17 0;
#X connect 31 0 16 0;
#X connect 32 0 14 0;
#X connect 32 1 18 0;
#X connect 32 2 42 0;
#X connect 33 0 35 0;
#X connect 34 0 7 0;
#X connect 35 0 13 0;
#X connect 36 0 26 1;
#X connect 37 0 71 1;
#X connect 38 0 71 0;
#X connect 45 0 44 1;
#X connect 46 0 43 0;
#X connect 47 0 66 0;
#X connect 48 0 12 1;
#X connect 49 0 46 0;
#X connect 49 1 4 0;
#X connect 49 2 44 0;
#X connect 50 0 56 0;
#X connect 51 0 53 0;
#X connect 51 1 52 0;
#X connect 52 0 54 0;
#X connect 53 0 54 0;
#X connect 55 0 56 1;
#X connect 56 0 59 0;
#X connect 57 0 58 1;
#X connect 58 0 61 0;
#X connect 60 0 58 0;
#X connect 61 0 51 0;
#X connect 61 1 62 1;
#X connect 62 0 63 0;
#X connect 63 0 64 0;
#X connect 65 0 67 0;
#X connect 65 1 22 0;
#X connect 66 0 68 0;
#X connect 66 1 49 0;
#X connect 69 0 62 0;
#X connect 71 0 21 0;
#X connect 72 0 71 2;
#X connect 73 0 74 0;
#X connect 75 0 74 0;
#X connect 76 0 23 0;
#X connect 77 0 4 0;
#X connect 78 0 72 0;
#X coords 0 -1 1 1 275 15 2 50 50;
