#N canvas 409 216 740 377 10;
#X obj 81 119 cnv 15 542 15 empty empty empty 20 12 0 14 -162280 -66577
0;
#X obj 81 17 r \$1-\$2-seq-i;
#X obj 81 119 bng 15 50 10 0 empty empty empty 17 7 0 10 -262144 -1
-1;
#X obj 98 119 bng 15 50 10 0 empty empty empty 17 7 0 10 -262144 -1
-1;
#X obj 115 119 bng 15 50 10 0 empty empty empty 17 7 0 10 -262144 -1
-1;
#X obj 132 119 bng 15 50 10 0 empty empty empty 17 7 0 10 -262144 -1
-1;
#X obj 149 119 bng 15 50 10 0 empty empty empty 17 7 0 10 -262144 -1
-1;
#X obj 166 119 bng 15 50 10 0 empty empty empty 17 7 0 10 -262144 -1
-1;
#X obj 183 119 bng 15 50 10 0 empty empty empty 17 7 0 10 -262144 -1
-1;
#X obj 200 119 bng 15 50 10 0 empty empty empty 17 7 0 10 -262144 -1
-1;
#X obj 217 119 bng 15 50 10 0 empty empty empty 17 7 0 10 -262144 -1
-1;
#X obj 234 119 bng 15 50 10 0 empty empty empty 17 7 0 10 -262144 -1
-1;
#X obj 251 119 bng 15 50 10 0 empty empty empty 17 7 0 10 -262144 -1
-1;
#X obj 268 119 bng 15 50 10 0 empty empty empty 17 7 0 10 -262144 -1
-1;
#X obj 285 119 bng 15 50 10 0 empty empty empty 17 7 0 10 -262144 -1
-1;
#X obj 302 119 bng 15 50 10 0 empty empty empty 17 7 0 10 -262144 -1
-1;
#X obj 319 119 bng 15 50 10 0 empty empty empty 17 7 0 10 -262144 -1
-1;
#X obj 336 119 bng 15 50 10 0 empty empty empty 17 7 0 10 -262144 -1
-1;
#X obj 353 119 bng 15 50 10 0 empty empty empty 17 7 0 10 -262144 -1
-1;
#X obj 370 119 bng 15 50 10 0 empty empty empty 17 7 0 10 -262144 -1
-1;
#X obj 387 119 bng 15 50 10 0 empty empty empty 17 7 0 10 -262144 -1
-1;
#X obj 404 119 bng 15 50 10 0 empty empty empty 17 7 0 10 -262144 -1
-1;
#X obj 421 119 bng 15 50 10 0 empty empty empty 17 7 0 10 -262144 -1
-1;
#X obj 438 119 bng 15 50 10 0 empty empty empty 17 7 0 10 -262144 -1
-1;
#X obj 455 119 bng 15 50 10 0 empty empty empty 17 7 0 10 -262144 -1
-1;
#X obj 472 119 bng 15 50 10 0 empty empty empty 17 7 0 10 -262144 -1
-1;
#X obj 489 119 bng 15 50 10 0 empty empty empty 17 7 0 10 -262144 -1
-1;
#X obj 506 119 bng 15 50 10 0 empty empty empty 17 7 0 10 -262144 -1
-1;
#X obj 523 119 bng 15 50 10 0 empty empty empty 17 7 0 10 -262144 -1
-1;
#X obj 540 119 bng 15 50 10 0 empty empty empty 17 7 0 10 -262144 -1
-1;
#X obj 557 119 bng 15 50 10 0 empty empty empty 17 7 0 10 -262144 -1
-1;
#X obj 574 119 bng 15 50 10 0 empty empty empty 17 7 0 10 -262144 -1
-1;
#X obj 591 119 bng 15 50 10 0 empty empty empty 17 7 0 10 -262144 -1
-1;
#X obj 608 119 bng 15 50 10 0 empty empty empty 17 7 0 10 -262144 -1
-1;
#X obj 81 46 sel 0 1 2 3 4 5 6 7 8 9 10 11 12 13 14 15 16 17 18 19
20 21 22 23 24 25 26 27 28 29 30 31;
#X connect 1 0 34 0;
#X connect 34 0 2 0;
#X connect 34 1 3 0;
#X connect 34 2 4 0;
#X connect 34 3 5 0;
#X connect 34 4 6 0;
#X connect 34 5 7 0;
#X connect 34 6 8 0;
#X connect 34 7 9 0;
#X connect 34 8 10 0;
#X connect 34 9 11 0;
#X connect 34 10 12 0;
#X connect 34 11 13 0;
#X connect 34 12 14 0;
#X connect 34 13 15 0;
#X connect 34 14 16 0;
#X connect 34 15 17 0;
#X connect 34 16 18 0;
#X connect 34 17 19 0;
#X connect 34 18 20 0;
#X connect 34 19 21 0;
#X connect 34 20 22 0;
#X connect 34 21 23 0;
#X connect 34 22 24 0;
#X connect 34 23 25 0;
#X connect 34 24 26 0;
#X connect 34 25 27 0;
#X connect 34 26 28 0;
#X connect 34 27 29 0;
#X connect 34 28 30 0;
#X connect 34 29 31 0;
#X connect 34 30 32 0;
#X connect 34 31 33 0;
#X coords 0 -1 1 1 544 17 1 80 118;
