#N canvas 141 81 616 659 10;
#X floatatom 458 190 5 0 0 1 detune #0-detune-i #0-detune-o, f 5;
#X floatatom 458 208 5 0 0 1 pitch #0-pitch-i #0-pitch-o, f 5;
#X text 79 40 arguments :;
#X text 79 56 <module_name> <project_name>;
#X text 76 453 [parameter pitch \$1 \$2 \$0] :;
#X obj 360 377 module-preset \$1 \$2 \$0;
#X obj 80 111 parameter-simple detune \$1 \$2 \$0;
#X text 76 140 [parameter-trig play \$1 \$2 \$0] :;
#X obj 458 226 bng 15 250 50 0 \$0-play-o \$0-play-i play 17 7 0 10
-262144 -1 -1;
#X text 76 296 [parameter-toggle loop \$1 \$2 \$0] :;
#X obj 458 244 tgl 15 0 \$0-loop-o \$0-loop-i loop 17 7 0 10 -262144
-1 -1 0 1;
#X text 302 215 corresponding ui >>>>>>>;
#X text 307 350 there must be one like this per module :;
#X text 281 111 < for non-mappable single value parameters;
#X obj 385 496 s~ \$1-audio-out-left;
#X obj 402 514 s~ \$1-audio-out-right;
#X obj 385 560 s sub-ctlbus-1;
#X obj 388 540 hsl 128 15 0 1 0 0 empty empty empty -2 -8 0 10 -262144
-1 -1 0 0;
#X obj 80 473 parameter pitch \$1 \$2 \$0;
#X obj 80 316 parameter-toggle loop \$1 \$2 \$0;
#X obj 80 160 parameter-trig play \$1 \$2 \$0;
#X connect 17 0 16 0;
