#N canvas 781 23 632 639 10;
#X floatatom 457 213 5 0 0 1 detune #0-detune-i #0-detune-o, f 5;
#X floatatom 457 231 5 0 0 1 pitch #0-pitch-i #0-pitch-o, f 5;
#X text 37 18 arguments :;
#X obj 474 249 bng 15 250 50 0 \$0-play-o \$0-play-i play 17 7 0 10
-262144 -1 -1;
#X obj 474 267 tgl 15 0 \$0-loop-o \$0-loop-i loop 17 7 0 10 -262144
-1 -1 0 1;
#X text 326 319 there must be one like this per module :;
#X text 286 89 < for non-mappable single value parameters;
#X obj 38 89 project/parameter-simple detune \$1 \$2 \$0;
#X obj 38 138 project/parameter-trig play \$1 \$2 \$0;
#X text 34 118 [project/parameter-trig play \$1 \$2 \$0] :;
#X text 34 274 [project/parameter-toggle loop \$1 \$2 \$0] :;
#X obj 38 294 project/parameter-toggle loop \$1 \$2 \$0;
#X obj 329 338 project/module-preset \$1 \$2 \$0;
#X text 34 431 [project/parameter pitch \$1 \$2 \$0] :;
#X obj 38 451 project/parameter pitch \$1 \$2 \$0;
#X text 37 34 <module_name> <project_name> <soundbank_name>;
#X obj 38 69 project/parameter-simple sound \$1 \$2 \$0;
#X text 325 176 [project/sound-selector sound \$3 \$0] :;
#X obj 330 587 s~ \$1-audio-out;
#X obj 329 195 project/sound-selector sound \$3 \$0;
#X obj 330 471 r \$0-play-o;
#X text 326 154 CORRESPONDING UI :;
#N canvas 640 23 752 728 engine 0;
#X obj 250 459 phasor~;
#X obj 250 532 *~;
#X floatatom 250 436 5 0 0 0 - - -, f 5;
#X obj 395 150 expr exp($f1*0.057762265);
#X obj 250 486 *~ 2;
#X obj 438 267 * 0.5;
#X obj 223 288 t f f;
#X obj 395 377 spigot;
#X obj 438 377 spigot;
#X obj 444 336 t f f;
#X obj 395 348 t f f;
#X obj 395 401 f;
#X obj 471 356 == 0;
#X obj 223 310 sel 1;
#X msg 289 435 0;
#X obj 355 547 threshold~ 1 0 1 0;
#X obj 173 175 delay;
#X obj 173 348 line~;
#X obj 108 216 pack f f;
#X msg 108 196 0;
#X obj 108 122 t b b;
#X msg 173 215 1;
#X obj 173 195 t b b;
#X obj 173 627 *~;
#X obj 355 569 s \$0-reached-end;
#X obj 223 122 r \$0-reached-end;
#X obj 395 296 *;
#X obj 262 336 t b b;
#X obj 223 170 f;
#X obj 250 570 tabread4~;
#X obj 173 649 outlet~;
#X obj 108 34 inlet start;
#X obj 238 34 inlet loop;
#X obj 395 35 inlet pitch;
#X obj 472 35 inlet detune;
#X obj 395 125 +;
#X obj 410 105 f;
#X obj 524 400 t a a;
#X msg 558 434 set \$1;
#X msg 524 434 \$2;
#X msg 438 202 \$3 \$2;
#X obj 438 222 unpack f f;
#X obj 438 245 /;
#X obj 47 100 r \$0-stop;
#X obj 559 35 inlet sound-info;
#X obj 578 149 t a a;
#X obj 516 105 s \$0-stop;
#X obj 47 196 delay;
#X obj 153 122 t f f f;
#X msg 47 216 0;
#X obj 47 122 t b b;
#X obj 578 127 list;
#X obj 42 353 loadbang;
#X obj 42 393 s \$0-interrup-ramp;
#X obj 153 93 r \$0-interrup-ramp;
#X obj 618 74 r \$0-interrup-ramp;
#X obj 559 59 t b b a;
#X obj 578 105 delay;
#X msg 42 373 10;
#X connect 0 0 4 0;
#X connect 1 0 29 0;
#X connect 2 0 0 0;
#X connect 3 0 26 0;
#X connect 4 0 1 0;
#X connect 4 0 15 0;
#X connect 5 0 26 1;
#X connect 6 0 13 0;
#X connect 6 1 9 0;
#X connect 7 0 11 0;
#X connect 8 0 11 1;
#X connect 9 0 7 1;
#X connect 9 1 12 0;
#X connect 10 0 7 0;
#X connect 10 1 8 0;
#X connect 11 0 2 0;
#X connect 12 0 8 1;
#X connect 13 0 27 0;
#X connect 13 1 2 0;
#X connect 14 0 0 1;
#X connect 15 0 24 0;
#X connect 16 0 22 0;
#X connect 17 0 23 0;
#X connect 18 0 17 0;
#X connect 19 0 18 0;
#X connect 20 0 19 0;
#X connect 20 1 16 0;
#X connect 21 0 17 0;
#X connect 21 0 6 0;
#X connect 22 0 21 0;
#X connect 22 1 36 0;
#X connect 23 0 30 0;
#X connect 25 0 28 0;
#X connect 26 0 10 0;
#X connect 27 0 11 0;
#X connect 27 1 14 0;
#X connect 28 0 6 0;
#X connect 29 0 23 1;
#X connect 31 0 20 0;
#X connect 32 0 28 1;
#X connect 33 0 35 0;
#X connect 34 0 36 1;
#X connect 35 0 3 0;
#X connect 36 0 35 1;
#X connect 37 0 39 0;
#X connect 37 1 38 0;
#X connect 38 0 29 0;
#X connect 39 0 1 1;
#X connect 40 0 41 0;
#X connect 41 0 42 0;
#X connect 41 1 42 1;
#X connect 42 0 5 0;
#X connect 43 0 50 0;
#X connect 44 0 56 0;
#X connect 45 0 40 0;
#X connect 45 1 37 0;
#X connect 47 0 49 0;
#X connect 48 0 47 1;
#X connect 48 1 18 1;
#X connect 48 2 16 1;
#X connect 49 0 6 0;
#X connect 50 0 47 0;
#X connect 50 1 19 0;
#X connect 51 0 45 0;
#X connect 52 0 58 0;
#X connect 54 0 48 0;
#X connect 55 0 57 1;
#X connect 56 0 46 0;
#X connect 56 1 57 0;
#X connect 56 2 51 1;
#X connect 57 0 51 0;
#X connect 58 0 53 0;
#X restore 330 566 pd engine;
#X obj 329 382 r \$0-sound-info;
#X obj 329 401 list prepend set;
#X msg 329 439 snds-soundbank-array-0 0 44100 0 2;
#X obj 329 420 list trim;
#X obj 342 490 r \$0-loop-o;
#X obj 355 509 r \$0-pitch-o;
#X obj 368 528 r \$0-detune-o;
#X text 182 566 the actual patch core >;
#X text 247 234 look at GUI objects properties >;
#X obj 381 547 r \$0-sound-info;
#X text 326 364 sent from [project/sound-selector] :;
#X connect 20 0 22 0;
#X connect 22 0 18 0;
#X connect 23 0 24 0;
#X connect 24 0 26 0;
#X connect 26 0 25 0;
#X connect 27 0 22 1;
#X connect 28 0 22 2;
#X connect 29 0 22 3;
#X connect 32 0 22 4;
