#N canvas 882 23 558 645 10;
#X obj 233 148 module-test gluck sub;
#X obj 233 167 text define -k sub-ctlbus;
#A set aaa \; bbb \; ccc \;;
#X obj 228 14 cnv 15 160 45 empty empty project 4 11 0 14 -233017 -66577
0;
#X obj 233 92 file-manager sub;
#X msg 233 37 open;
#X msg 267 37 save;
#X msg 301 37 saveas;
#X msg 336 92 /Users/larralde/Desktop/bloup;
#X obj 336 66 loadbang;
#N canvas 32 142 592 605 seq 0;
#X obj 360 378 makefilename \$0-%i-seq-i;
#X obj 333 320 until;
#X obj 72 265 pack f f f f f f;
#X msg 333 301 6;
#X obj 333 282 t b b;
#X obj 333 339 f;
#X obj 406 350 f;
#X obj 345 260 t b f;
#X obj 339 398 send;
#X obj 333 358 t b f;
#X obj 356 237 f;
#X obj 394 235 + 1;
#X obj 394 254 % 32;
#X obj 356 215 jl/pulse 200;
#X obj 351 195 tgl 15 0 empty empty empty 17 7 0 10 -262144 -1 -1 0
1;
#X obj 72 284 list prepend set;
#X obj 72 303 list trim;
#X msg 72 325 0 0 0 0 1 0;
#X obj 29 159 seq-32-toggles \$0 0;
#X obj 29 141 seq-32-toggles \$0 1;
#X obj 29 123 seq-32-toggles \$0 2;
#X obj 29 105 seq-32-toggles \$0 3;
#X obj 29 87 seq-32-toggles \$0 4;
#X floatatom 369 195 5 0 0 0 - - -, f 5;
#X obj 29 69 seq-32-toggles \$0 5;
#X obj 72 211 r \$0-0-seq-o;
#X obj 83 230 r \$0-1-seq-o;
#X obj 150 211 r \$0-2-seq-o;
#X obj 161 230 r \$0-3-seq-o;
#X obj 228 211 r \$0-4-seq-o;
#X obj 239 230 r \$0-5-seq-o;
#X obj 357 339 - 1;
#X msg 360 301 5;
#X obj 29 51 seq-32-bangs \$0 visu;
#X obj 435 304 send \$0-visu-seq-i;
#X floatatom 435 215 5 0 0 0 - - -, f 5;
#X connect 0 0 8 1;
#X connect 1 0 5 0;
#X connect 2 0 15 0;
#X connect 3 0 1 0;
#X connect 4 0 3 0;
#X connect 4 1 32 0;
#X connect 5 0 9 0;
#X connect 5 0 31 0;
#X connect 6 0 8 0;
#X connect 7 0 4 0;
#X connect 7 1 6 1;
#X connect 7 1 34 0;
#X connect 9 0 6 0;
#X connect 9 1 0 0;
#X connect 10 0 11 0;
#X connect 10 0 7 0;
#X connect 10 0 23 0;
#X connect 11 0 12 0;
#X connect 12 0 10 1;
#X connect 13 0 10 0;
#X connect 14 0 13 0;
#X connect 15 0 16 0;
#X connect 16 0 17 0;
#X connect 25 0 2 0;
#X connect 26 0 2 1;
#X connect 27 0 2 2;
#X connect 28 0 2 3;
#X connect 29 0 2 4;
#X connect 30 0 2 5;
#X connect 31 0 5 1;
#X connect 32 0 5 1;
#X connect 35 0 13 1;
#X restore 233 186 pd seq;
#X obj 19 14 preset-manager all sub;
#X obj 19 607 s gluck-preset-cmd;
#X connect 3 1 7 0;
#X connect 4 0 3 0;
#X connect 5 0 3 0;
#X connect 6 0 3 0;
#X connect 7 0 3 1;
#X connect 10 0 11 0;
