#N canvas 341 102 629 685 10;
#X obj 336 402 s pd-\$0-container;
#N canvas 0 23 473 366 \$0-container 0;
#X restore 63 87 pd \$0-container;
#X obj 163 206 until;
#X msg 219 186 clear;
#X obj 169 227 f;
#X obj 194 227 + 1;
#X obj 381 322 makefilename \$0-container-%d;
#X obj 336 362 pack f s;
#X obj 336 322 * 20;
#X obj 129 622 send;
#X obj 252 514 makefilename pd-\$0-container-%d;
#X obj 169 277 t f f;
#X obj 75 455 t f b;
#X obj 336 302 t f f;
#X obj 219 206 s pd-\$0-container;
#X obj 169 247 t f f;
#X obj 102 475 f 10;
#X obj 268 365 t f f;
#X obj 169 139 t b b b;
#X obj 188 15 loadbang;
#X obj 218 120 f \$2;
#X obj 267 120 f \$3;
#X msg 189 186 0;
#X obj 267 139 moses 1;
#X obj 75 475 + 1;
#X obj 316 139 moses 1;
#X obj 190 404 + 1;
#X text 367 77 <normbus_start_index (default 1)>;
#X text 367 52 <midi_start_index (default 1)>;
#X text 296 25 arguments : <project_name>;
#X text 367 39 <#inputs (default 28)>;
#X obj 218 139 moses 1;
#X obj 163 186 f 1;
#X obj 188 34 bng 15 250 50 0 empty empty empty 17 7 0 10 -262144 -1
-1;
#X obj 365 139 moses 1;
#X obj 188 52 t b b b b b;
#X obj 336 342 + 5;
#X msg 336 382 obj 5 \$1 pd \$2;
#X obj 316 120 f \$4;
#X obj 365 120 f \$5;
#X obj 190 424 t f f f;
#X obj 87 515 pack f f s s s;
#X text 367 65 <midi_channel (default 10)>;
#X msg 88 535 vis 0 \, obj 50 50 notein \$2 \, obj 50 70 sel \$1 \,
obj 50 90 f \, obj 50 110 / 127 \, obj 50 150 f \, obj 50 190 s \$3
\, obj 60 170 s \$4 \, obj 60 130 r \$5 \, connect 0 0 1 0 \, connect
1 0 2 0 \, connect 0 1 2 1 \, connect 2 0 3 0 \, connect 3 0 4 0 \,
connect 4 0 5 0 \, connect 4 0 6 0 \, connect 7 0 4 0;
#X obj 190 444 makefilename \$1-ctlbus-%d;
#X obj 201 463 makefilename \$1-ctlbus-%d-source;
#X obj 213 482 makefilename \$1-ctlbus-%d-get;
#X connect 2 0 4 0;
#X connect 3 0 14 0;
#X connect 4 0 5 0;
#X connect 4 0 15 0;
#X connect 5 0 4 1;
#X connect 6 0 7 1;
#X connect 7 0 37 0;
#X connect 8 0 36 0;
#X connect 10 0 9 1;
#X connect 11 0 12 0;
#X connect 11 1 17 0;
#X connect 12 0 24 0;
#X connect 12 1 16 0;
#X connect 13 0 8 0;
#X connect 13 1 6 0;
#X connect 15 0 11 0;
#X connect 15 1 13 0;
#X connect 16 0 41 1;
#X connect 17 0 26 0;
#X connect 17 1 10 0;
#X connect 18 0 32 0;
#X connect 18 1 22 0;
#X connect 18 2 3 0;
#X connect 19 0 33 0;
#X connect 20 0 31 0;
#X connect 21 0 23 0;
#X connect 22 0 4 1;
#X connect 23 1 24 1;
#X connect 24 0 41 0;
#X connect 25 1 16 1;
#X connect 26 0 40 0;
#X connect 31 1 32 1;
#X connect 32 0 2 0;
#X connect 33 0 35 0;
#X connect 34 1 26 1;
#X connect 35 0 18 0;
#X connect 35 1 20 0;
#X connect 35 2 21 0;
#X connect 35 3 38 0;
#X connect 35 4 39 0;
#X connect 36 0 7 0;
#X connect 37 0 0 0;
#X connect 38 0 25 0;
#X connect 39 0 34 0;
#X connect 40 0 44 0;
#X connect 40 1 45 0;
#X connect 40 2 46 0;
#X connect 41 0 43 0;
#X connect 43 0 9 0;
#X connect 44 0 41 2;
#X connect 45 0 41 3;
#X connect 46 0 41 4;
