#N canvas 0 23 795 542 10;
#X obj 116 29 inlet;
#X obj 300 111 savepanel;
#X obj 72 95 bng 15 250 50 0 empty empty empty 17 7 0 10 -262144 -1
-1;
#X obj 72 114 openpanel;
#X obj 116 53 route open save saveas;
#X obj 159 93 bng 15 250 50 0 empty empty empty 17 7 0 10 -262144 -1
-1;
#N canvas 0 23 410 542 trim-last-slash 0;
#X obj 98 103 list fromsymbol;
#X msg 125 75 symbol /;
#X obj 195 282 list;
#X obj 117 146 list length;
#X obj 117 215 until;
#X obj 144 186 - 1;
#X obj 117 166 t f f;
#X obj 152 356 list split;
#X obj 180 375 list split 1;
#X obj 117 236 f;
#X obj 141 236 - 1;
#X obj 180 395 sel 47;
#X obj 117 256 t b f f;
#X obj 261 375 f;
#X obj 291 288 t b b;
#X obj 98 441 list split;
#X obj 98 123 t l l l;
#X obj 98 462 list tosymbol;
#X msg 125 53 symbol /Users/larralde/aaax/bbbx;
#X obj 98 491 outlet;
#X obj 98 28 inlet;
#X connect 0 0 16 0;
#X connect 1 0 0 0;
#X connect 2 0 7 0;
#X connect 3 0 6 0;
#X connect 4 0 9 0;
#X connect 5 0 9 1;
#X connect 6 0 4 0;
#X connect 6 1 5 0;
#X connect 7 1 8 0;
#X connect 8 0 11 0;
#X connect 9 0 10 0;
#X connect 9 0 12 0;
#X connect 10 0 9 1;
#X connect 11 0 14 0;
#X connect 12 0 2 0;
#X connect 12 1 7 1;
#X connect 12 2 13 1;
#X connect 13 0 15 1;
#X connect 14 0 4 1;
#X connect 14 1 13 0;
#X connect 15 0 17 0;
#X connect 16 0 15 0;
#X connect 16 1 3 0;
#X connect 16 2 2 1;
#X connect 17 0 19 0;
#X connect 18 0 0 0;
#X connect 20 0 0 0;
#X restore 72 186 pd trim-last-slash;
#N canvas 0 23 410 542 trim-last-slash 0;
#X obj 98 103 list fromsymbol;
#X msg 125 75 symbol /;
#X obj 195 282 list;
#X obj 117 146 list length;
#X obj 117 215 until;
#X obj 144 186 - 1;
#X obj 117 166 t f f;
#X obj 152 356 list split;
#X obj 180 375 list split 1;
#X obj 117 236 f;
#X obj 141 236 - 1;
#X obj 180 395 sel 47;
#X obj 117 256 t b f f;
#X obj 261 375 f;
#X obj 291 288 t b b;
#X obj 98 441 list split;
#X obj 98 123 t l l l;
#X obj 98 462 list tosymbol;
#X msg 125 53 symbol /Users/larralde/aaax/bbbx;
#X obj 98 491 outlet;
#X obj 98 28 inlet;
#X connect 0 0 16 0;
#X connect 1 0 0 0;
#X connect 2 0 7 0;
#X connect 3 0 6 0;
#X connect 4 0 9 0;
#X connect 5 0 9 1;
#X connect 6 0 4 0;
#X connect 6 1 5 0;
#X connect 7 1 8 0;
#X connect 8 0 11 0;
#X connect 9 0 10 0;
#X connect 9 0 12 0;
#X connect 10 0 9 1;
#X connect 11 0 14 0;
#X connect 12 0 2 0;
#X connect 12 1 7 1;
#X connect 12 2 13 1;
#X connect 13 0 15 1;
#X connect 14 0 4 1;
#X connect 14 1 13 0;
#X connect 15 0 17 0;
#X connect 16 0 15 0;
#X connect 16 1 3 0;
#X connect 16 2 2 1;
#X connect 17 0 19 0;
#X connect 18 0 0 0;
#X connect 20 0 0 0;
#X restore 327 260 pd trim-last-slash;
#X obj 210 358 symbol;
#X msg 192 166 1;
#X obj 192 186 t f f;
#X obj 248 231 == 0;
#X obj 159 220 t b b;
#X obj 300 131 t b s;
#X obj 203 251 spigot 1;
#X obj 159 251 spigot;
#X obj 300 93 bng 15 250 50 0 empty empty empty 17 7 0 10 -262144 -1
-1;
#X obj 144 481 outlet;
#X obj 144 431 list trim;
#X obj 210 378 list prepend save;
#X obj 144 401 list prepend open;
#X obj 72 134 t s b;
#X obj 261 401 list prepend set;
#X obj 261 432 list trim;
#X obj 261 358 symbol;
#X obj 144 319 t a a a;
#X obj 371 183 symbol;
#X obj 371 202 t s b;
#X obj 261 451 outlet;
#X obj 371 28 inlet;
#X text 309 451 < this goes to a message you can loadbang from main
patch;
#X text 412 28 < this comes from the loadbang'ed message in main patch
;
#X obj 156 459 s \$1-file-cmd;
#X connect 0 0 4 0;
#X connect 1 0 13 0;
#X connect 2 0 3 0;
#X connect 3 0 21 0;
#X connect 4 0 2 0;
#X connect 4 1 5 0;
#X connect 4 2 16 0;
#X connect 5 0 12 0;
#X connect 6 0 25 0;
#X connect 7 0 8 0;
#X connect 7 0 24 0;
#X connect 8 0 19 0;
#X connect 9 0 10 0;
#X connect 10 0 15 1;
#X connect 10 1 11 0;
#X connect 11 0 14 1;
#X connect 12 0 15 0;
#X connect 12 1 14 0;
#X connect 13 0 9 0;
#X connect 13 1 7 0;
#X connect 14 0 1 0;
#X connect 15 0 8 0;
#X connect 16 0 1 0;
#X connect 18 0 17 0;
#X connect 18 0 32 0;
#X connect 19 0 18 0;
#X connect 20 0 18 0;
#X connect 21 0 6 0;
#X connect 21 1 9 0;
#X connect 22 0 23 0;
#X connect 23 0 28 0;
#X connect 24 0 22 0;
#X connect 25 0 20 0;
#X connect 25 1 8 1;
#X connect 25 2 24 0;
#X connect 26 0 27 0;
#X connect 27 0 25 0;
#X connect 27 1 9 0;
#X connect 29 0 26 0;
