#N canvas 544 174 976 685 10;
#X obj 508 248 r \$0-pitch-o;
#X msg 523 329 pitch \$1;
#X msg 657 447 pan \$1;
#X obj 523 480 *~;
#X obj 613 424 line~;
#X msg 613 405 \$1 10;
#N canvas 748 44 519 386 presets 0;
#X obj 100 31 inlet;
#X obj 100 157 project/preset-get-set-delete \$1;
#X obj 100 288 s \$0-sound-i;
#X obj 157 308 s \$0-detune-i;
#N canvas 0 23 502 526 receive-all-parameters 0;
#X obj 129 41 r \$0-begin-preset-o;
#X obj 150 60 r \$0-length-preset-o;
#X obj 171 79 r \$0-pitch-preset-o;
#X obj 192 98 r \$0-panning-preset-o;
#X obj 301 193 r \$0-volume-preset-o;
#X obj 255 282 list;
#X obj 213 322 list;
#X obj 150 382 list;
#X obj 129 402 list;
#X obj 129 423 outlet;
#X obj 171 362 list;
#X obj 192 342 list;
#X obj 234 302 list;
#X obj 213 117 r \$0-play-preset-o;
#X obj 234 136 r \$0-loop-preset-o;
#X obj 255 155 r \$0-rvs-preset-o;
#X connect 0 0 8 0;
#X connect 1 0 7 0;
#X connect 2 0 10 0;
#X connect 3 0 11 0;
#X connect 4 0 5 1;
#X connect 5 0 12 1;
#X connect 6 0 11 1;
#X connect 7 0 8 1;
#X connect 8 0 9 0;
#X connect 10 0 7 1;
#X connect 11 0 10 1;
#X connect 12 0 6 1;
#X connect 13 0 6 0;
#X connect 14 0 12 0;
#X connect 15 0 5 0;
#X restore 289 28 pd receive-all-parameters;
#N canvas 530 72 421 450 query-all-parameters 0;
#X obj 73 220 s \$0-begin-preset-i;
#X msg 106 89 get;
#X obj 86 239 s \$0-length-preset-i;
#X obj 101 258 s \$0-pitch-preset-i;
#X obj 116 277 s \$0-panning-preset-i;
#X obj 177 353 s \$0-volume-preset-i;
#X obj 98 44 inlet;
#X obj 106 109 t a a a a a a a a;
#X obj 132 296 s \$0-play-preset-i;
#X obj 147 315 s \$0-loop-preset-i;
#X obj 162 334 s \$0-rvs-preset-i;
#X connect 1 0 7 0;
#X connect 6 0 1 0;
#X connect 7 0 0 0;
#X connect 7 1 2 0;
#X connect 7 2 3 0;
#X connect 7 3 4 0;
#X connect 7 4 8 0;
#X connect 7 5 9 0;
#X connect 7 6 10 0;
#X connect 7 7 5 0;
#X restore 289 177 pd query-all-parameters;
#X obj 289 137 list prepend;
#X obj 358 113 pack f f;
#X obj 358 53 r \$0-sound-o;
#X obj 376 73 r \$0-detune-o;
#X obj 100 218 list split 2;
#X obj 100 268 unpack f f;
#N canvas 0 23 809 465 update-all-parameters 0;
#X obj 64 138 list prepend set;
#X obj 64 158 list trim;
#X obj 64 178 s \$0-begin-preset-i;
#X obj 64 44 inlet;
#X obj 199 138 list prepend set;
#X obj 199 158 list trim;
#X obj 199 178 s \$0-length-preset-i;
#X obj 330 138 list prepend set;
#X obj 330 158 list trim;
#X obj 330 178 s \$0-pitch-preset-i;
#X obj 458 138 list prepend set;
#X obj 458 158 list trim;
#X obj 459 273 list prepend set;
#X obj 459 293 list trim;
#X obj 458 178 s \$0-panning-preset-i;
#X obj 459 313 s \$0-volume-preset-i;
#X obj 64 118 list split 8;
#X obj 199 118 list split 8;
#X obj 330 118 list split 8;
#X obj 458 118 list split 8;
#X obj 459 253 list split 8;
#X obj 64 272 list prepend set;
#X obj 64 292 list trim;
#X obj 199 272 list prepend set;
#X obj 199 292 list trim;
#X obj 330 272 list prepend set;
#X obj 330 292 list trim;
#X obj 64 252 list split 8;
#X obj 199 252 list split 8;
#X obj 330 252 list split 8;
#X obj 64 312 s \$0-play-preset-i;
#X obj 199 312 s \$0-loop-preset-i;
#X obj 330 312 s \$0-rvs-preset-i;
#X connect 0 0 1 0;
#X connect 1 0 2 0;
#X connect 3 0 16 0;
#X connect 4 0 5 0;
#X connect 5 0 6 0;
#X connect 7 0 8 0;
#X connect 8 0 9 0;
#X connect 10 0 11 0;
#X connect 11 0 14 0;
#X connect 12 0 13 0;
#X connect 13 0 15 0;
#X connect 16 0 0 0;
#X connect 16 1 17 0;
#X connect 17 0 4 0;
#X connect 17 1 18 0;
#X connect 18 0 7 0;
#X connect 18 1 19 0;
#X connect 19 0 10 0;
#X connect 19 1 27 0;
#X connect 20 0 12 0;
#X connect 21 0 22 0;
#X connect 22 0 30 0;
#X connect 23 0 24 0;
#X connect 24 0 31 0;
#X connect 25 0 26 0;
#X connect 26 0 32 0;
#X connect 27 0 21 0;
#X connect 27 1 28 0;
#X connect 28 0 23 0;
#X connect 28 1 29 0;
#X connect 29 0 25 0;
#X connect 29 1 20 0;
#X restore 134 243 pd update-all-parameters;
#X obj 376 93 t b f;
#X connect 0 0 1 0;
#X connect 1 0 10 0;
#X connect 1 1 5 0;
#X connect 4 0 6 0;
#X connect 6 0 1 1;
#X connect 7 0 6 1;
#X connect 8 0 7 0;
#X connect 9 0 13 0;
#X connect 10 0 11 0;
#X connect 10 1 12 0;
#X connect 11 0 2 0;
#X connect 11 1 3 0;
#X connect 13 0 7 0;
#X connect 13 1 7 1;
#X restore 241 190 pd presets;
#X obj 241 141 r \$1-preset-cmd;
#X obj 528 267 r \$0-detune-o;
#X obj 528 286 t b f;
#X obj 523 310 +;
#X obj 613 385 r \$0-volume-o;
#X obj 51 51 cnv 15 164 194 empty empty \$1 4 10 0 12 -262144 -66577
0;
#X obj 55 135 hsl 155 12 0 1 0 0 \$0-length-o \$0-length-i length 2
6 0 10 -262144 -1 -191407 0 0;
#X obj 55 183 hsl 155 12 0 1 0 0 \$0-panning-o \$0-panning-i panning
2 6 0 10 -262144 -1 -191407 0 0;
#X floatatom 52 149 10 0 0 1 detune #0-detune-i #0-detune-o, f 10
;
#X floatatom 52 166 10 0 0 1 pitch #0-pitch-i #0-pitch-o, f 10;
#X obj 55 121 hsl 155 12 0 1 0 0 \$0-begin-o \$0-begin-i begin 2 6
0 10 -262144 -1 -191407 0 0;
#X obj 55 197 hsl 155 12 0 1 0 0 \$0-volume-o \$0-volume-i volume 2
6 0 10 -262144 -1 -191407 0 0;
#X obj 52 228 bng 15 250 50 0 \$0-reset-mapping-o \$0-reset-mapping-i
reset_mapping 17 7 0 10 -262144 -1 -1;
#X obj 52 211 bng 15 250 50 0 \$0-show-mapping-o \$0-show-mapping-i
show_mapping 17 7 0 10 -262144 -1 -1;
#X obj 50 571 s pd-\$1-parameters;
#N canvas 50 50 421 263 \$1-parameters 1;
#X obj 210 8 project/parameter pitch \$1 \$2 \$0;
#X obj 311 131 project/parameter volume \$1 \$2 \$0;
#X obj 311 8 project/parameter panning \$1 \$2 \$0;
#X obj 109 8 project/parameter length \$1 \$2 \$0;
#X obj 8 8 project/parameter begin \$1 \$2 \$0;
#X obj 8 131 project/parameter-trig play \$1 \$2 \$0;
#X obj 109 131 project/parameter-toggle loop \$1 \$2 \$0;
#X obj 210 131 project/parameter-toggle rvs \$1 \$2 \$0;
#X restore 50 591 pd \$1-parameters;
#X obj 50 321 r \$1-param;
#X obj 50 521 r \$0-show-mapping-o;
#N canvas 676 351 835 392 link-parameters-to-ui 0;
#X obj 356 48 r \$0-pitch-parameter-o;
#X obj 356 67 s \$0-pitch-i;
#X obj 356 86 r \$0-pitch-o;
#X obj 356 105 s \$0-pitch-parameter-i;
#X obj 59 48 r \$0-begin-parameter-o;
#X obj 59 67 s \$0-begin-i;
#X obj 59 86 r \$0-begin-o;
#X obj 59 105 s \$0-begin-parameter-i;
#X obj 210 48 r \$0-length-parameter-o;
#X obj 210 67 s \$0-length-i;
#X obj 210 86 r \$0-length-o;
#X obj 210 105 s \$0-length-parameter-i;
#X obj 497 48 r \$0-panning-parameter-o;
#X obj 497 67 s \$0-panning-i;
#X obj 497 86 r \$0-panning-o;
#X obj 497 105 s \$0-panning-parameter-i;
#X obj 497 133 r \$0-volume-parameter-o;
#X obj 497 152 s \$0-volume-i;
#X obj 497 171 r \$0-volume-o;
#X obj 497 190 s \$0-volume-parameter-i;
#X obj 210 133 r \$0-loop-parameter-o;
#X obj 210 152 s \$0-loop-i;
#X obj 210 171 r \$0-loop-o;
#X obj 210 190 s \$0-loop-parameter-i;
#X obj 356 133 r \$0-rvs-parameter-o;
#X obj 356 152 s \$0-rvs-i;
#X obj 356 171 r \$0-rvs-o;
#X obj 356 190 s \$0-rvs-parameter-i;
#X connect 0 0 1 0;
#X connect 2 0 3 0;
#X connect 4 0 5 0;
#X connect 6 0 7 0;
#X connect 8 0 9 0;
#X connect 10 0 11 0;
#X connect 12 0 13 0;
#X connect 14 0 15 0;
#X connect 16 0 17 0;
#X connect 18 0 19 0;
#X connect 20 0 21 0;
#X connect 22 0 23 0;
#X connect 24 0 25 0;
#X connect 26 0 27 0;
#X restore 50 611 pd link-parameters-to-ui;
#X text 317 524 WxHx0+0 0x0+X+Y;
#X msg 208 591 0;
#N canvas 0 23 450 300 set-all-input-modes 0;
#X obj 79 128 s \$0-begin-mode;
#X obj 90 147 s \$0-length-mode;
#X obj 108 166 s \$0-pitch-mode;
#X obj 126 185 s \$0-panning-mode;
#X obj 190 261 s \$0-volume-mode;
#X obj 124 61 inlet;
#X obj 141 204 s \$0-play-mode;
#X obj 159 223 s \$0-loop-mode;
#X obj 177 242 s \$0-rvs-mode;
#X obj 124 84 t f f f f f f f f;
#X connect 5 0 9 0;
#X connect 9 0 0 0;
#X connect 9 1 1 0;
#X connect 9 2 2 0;
#X connect 9 3 3 0;
#X connect 9 4 6 0;
#X connect 9 5 7 0;
#X connect 9 6 8 0;
#X connect 9 7 4 0;
#X restore 208 611 pd set-all-input-modes;
#X obj 208 571 r \$0-reset-mapping-o;
#X obj 50 402 s \$0-sound-i;
#X obj 93 382 s \$0-begin-i;
#X obj 137 362 s \$0-length-i;
#X obj 181 382 s \$0-detune-i;
#X obj 88 466 s \$0-volume-i;
#X obj 50 486 s \$0-panning-i;
#X obj 657 428 r \$0-panning-o;
#X text 367 70 arguments : <module_name> <project_name> <soundbank_name>
;
#X obj 523 585 s~ \$1-audio-out-left;
#X obj 574 566 s~ \$1-audio-out-right;
#X obj 172 521 loadbang;
#X msg 50 541 vis 1;
#X text 367 101 params to save in presets :;
#X text 367 119 sound \, detune \, and all the other (mappable) parameters
;
#X obj 253 160 r \$2-file-cmd;
#X obj 726 509 s \$0-sound-i;
#X obj 726 469 loadbang;
#X msg 726 489 1;
#X obj 50 342 route sound begin length detune pitch;
#X obj 225 362 s \$0-pitch-i;
#X obj 523 406 jl/gbend~;
#X obj 523 539 jl/split~;
#X obj 657 485 line~;
#X msg 657 466 \$1 10;
#X msg 417 406 stop;
#X obj 628 329 bng 15 250 50 0 empty empty empty 17 7 0 10 -262144
-1 -1;
#X msg 312 341 beg \$1;
#X obj 312 258 *;
#X obj 390 258 *;
#X msg 360 341 end \$1;
#X obj 353 229 t b f;
#X obj 312 190 r \$0-begin-o;
#X obj 390 229 r \$0-length-o;
#X obj 312 277 t f f;
#X obj 360 320 +;
#X obj 390 277 t b f;
#X msg 417 444 loop \$1;
#X obj 417 426 tgl 15 0 empty empty empty 17 7 0 10 -262144 -1 -1 0
1;
#X obj 417 464 tgl 15 0 empty empty empty 17 7 0 10 -262144 -1 -1 0
1;
#X msg 417 482 rvs \$1;
#X obj 708 566 s \$1-event-out;
#X obj 343 426 r \$0-loop-o;
#X obj 349 464 r \$0-rvs-o;
#X obj 52 87 bng 15 250 50 0 \$0-play-o \$0-play-i play 17 7 0 10 -262144
-1 -1;
#X obj 52 104 bng 15 250 50 0 \$0-stop-o \$0-stop-i stop 17 7 0 10
-262144 -1 -1;
#X obj 124 104 tgl 15 0 \$0-rvs-o \$0-rvs-i rvs -20 7 0 10 -262144
-1 -1 0 1;
#X obj 124 87 tgl 15 0 \$0-loop-o \$0-loop-i loop -26 7 0 10 -262144
-1 -1 0 1;
#X obj 343 405 r \$0-stop-o;
#X obj 50 425 route panning volume play stop loop rvs;
#X obj 127 446 s \$0-play-i;
#X obj 165 485 s \$0-stop-i;
#X obj 204 465 s \$0-loop-i;
#X obj 242 445 s \$0-rvs-i;
#X msg 726 198 1;
#X obj 726 252 spigot;
#X msg 764 217 0;
#X obj 745 127 t b b f;
#X obj 726 217 t f f;
#X obj 802 292 s \$0-trig;
#X obj 745 107 r \$0-to-trig-filter;
#X obj 835 188 loadbang;
#X msg 835 207 1;
#X obj 39 270 r \$0-play-parameter-o;
#X obj 726 157 s \$0-play-i;
#X obj 726 179 r \$0-play-o;
#X obj 39 289 s \$0-to-trig-filter;
#X obj 628 291 r \$0-trig;
#X obj 628 310 t b f;
#X obj 52 70 sound-selector \$3 \$0;
#X obj 547 358 r \$0-sound-msg;
#X obj 353 210 r \$0-sound-duration;
#X text 217 70 [sound-selector \$3 \$0];
#X text 474 211 < from sound-selector;
#X text 639 358 < from sound-selector (set <name> <sr>);
#X msg 172 541 menuclose \, relocate 421x263+0+0 0x0+50+50;
#X connect 0 0 10 0;
#X connect 1 0 50 0;
#X connect 2 0 53 0;
#X connect 3 0 51 0;
#X connect 4 0 3 1;
#X connect 5 0 4 0;
#X connect 7 0 6 0;
#X connect 8 0 9 0;
#X connect 9 0 10 0;
#X connect 9 1 10 1;
#X connect 10 0 1 0;
#X connect 11 0 5 0;
#X connect 23 0 48 0;
#X connect 24 0 41 0;
#X connect 27 0 28 0;
#X connect 29 0 27 0;
#X connect 36 0 2 0;
#X connect 40 0 104 0;
#X connect 41 0 21 0;
#X connect 44 0 6 0;
#X connect 46 0 47 0;
#X connect 47 0 45 0;
#X connect 48 0 30 0;
#X connect 48 1 31 0;
#X connect 48 2 32 0;
#X connect 48 3 33 0;
#X connect 48 4 49 0;
#X connect 48 5 78 0;
#X connect 50 0 3 0;
#X connect 50 1 70 0;
#X connect 51 0 38 0;
#X connect 51 1 39 0;
#X connect 52 0 51 1;
#X connect 53 0 52 0;
#X connect 54 0 50 0;
#X connect 55 0 50 0;
#X connect 56 0 50 0;
#X connect 57 0 63 0;
#X connect 58 0 65 0;
#X connect 59 0 50 0;
#X connect 60 0 57 0;
#X connect 60 0 58 0;
#X connect 60 1 57 1;
#X connect 60 1 58 1;
#X connect 61 0 57 0;
#X connect 62 0 58 0;
#X connect 63 0 56 0;
#X connect 63 1 64 0;
#X connect 64 0 59 0;
#X connect 65 0 64 0;
#X connect 65 1 64 1;
#X connect 66 0 50 0;
#X connect 67 0 66 0;
#X connect 68 0 69 0;
#X connect 69 0 50 0;
#X connect 71 0 67 0;
#X connect 72 0 68 0;
#X connect 77 0 54 0;
#X connect 78 0 35 0;
#X connect 78 1 34 0;
#X connect 78 2 79 0;
#X connect 78 3 80 0;
#X connect 78 4 81 0;
#X connect 78 5 82 0;
#X connect 83 0 87 0;
#X connect 84 0 88 0;
#X connect 85 0 84 1;
#X connect 86 0 93 0;
#X connect 86 1 85 0;
#X connect 86 2 88 0;
#X connect 87 0 84 1;
#X connect 87 1 84 0;
#X connect 89 0 86 0;
#X connect 90 0 91 0;
#X connect 91 0 84 1;
#X connect 92 0 95 0;
#X connect 94 0 83 0;
#X connect 96 0 97 0;
#X connect 97 0 55 0;
#X connect 97 1 5 0;
#X connect 99 0 50 0;
#X connect 100 0 60 0;
#X connect 104 0 21 0;
#X coords 0 -1 1 1 164 195 2 50 50;
