#N canvas 480 163 939 711 10;
#X obj 51 61 cnv 15 99 15 empty empty empty 20 9 0 12 -1 -66577 0;
#X obj 51 70 cnv 15 99 102 empty empty empty 20 12 0 14 -262144 -66577
0;
#X obj 50 69 vradio 17 1 0 2 \$0-mode-o \$0-mode-i empty 0 -8 0 10
-262144 -1 -1 0;
#X obj 51 51 cnv 15 99 17 empty empty \$1 4 9 0 11 -228856 -66577 0
;
#X obj 586 404 s \$0-raw-i;
#X obj 612 425 s \$0-norm-i;
#X obj 612 347 loadbang;
#X msg 612 367 1;
#X obj 273 587 outlet;
#X obj 642 158 - 1;
#X obj 642 198 route bang;
#X msg 642 218 symbol;
#X obj 651 488 loadbang;
#X msg 651 508 0;
#X obj 676 537 s \$0-mode-i;
#X floatatom 615 119 5 0 0 0 - - -, f 5;
#X obj 615 138 t f f;
#X obj 164 203 r \$0-mode-o;
#X text 168 52 arguments :;
#X text 168 69 <param_name> <module_name> <project_name> <parent_\$0>
;
#X obj 709 488 r \$4-\$1-mode;
#X obj 241 288 spigot;
#N canvas 0 23 337 375 schmitt 0;
#X obj 92 106 >;
#X obj 142 106 <;
#X obj 82 22 inlet;
#X obj 125 22 inlet;
#X obj 167 22 inlet;
#N canvas 408 136 264 294 once 0;
#X obj 107 156 spigot;
#X obj 107 27 inlet;
#X obj 107 227 outlet;
#X obj 107 182 t a b;
#X obj 157 27 inlet;
#X msg 157 67 1;
#X msg 163 163 0;
#X obj 157 47 t b;
#X connect 0 0 3 0;
#X connect 1 0 0 0;
#X connect 3 0 2 0;
#X connect 3 1 6 0;
#X connect 4 0 7 0;
#X connect 5 0 0 1;
#X connect 6 0 0 1;
#X connect 7 0 5 0;
#X restore 92 229 pd once;
#X obj 142 126 change;
#X obj 92 126 change;
#X obj 92 146 sel 1;
#X obj 142 146 sel 1;
#X msg 92 284 1;
#X msg 142 273 0;
#X obj 142 329 outlet;
#X obj 234 170 loadbang;
#N canvas 408 136 280 292 once 0;
#X obj 107 156 spigot;
#X obj 107 27 inlet;
#X obj 107 227 outlet;
#X obj 107 182 t a b;
#X obj 164 27 inlet;
#X msg 164 67 1;
#X msg 159 166 0;
#X obj 164 47 t b;
#X connect 0 0 3 0;
#X connect 1 0 0 0;
#X connect 3 0 2 0;
#X connect 3 1 6 0;
#X connect 4 0 7 0;
#X connect 5 0 0 1;
#X connect 6 0 0 1;
#X connect 7 0 5 0;
#X restore 142 229 pd once;
#X obj 92 253 t b b;
#X obj 142 253 t b b;
#X obj 92 168 t b b;
#X obj 142 167 t b b;
#X obj 172 61 t f f f;
#X obj 168 303 f;
#X connect 0 0 7 0;
#X connect 1 0 6 0;
#X connect 2 0 19 0;
#X connect 3 0 0 1;
#X connect 4 0 1 1;
#X connect 5 0 15 0;
#X connect 6 0 9 0;
#X connect 7 0 8 0;
#X connect 8 0 17 0;
#X connect 9 0 18 0;
#X connect 10 0 12 0;
#X connect 11 0 12 0;
#X connect 13 0 5 1;
#X connect 14 0 16 0;
#X connect 15 0 20 0;
#X connect 15 1 14 1;
#X connect 16 0 11 0;
#X connect 16 1 5 1;
#X connect 17 1 5 0;
#X connect 18 1 14 0;
#X connect 19 0 0 0;
#X connect 19 1 1 0;
#X connect 19 2 20 1;
#X connect 20 0 12 0;
#X restore 241 368 pd schmitt;
#X obj 320 398 r \$0-invert-o;
#X obj 651 557 s \$0-invert-i;
#X floatatom 69 88 2 1 99 0 - #0-ctlbus-i #0-ctlbus-o, f 2;
#X symbolatom 87 88 10 0 0 0 - #0-ctlname-i #0-ctlname-o, f 10;
#X floatatom 99 105 8 0 0 0 max/hi #0-max-hi-i #0-max-hi-o, f 8;
#X floatatom 99 122 8 0 0 0 min/lo #0-min-lo-i #0-min-lo-o, f 8;
#X obj 654 404 s \$0-ignorezeroes-i;
#X obj 406 398 r \$0-ignorezeroes-o;
#N canvas 565 102 558 430 invert-and-ignore-zeroes 0;
#X obj 158 73 inlet;
#X obj 201 360 outlet;
#X obj 330 74 inlet;
#X obj 371 74 inlet;
#X obj 158 182 == 0;
#X obj 201 162 spigot;
#X obj 158 122 t f f;
#X obj 158 162 spigot;
#X obj 207 122 t f f;
#X obj 234 142 == 0;
#X obj 207 103 tgl 15 0 empty empty invert 17 7 0 10 -262144 -1 -1
0 1;
#X obj 201 272 spigot;
#X obj 158 232 t f f;
#X obj 158 272 spigot;
#X obj 207 232 t f f;
#X obj 234 252 == 0;
#X obj 207 213 tgl 15 0 empty empty ignore_zeroes 17 7 0 10 -262144
-1 -1 0 1;
#X obj 158 292 sel 0;
#X connect 0 0 6 0;
#X connect 2 0 8 0;
#X connect 3 0 14 0;
#X connect 4 0 12 0;
#X connect 5 0 12 0;
#X connect 6 0 7 0;
#X connect 6 1 5 0;
#X connect 7 0 4 0;
#X connect 8 0 7 1;
#X connect 8 1 9 0;
#X connect 9 0 5 1;
#X connect 10 0 8 0;
#X connect 11 0 1 0;
#X connect 12 0 13 0;
#X connect 12 1 11 0;
#X connect 13 0 17 0;
#X connect 14 0 13 1;
#X connect 14 1 15 0;
#X connect 15 0 11 1;
#X connect 16 0 14 0;
#X connect 17 1 1 0;
#X restore 241 420 pd invert-and-ignore-zeroes;
#X obj 69 71 bng 15 250 50 0 \$0-trig-o \$0-trig-i empty 17 7 0 10
-262144 -1 -1;
#X obj 241 561 t f f;
#X obj 134 71 tgl 15 0 \$0-schmitt-o \$0-schmitt-i schmitt -44 7 0
10 -262144 -1 -1 0 1;
#X floatatom 99 139 8 0 0 0 pow #0-pow-i #0-pow-o, f 8;
#X floatatom 99 156 8 0 0 0 sin #0-sin-i #0-sin-o, f 8;
#X obj 670 384 tgl 15 0 \$0-ignorezeroes-o \$0-ignorezeroes-i ignore_zeroes
17 7 0 10 -262144 -1 -1 1 1;
#X obj 285 532 jl/map 0 1 0 1;
#X obj 327 292 r \$0-schmitt-o;
#X obj 341 348 == 0;
#X obj 241 348 spigot;
#X obj 308 368 spigot;
#X obj 241 308 t f f;
#X obj 295 252 r \$0-max-hi-o;
#X obj 315 272 r \$0-min-lo-o;
#X obj 378 506 r \$0-max-hi-o;
#X obj 362 486 r \$0-min-lo-o;
#X obj 639 446 s \$0-max-hi-i;
#X obj 318 493 == 0;
#X obj 285 512 spigot;
#X obj 164 224 t f f;
#X text 693 422 always ignore zeroes;
#X obj 241 512 spigot;
#X obj 292 474 t f f;
#X obj 241 455 t f f;
#X obj 327 312 t f f;
#X obj 292 455 r \$0-schmitt-o;
#X obj 618 577 s \$0-schmitt-i;
#X obj 615 99 r \$0-ctlbus-o;
#X obj 642 239 s \$0-ctlname-i;
#X obj 642 178 text get \$3-ctlbus;
#N canvas 243 67 340 358 create-ctlbus-receiver 0;
#X obj 49 34 inlet;
#X obj 76 176 pack s s s s;
#X obj 49 55 t b f;
#X obj 76 76 t b f f b;
#X msg 76 196 clear \, obj 50 50 receive \$1 \, obj 50 100 send \$2
\, obj 50 150 receive \$3 \, obj 50 200 send \$4 \, connect 0 0 1 0
\, connect 2 0 3 0, f 34;
#X obj 76 96 makefilename \$0-ctlbus-get;
#X obj 99 116 makefilename \$3-ctlbus-%d-get;
#X obj 122 136 makefilename \$3-ctlbus-%d;
#X obj 145 156 makefilename \$0-ctlbus;
#X obj 76 249 s pd-\$0-receive-ctlbus;
#X obj 49 296 s \$0-ctlbus-get;
#N canvas 448 72 536 411 \$0-receive-ctlbus 0;
#X obj 50 50 receive 1042-ctlbus-get;
#X obj 50 100 send sub-ctlbus-1-get;
#X obj 50 150 receive sub-ctlbus-1;
#X obj 50 200 send 1042-ctlbus;
#X connect 0 0 1 0;
#X connect 2 0 3 0;
#X restore 49 316 pd \$0-receive-ctlbus;
#X connect 0 0 2 0;
#X connect 1 0 4 0;
#X connect 2 0 10 0;
#X connect 2 1 3 0;
#X connect 3 0 5 0;
#X connect 3 1 6 0;
#X connect 3 2 7 0;
#X connect 3 3 8 0;
#X connect 4 0 9 0;
#X connect 5 0 1 0;
#X connect 6 0 1 1;
#X connect 7 0 1 2;
#X connect 8 0 1 3;
#X restore 615 264 pd create-ctlbus-receiver;
#X obj 241 203 receive \$0-ctlbus;
#X obj 52 156 tgl 15 0 \$0-invert-o \$0-invert-i inv 0 -5 0 9 -262144
-1 -1 0 1;
#X text 738 558 < don't invert by default;
#X obj 142 253 sel 1;
#X obj 142 274 s \$0-ctlbus-i;
#X text 711 577 < don't schmitt by default;
#X text 234 117 < [r \$4-preset-cmd] inside;
#N canvas 343 264 632 610 preset 0;
#X obj 279 268 list;
#X obj 272 213 t b b;
#X text 106 27 <[get/set/delete]> <preset_system_name> <preset_name>
;
#X text 430 27 <param_name>;
#N canvas 0 23 825 704 preset-get-set-delete 0;
#X obj 330 391 sel -1;
#X obj 273 299 t a a;
#X obj 166 551 spigot;
#X obj 253 531 == 0;
#X obj 226 511 t f f;
#X obj 220 551 spigot;
#X obj 166 511 t a a;
#X obj 363 411 t b f;
#X msg 330 411 1;
#X msg 338 434 0;
#X obj 26 209 sel -1;
#X obj 74 29 inlet;
#X obj 224 184 sel -1;
#X obj 93 658 outlet get;
#X obj 502 654 outlet getvalues;
#X obj 592 26 inlet getvalues;
#X obj 208 354 t b a;
#X obj 166 452 list prepend;
#X obj 166 394 t b b;
#X obj 166 432 list;
#X obj 330 455 t f;
#X obj 74 56 route get set delete;
#X obj 257 204 text delete \$2-presets;
#X obj 224 144 list split 3;
#X obj 330 351 list split 3;
#X obj 224 164 text search \$2-presets 0 1 2;
#X obj 330 371 text search \$2-presets 0 1 2;
#X obj 236 579 text set \$2-presets;
#X obj 206 600 text insert \$2-presets 0;
#X obj 26 169 list split 3;
#X obj 26 189 text search \$2-presets 0 1 2;
#X obj 59 229 text get \$2-presets;
#X obj 59 249 list split 3;
#X obj 26 149 list append \$1;
#X obj 273 279 list append \$1;
#X obj 224 124 list append \$1;
#X connect 0 0 8 0;
#X connect 0 1 7 0;
#X connect 1 0 16 0;
#X connect 1 1 24 0;
#X connect 2 0 28 0;
#X connect 3 0 5 1;
#X connect 4 0 2 1;
#X connect 4 1 3 0;
#X connect 5 0 27 0;
#X connect 6 0 2 0;
#X connect 6 1 5 0;
#X connect 7 0 9 0;
#X connect 7 1 27 1;
#X connect 8 0 20 0;
#X connect 9 0 20 0;
#X connect 10 1 31 0;
#X connect 11 0 21 0;
#X connect 12 1 22 0;
#X connect 15 0 19 1;
#X connect 16 0 18 0;
#X connect 16 1 17 1;
#X connect 17 0 6 0;
#X connect 18 0 19 0;
#X connect 18 1 14 0;
#X connect 19 0 17 0;
#X connect 20 0 4 0;
#X connect 21 0 33 0;
#X connect 21 1 34 0;
#X connect 21 2 35 0;
#X connect 23 0 25 0;
#X connect 24 0 26 0;
#X connect 25 0 12 0;
#X connect 26 0 0 0;
#X connect 29 0 30 0;
#X connect 30 0 10 0;
#X connect 31 0 32 0;
#X connect 32 1 13 0;
#X connect 33 0 29 0;
#X connect 34 0 1 0;
#X connect 35 0 23 0;
#X restore 88 233 pd preset-get-set-delete;
#X obj 88 96 r \$4-preset-cmd;
#X obj 312 74 r \$0-mode-o;
#X obj 395 169 r \$0-pow-o;
#X obj 412 188 r \$0-sin-o;
#X obj 88 283 s \$0-mode-i;
#X obj 180 378 s \$0-pow-i;
#X obj 198 397 s \$0-sin-i;
#X obj 328 93 r \$0-schmitt-o;
#X obj 362 131 r \$0-max-hi-o;
#X obj 378 150 r \$0-min-lo-o;
#X obj 106 302 s \$0-schmitt-i;
#X obj 143 340 s \$0-max-hi-i;
#X obj 161 359 s \$0-min-lo-i;
#X obj 429 207 r \$0-invert-o;
#X obj 217 416 s \$0-invert-i;
#X obj 345 112 r \$0-ctlbus-o;
#X obj 312 245 pack f f f f f f f f;
#X obj 124 321 s \$0-ctlbus-i;
#X obj 88 256 unpack f f f f f f f f;
#X connect 0 0 4 1;
#X connect 1 0 0 0;
#X connect 1 1 21 0;
#X connect 4 0 23 0;
#X connect 4 1 1 0;
#X connect 5 0 4 0;
#X connect 6 0 21 0;
#X connect 7 0 21 5;
#X connect 8 0 21 6;
#X connect 12 0 21 1;
#X connect 13 0 21 3;
#X connect 14 0 21 4;
#X connect 18 0 21 7;
#X connect 20 0 21 2;
#X connect 21 0 0 1;
#X connect 23 0 9 0;
#X connect 23 1 15 0;
#X connect 23 2 22 0;
#X connect 23 3 16 0;
#X connect 23 4 17 0;
#X connect 23 5 10 0;
#X connect 23 6 11 0;
#X connect 23 7 19 0;
#X restore 170 117 pd preset;
#X obj 232 608 s \$4-\$1-i;
#X obj 100 314 inlet;
#X obj 91 334 r \$4-\$1-o;
#X obj 68 387 s \$0-trig-i;
#X msg 68 433 1;
#X obj 73 488 spigot;
#X msg 119 432 0;
#X obj 100 356 t b b f;
#X obj 68 452 t f f;
#X obj 73 514 s \$0-trig;
#X obj 148 408 loadbang;
#X msg 148 432 1;
#X obj 68 408 r \$0-trig-o;
#X obj 181 485 r \$0-trig;
#X connect 6 0 7 0;
#X connect 7 0 4 0;
#X connect 7 0 5 0;
#X connect 7 0 29 0;
#X connect 7 0 48 0;
#X connect 9 0 61 0;
#X connect 10 0 11 0;
#X connect 10 1 60 0;
#X connect 11 0 60 0;
#X connect 12 0 13 0;
#X connect 13 0 14 0;
#X connect 13 0 24 0;
#X connect 13 0 58 0;
#X connect 15 0 16 0;
#X connect 16 0 62 0;
#X connect 16 1 9 0;
#X connect 17 0 51 0;
#X connect 20 0 14 0;
#X connect 21 0 43 0;
#X connect 22 0 31 0;
#X connect 23 0 31 1;
#X connect 30 0 31 2;
#X connect 31 0 55 0;
#X connect 33 0 71 0;
#X connect 33 1 8 0;
#X connect 38 0 33 0;
#X connect 39 0 56 0;
#X connect 40 0 42 1;
#X connect 41 0 22 0;
#X connect 42 0 31 0;
#X connect 43 0 41 0;
#X connect 43 1 42 0;
#X connect 44 0 22 1;
#X connect 45 0 22 2;
#X connect 46 0 38 4;
#X connect 47 0 38 3;
#X connect 49 0 50 1;
#X connect 50 0 38 0;
#X connect 51 0 66 0;
#X connect 51 1 21 1;
#X connect 53 0 33 0;
#X connect 54 0 53 1;
#X connect 54 1 49 0;
#X connect 55 0 53 0;
#X connect 55 1 50 0;
#X connect 56 0 41 1;
#X connect 56 1 40 0;
#X connect 57 0 54 0;
#X connect 59 0 15 0;
#X connect 61 0 10 0;
#X connect 63 0 21 0;
#X connect 66 0 67 0;
#X connect 72 0 78 0;
#X connect 73 0 78 0;
#X connect 75 0 79 0;
#X connect 76 0 80 0;
#X connect 77 0 76 1;
#X connect 78 0 74 0;
#X connect 78 1 77 0;
#X connect 79 0 76 1;
#X connect 79 1 76 0;
#X connect 81 0 82 0;
#X connect 82 0 76 1;
#X connect 83 0 75 0;
#X connect 84 0 33 0;
#X coords 0 -1 1 1 101 123 2 50 50;
