#N canvas 607 170 598 455 10;
#X text 83 318 <[get/set/delete]> <preset_system_name> <preset_name>
;
#X text 407 318 <param_name>;
#N canvas 493 170 825 704 preset-get-set-delete 0;
#X obj 330 391 sel -1;
#X obj 273 299 t a a;
#X obj 166 551 spigot;
#X obj 253 531 == 0;
#X obj 226 511 t f f;
#X obj 220 551 spigot;
#X obj 166 511 t a a;
#X obj 363 411 t b f;
#X msg 330 411 1;
#X msg 338 434 0;
#X obj 26 209 sel -1;
#X obj 74 29 inlet;
#X obj 224 184 sel -1;
#X obj 93 658 outlet get;
#X obj 502 654 outlet getvalues;
#X obj 592 26 inlet getvalues;
#X obj 208 354 t b a;
#X obj 166 452 list prepend;
#X obj 166 394 t b b;
#X obj 166 432 list;
#X obj 330 455 t f;
#X obj 74 56 route get set delete;
#X obj 257 204 text delete \$2-presets;
#X obj 224 144 list split 3;
#X obj 330 351 list split 3;
#X obj 224 164 text search \$2-presets 0 1 2;
#X obj 330 371 text search \$2-presets 0 1 2;
#X obj 236 579 text set \$2-presets;
#X obj 206 600 text insert \$2-presets 0;
#X obj 26 169 list split 3;
#X obj 26 189 text search \$2-presets 0 1 2;
#X obj 59 229 text get \$2-presets;
#X obj 59 249 list split 3;
#X obj 26 149 list append \$1;
#X obj 273 279 list append \$1;
#X obj 224 124 list append \$1;
#X connect 0 0 8 0;
#X connect 0 1 7 0;
#X connect 1 0 16 0;
#X connect 1 1 24 0;
#X connect 2 0 28 0;
#X connect 3 0 5 1;
#X connect 4 0 2 1;
#X connect 4 1 3 0;
#X connect 5 0 27 0;
#X connect 6 0 2 0;
#X connect 6 1 5 0;
#X connect 7 0 9 0;
#X connect 7 1 27 1;
#X connect 8 0 20 0;
#X connect 9 0 20 0;
#X connect 10 1 31 0;
#X connect 11 0 21 0;
#X connect 12 1 22 0;
#X connect 15 0 19 1;
#X connect 16 0 18 0;
#X connect 16 1 17 1;
#X connect 17 0 6 0;
#X connect 18 0 19 0;
#X connect 18 1 14 0;
#X connect 19 0 17 0;
#X connect 20 0 4 0;
#X connect 21 0 33 0;
#X connect 21 1 34 0;
#X connect 21 2 35 0;
#X connect 23 0 25 0;
#X connect 24 0 26 0;
#X connect 25 0 12 0;
#X connect 26 0 0 0;
#X connect 29 0 30 0;
#X connect 30 0 10 0;
#X connect 31 0 32 0;
#X connect 32 1 13 0;
#X connect 33 0 29 0;
#X connect 34 0 1 0;
#X connect 35 0 23 0;
#X restore 88 233 pd preset-get-set-delete;
#X obj 88 96 r \$4-preset-cmd;
#X obj 257 94 r \$4-\$1-o;
#X obj 242 233 f;
#X obj 88 268 s \$4-\$1-i;
#X text 83 66 <param_name> <module_name> <project_name> <parent_\$0>
;
#X text 83 50 arguments :;
#X text 83 302 messages :;
#X text 320 95 < direct link to UI;
#X text 151 268 < direct link to UI;
#X connect 2 0 6 0;
#X connect 2 1 5 0;
#X connect 3 0 2 0;
#X connect 4 0 5 1;
#X connect 5 0 2 1;
