#N canvas 122 85 1061 653 10;
#N canvas 304 23 973 748 wiring 0;
#X obj 364 316 text define \$1-soundbank;
#X obj 117 376 text delete \$1-soundbank;
#X obj 76 306 loadbang;
#X obj 76 376 until;
#X obj 76 395 text insert \$1-soundbank 0;
#X obj 76 325 t b b;
#X msg 117 357 -1;
#X obj 174 685 s \$0-abspath-i;
#X obj 223 544 * 0.001;
#X obj 299 599 s \$0-channels-i;
#X obj 223 524 t f f;
#X obj 204 563 /;
#X obj 111 475 route bang;
#X obj 204 638 s \$0-duration-i;
#X obj 250 619 s \$0-samplerate-i;
#X obj 168 503 unpack s s f f f f f s;
#X obj 729 551 r \$0-volume-o;
#X obj 729 591 line~;
#X msg 729 571 \$1 5;
#N canvas 0 23 410 559 split-last-slash 0;
#X obj 98 103 list fromsymbol;
#X obj 195 282 list;
#X obj 117 146 list length;
#X obj 117 215 until;
#X obj 144 186 - 1;
#X obj 117 166 t f f;
#X obj 152 356 list split;
#X obj 180 375 list split 1;
#X obj 117 236 f;
#X obj 141 236 - 1;
#X obj 180 395 sel 47;
#X obj 117 256 t b f f;
#X obj 261 375 f;
#X obj 291 288 t b b;
#X obj 98 441 list split;
#X obj 98 123 t l l l;
#X obj 98 80 inlet;
#X obj 98 478 list tosymbol;
#X obj 98 503 outlet;
#X obj 261 394 + 1;
#X connect 0 0 15 0;
#X connect 1 0 6 0;
#X connect 2 0 5 0;
#X connect 3 0 8 0;
#X connect 4 0 8 1;
#X connect 5 0 3 0;
#X connect 5 1 4 0;
#X connect 6 1 7 0;
#X connect 7 0 10 0;
#X connect 8 0 9 0;
#X connect 8 0 11 0;
#X connect 9 0 8 1;
#X connect 10 0 13 0;
#X connect 11 0 1 0;
#X connect 11 1 6 1;
#X connect 11 2 12 1;
#X connect 12 0 19 0;
#X connect 13 0 3 1;
#X connect 13 1 12 0;
#X connect 14 0 17 0;
#X connect 15 0 14 0;
#X connect 15 1 2 0;
#X connect 15 2 1 1;
#X connect 16 0 0 0;
#X connect 17 0 18 0;
#X connect 19 0 14 1;
#X restore 89 153 pd split-last-slash;
#X obj 139 221 list prepend read;
#X obj 205 256 list trim;
#N canvas 0 23 410 559 split-last-slash 0;
#X obj 98 103 list fromsymbol;
#X obj 195 282 list;
#X obj 117 146 list length;
#X obj 117 215 until;
#X obj 144 186 - 1;
#X obj 117 166 t f f;
#X obj 152 356 list split;
#X obj 180 375 list split 1;
#X obj 117 236 f;
#X obj 141 236 - 1;
#X obj 180 395 sel 47;
#X obj 117 256 t b f f;
#X obj 261 375 f;
#X obj 291 288 t b b;
#X obj 98 441 list split;
#X obj 98 123 t l l l;
#X obj 98 80 inlet;
#X obj 98 478 list tosymbol;
#X obj 98 503 outlet;
#X obj 261 394 + 1;
#X connect 0 0 15 0;
#X connect 1 0 6 0;
#X connect 2 0 5 0;
#X connect 3 0 8 0;
#X connect 4 0 8 1;
#X connect 5 0 3 0;
#X connect 5 1 4 0;
#X connect 6 1 7 0;
#X connect 7 0 10 0;
#X connect 8 0 9 0;
#X connect 8 0 11 0;
#X connect 9 0 8 1;
#X connect 10 0 13 0;
#X connect 11 0 1 0;
#X connect 11 1 6 1;
#X connect 11 2 12 1;
#X connect 12 0 19 0;
#X connect 13 0 3 1;
#X connect 13 1 12 0;
#X connect 14 0 17 0;
#X connect 15 0 14 0;
#X connect 15 1 2 0;
#X connect 15 2 1 1;
#X connect 16 0 0 0;
#X connect 17 0 18 0;
#X connect 19 0 14 1;
#X restore 202 120 pd split-last-slash;
#X obj 249 221 list prepend write;
#X obj 211 65 route open save read write;
#X obj 461 47 openpanel;
#X obj 534 47 savepanel;
#X obj 54 544 loadbang;
#X msg 54 564 symbol;
#X obj 534 28 r \$0-write-o;
#X obj 461 28 r \$0-read-o;
#X obj 338 136 s \$0-read-i;
#X obj 364 114 s \$0-write-i;
#X obj 461 86 list prepend read;
#X obj 534 66 list prepend write;
#X obj 534 120 list trim;
#X obj 534 141 s \$0-to-text;
#X text 181 474 filename \, abspath \, samples \, samplerate \, headersize
\, channels \, bytespersample \, endianness (sent from lines);
#X obj 337 270 r \$0-to-text;
#X obj 205 276 s \$0-to-text;
#X obj 211 30 inlet;
#X obj 249 170 makefilename %s/\$1-soundbank.txt;
#X obj 139 201 makefilename %s/\$1-soundbank.txt;
#X msg 76 357 99;
#X obj 337 291 t a a;
#X obj 337 337 route read;
#X msg 337 374 update;
#X obj 337 393 s \$0-soundbank-cmd;
#X obj 337 356 bng 15 250 50 0 empty empty empty 17 7 0 10 -262144
-1 -1;
#N canvas 0 23 483 697 decode-spaces 0;
#X obj 171 68 list fromsymbol;
#X obj 217 332 list;
#X obj 117 146 list length;
#X obj 117 215 until;
#X obj 144 186 - 1;
#X obj 117 166 t f f;
#X obj 180 384 list split;
#X obj 208 403 list split 1;
#X obj 117 236 f;
#X obj 143 236 - 1;
#X obj 117 256 t b f f;
#X obj 120 354 f;
#X obj 120 375 sel 0;
#X obj 98 286 t b b;
#X obj 275 505 list append;
#X obj 349 505 list;
#X obj 347 447 t b b;
#X obj 183 590 list;
#X obj 171 88 t l l b;
#X obj 183 611 list tosymbol;
#X obj 171 41 inlet;
#X obj 183 634 outlet;
#X obj 214 460 == 0;
#X obj 189 460 f;
#X obj 214 480 sel 1;
#X msg 214 499 92;
#X obj 208 423 sel 59;
#X msg 286 475 32;
#X connect 0 0 18 0;
#X connect 1 0 6 0;
#X connect 2 0 5 0;
#X connect 3 0 8 0;
#X connect 4 0 8 1;
#X connect 5 0 3 0;
#X connect 5 1 4 0;
#X connect 6 1 7 0;
#X connect 7 0 26 0;
#X connect 8 0 9 0;
#X connect 8 0 10 0;
#X connect 9 0 8 1;
#X connect 10 0 13 0;
#X connect 10 1 6 1;
#X connect 10 2 11 1;
#X connect 11 0 12 0;
#X connect 12 0 17 0;
#X connect 13 0 11 0;
#X connect 13 1 1 0;
#X connect 14 0 15 0;
#X connect 14 0 17 1;
#X connect 15 0 14 1;
#X connect 16 0 14 1;
#X connect 16 1 15 1;
#X connect 17 0 19 0;
#X connect 18 0 2 0;
#X connect 18 1 1 1;
#X connect 18 2 16 0;
#X connect 19 0 21 0;
#X connect 20 0 0 0;
#X connect 22 0 23 1;
#X connect 22 0 24 0;
#X connect 23 0 22 0;
#X connect 24 0 25 0;
#X connect 25 0 14 0;
#X connect 26 0 27 0;
#X connect 26 1 14 0;
#X connect 27 0 14 0;
#X restore 186 661 pd decode-spaces;
#X obj 250 30 r \$1-soundbank-file-cmd;
#X obj 249 147 symbol;
#X obj 139 174 symbol;
#X obj 671 631 *~;
#X obj 111 455 text get \$1-soundbank;
#X obj 650 535 *~;
#X obj 557 318 text get \$1-soundbank;
#X obj 557 258 f;
#X obj 631 380 unpack f f;
#X obj 631 423 /;
#X obj 631 400 t f f;
#X obj 650 505 line~;
#X msg 631 360 \$3 \$4;
#X obj 688 400 * 0.001;
#X msg 650 467 0 \, 1 \$1;
#X obj 557 338 route bang;
#X obj 556 400 r \$0-stop-o;
#X obj 650 562 tabread4~;
#X msg 741 420 set \$1;
#X obj 671 677 outlet~;
#X obj 683 656 s~ \$1-soundbank-audio-out;
#X obj 557 183 r \$0-play-o;
#X obj 557 279 t f f;
#X obj 741 320 + 1;
#X obj 741 400 makefilename \$1-soundbank-array-%d;
#X obj 111 503 t b b;
#X msg 138 558 0;
#X obj 595 562 line~;
#X msg 595 542 \$1 10;
#X obj 729 506 del;
#X obj 729 526 s \$0-stop-i;
#X obj 729 486 t b f;
#X obj 616 592 *~;
#X obj 631 443 t b f f;
#X msg 617 467 1;
#X obj 556 423 t b b;
#X msg 556 467 0;
#X msg 586 467 0;
#X obj 586 443 del 10;
#X obj 572 203 r \$0-line;
#X obj 111 435 r \$0-line;
#X obj 572 224 t f f;
#X obj 599 244 change;
#X obj 599 265 s \$0-stop-i;
#X obj 557 368 s \$0-stop-i;
#X obj 204 619 i;
#X connect 2 0 5 0;
#X connect 3 0 4 0;
#X connect 5 0 43 0;
#X connect 5 1 6 0;
#X connect 6 0 1 0;
#X connect 8 0 11 1;
#X connect 10 0 8 0;
#X connect 10 1 14 0;
#X connect 11 0 95 0;
#X connect 12 0 75 0;
#X connect 12 1 15 0;
#X connect 15 1 49 0;
#X connect 15 2 11 0;
#X connect 15 3 10 0;
#X connect 15 5 9 0;
#X connect 16 0 18 0;
#X connect 17 0 53 1;
#X connect 18 0 17 0;
#X connect 19 0 42 0;
#X connect 20 0 21 0;
#X connect 21 0 39 0;
#X connect 22 0 41 0;
#X connect 23 0 21 0;
#X connect 24 0 52 0;
#X connect 24 1 51 0;
#X connect 24 2 31 0;
#X connect 24 3 32 0;
#X connect 25 0 33 0;
#X connect 26 0 34 0;
#X connect 27 0 28 0;
#X connect 28 0 7 0;
#X connect 29 0 26 0;
#X connect 30 0 25 0;
#X connect 33 0 35 0;
#X connect 34 0 35 0;
#X connect 35 0 36 0;
#X connect 38 0 44 0;
#X connect 40 0 24 0;
#X connect 41 0 23 0;
#X connect 42 0 20 0;
#X connect 43 0 3 0;
#X connect 44 0 45 0;
#X connect 44 1 0 0;
#X connect 45 0 48 0;
#X connect 46 0 47 0;
#X connect 48 0 46 0;
#X connect 49 0 7 0;
#X connect 50 0 24 0;
#X connect 51 0 41 0;
#X connect 52 0 42 0;
#X connect 53 0 69 0;
#X connect 53 0 70 0;
#X connect 54 0 12 0;
#X connect 55 0 67 0;
#X connect 56 0 65 0;
#X connect 57 0 72 0;
#X connect 58 0 60 0;
#X connect 58 1 63 0;
#X connect 59 0 83 0;
#X connect 60 0 59 0;
#X connect 60 1 55 1;
#X connect 61 0 55 0;
#X connect 62 0 58 0;
#X connect 63 0 59 1;
#X connect 64 0 61 0;
#X connect 65 0 94 0;
#X connect 65 1 62 0;
#X connect 66 0 85 0;
#X connect 67 0 82 1;
#X connect 68 0 67 0;
#X connect 71 0 57 0;
#X connect 72 0 56 0;
#X connect 72 1 73 0;
#X connect 73 0 74 0;
#X connect 74 0 68 0;
#X connect 75 0 28 0;
#X connect 75 1 76 0;
#X connect 76 0 14 0;
#X connect 76 0 9 0;
#X connect 76 0 95 0;
#X connect 77 0 82 0;
#X connect 78 0 77 0;
#X connect 79 0 80 0;
#X connect 81 0 79 0;
#X connect 81 1 79 1;
#X connect 82 0 53 0;
#X connect 83 0 84 0;
#X connect 83 1 64 0;
#X connect 83 2 81 0;
#X connect 84 0 78 0;
#X connect 85 0 86 0;
#X connect 85 1 88 0;
#X connect 86 0 78 0;
#X connect 87 0 61 0;
#X connect 88 0 87 0;
#X connect 89 0 91 0;
#X connect 90 0 54 0;
#X connect 91 0 57 1;
#X connect 91 1 92 0;
#X connect 92 0 93 0;
#X connect 95 0 13 0;
#X restore 873 42 pd wiring;
#X obj 873 23 inlet file-msgs;
#X obj 873 61 outlet~ audio-out;
#X obj 21 32 cnv 12 831 12 empty empty empty 20 12 0 14 -1 -66577 0
;
#X obj 21 40 cnv 30 831 585 empty empty empty 4 18 0 11 -262144 -66577
0;
#X obj 21 21 cnv 12 831 17 empty empty \$1 38 9 0 11 -228856 -66577
0;
#X obj 37 22 bng 15 250 50 0 \$0-write-o \$0-write-i W 5 8 0 10 -262144
-1 -1;
#X obj 22 22 bng 15 250 50 0 \$0-read-o \$0-read-i R 5 8 0 10 -262144
-1 -1;
#X obj 654 22 hsl 195 15 0 1 0 0 \$0-volume-o \$0-volume-i volume 4
8 0 10 -262144 -1 -191407 15900 0;
#N canvas 499 52 820 783 create-units-archive 0;
#X text 58 19 args :;
#X obj 163 40 loadbang;
#X obj 231 275 symbol \$1;
#X obj 67 282 until;
#X obj 89 304 f;
#X obj 114 304 + 1;
#X msg 104 282 0;
#X text 104 19 <soundbank_name> <#units(def 16)> <#units/column(def
16)>;
#X obj 227 133 f \$2;
#X obj 280 133 f \$3;
#X obj 227 153 moses 1;
#X obj 280 153 moses 1;
#X obj 227 108 t b b;
#X obj 89 323 t f f;
#X obj 173 367 + 1;
#X text 459 147 unit width \, unit height \, col spacer \, row spacer
\,;
#X obj 123 445 r \$0-unit-dimensions;
#X obj 110 207 t f f;
#X obj 194 207 t f f;
#X obj 221 226 s \$0-unit-rows;
#X obj 137 247 s \$0-unit-cols;
#X obj 362 258 list append;
#X obj 362 238 pack f f;
#X obj 407 217 r \$0-unit-rows;
#X obj 362 196 r \$0-unit-cols;
#X obj 144 40 bng 15 250 50 0 empty empty empty 17 7 0 10 -262144 -1
-1;
#X obj 362 278 s \$0-unit-dimensions;
#X obj 123 465 t a a;
#X obj 123 508 expr $f1*$f3 + $f5*($f1 - 1) + $f7 + $f9;
#X obj 168 487 expr $f2*$f4 + $f6*($f2 - 1) + $f8 + $f10;
#X obj 77 259 t f b;
#X obj 110 187 f 16;
#X obj 194 187 f 16;
#N canvas 0 23 481 431 coords 0;
#X obj 174 132 %;
#X obj 92 152 i;
#X obj 92 132 /;
#X obj 174 152 i;
#X obj 92 101 t f f;
#X obj 162 81 r \$0-unit-rows;
#X obj 162 101 t f f;
#X obj 92 252 +;
#X obj 92 211 *;
#X obj 255 81 r \$0-unit-dimensions;
#X obj 92 179 t f f;
#X obj 119 211 *;
#X obj 92 231 +;
#X obj 174 296 +;
#X obj 174 255 *;
#X obj 174 234 t f f;
#X obj 201 255 *;
#X obj 174 275 +;
#X obj 92 55 inlet;
#X obj 92 349 outlet;
#X obj 174 349 outlet;
#X msg 255 102 \$3 \$5 \$7 \$11 \$4 \$6 \$8 \$12;
#X obj 255 121 unpack f f f f f f f f;
#X obj 92 273 +;
#X obj 174 317 +;
#X connect 0 0 3 0;
#X connect 1 0 10 0;
#X connect 2 0 1 0;
#X connect 3 0 15 0;
#X connect 4 0 2 0;
#X connect 4 1 0 0;
#X connect 5 0 6 0;
#X connect 6 0 2 1;
#X connect 6 1 0 1;
#X connect 7 0 23 0;
#X connect 8 0 12 0;
#X connect 9 0 21 0;
#X connect 10 0 8 0;
#X connect 10 1 11 0;
#X connect 11 0 12 1;
#X connect 12 0 7 0;
#X connect 13 0 24 0;
#X connect 14 0 17 0;
#X connect 15 0 14 0;
#X connect 15 1 16 0;
#X connect 16 0 17 1;
#X connect 17 0 13 0;
#X connect 18 0 4 0;
#X connect 21 0 22 0;
#X connect 22 0 8 1;
#X connect 22 1 11 1;
#X connect 22 2 7 1;
#X connect 22 3 23 1;
#X connect 22 4 14 1;
#X connect 22 5 16 1;
#X connect 22 6 13 1;
#X connect 22 7 24 1;
#X connect 23 0 19 0;
#X connect 24 0 20 0;
#X restore 58 369 pd coords;
#X msg 455 196 337 19 5 0 5 42 5 5 20 20;
#X text 460 177 canvas x offset \, canvas y offset;
#X text 459 162 left spacer \, top spacer \, right spacer \, bottom
spacer \,;
#X msg 195 612 vis_size \$1 \$2;
#X obj 123 528 t f f;
#X obj 168 528 t f f;
#X obj 240 572 - 2;
#X obj 195 572 - 2;
#X obj 123 646 pack f f;
#X obj 195 592 pack f f;
#X obj 195 632 s \$0-canvas-i;
#N canvas 0 23 319 285 getcols 0;
#X obj 153 93 %;
#X obj 126 113 i;
#X obj 126 93 /;
#X obj 153 113 i;
#X obj 153 132 sel 0;
#X msg 153 152 0;
#X obj 191 132 t b;
#X msg 191 152 1;
#X obj 126 62 t f f;
#X obj 167 62 t f f;
#X obj 126 42 inlet;
#X obj 167 42 inlet;
#X obj 126 211 +;
#X obj 126 231 outlet;
#X connect 0 0 3 0;
#X connect 1 0 12 0;
#X connect 2 0 1 0;
#X connect 3 0 4 0;
#X connect 4 0 5 0;
#X connect 4 1 6 0;
#X connect 5 0 12 1;
#X connect 6 0 7 0;
#X connect 7 0 12 1;
#X connect 8 0 2 0;
#X connect 8 1 0 0;
#X connect 9 0 2 1;
#X connect 9 1 0 1;
#X connect 10 0 8 0;
#X connect 11 0 9 0;
#X connect 12 0 13 0;
#X restore 137 227 pd getcols;
#X obj 123 698 s \$0-soundbank;
#X obj 163 71 t b b b b b b;
#X msg 362 106 clear;
#X obj 89 718 s pd-\$0-container;
#X obj 362 126 s pd-\$0-container;
#X msg 123 666 donecanvasdialog 1 -1 2 0 -1 1 1 \$1 \$2 20 20;
#X text 402 665 < \$1 \$2 : graph on parent W / H;
#X text 408 681 (2 is for graph on parent + hide object name and args)
;
#X obj 64 120 t b b;
#X obj 35 153 s \$1-sounbank-units-loadbang;
#X msg 89 423 obj \$1 \$2 project/soundbank-unit \$3 \$4 \$5;
#X obj 282 310 symbol \$0-soundbank;
#X obj 89 402 pack f f s f s;
#X obj 245 252 t b b;
#X connect 2 0 58 2;
#X connect 3 0 4 0;
#X connect 4 0 5 0;
#X connect 4 0 13 0;
#X connect 5 0 4 1;
#X connect 6 0 4 1;
#X connect 8 0 10 0;
#X connect 9 0 11 0;
#X connect 10 1 31 1;
#X connect 11 1 32 1;
#X connect 12 0 8 0;
#X connect 12 1 9 0;
#X connect 13 0 33 0;
#X connect 13 1 14 0;
#X connect 14 0 58 3;
#X connect 16 0 27 0;
#X connect 17 0 30 0;
#X connect 17 1 45 0;
#X connect 18 0 45 1;
#X connect 18 1 19 0;
#X connect 21 0 26 0;
#X connect 22 0 21 0;
#X connect 23 0 22 1;
#X connect 24 0 22 0;
#X connect 25 0 47 0;
#X connect 27 0 28 0;
#X connect 27 1 29 0;
#X connect 28 0 38 0;
#X connect 29 0 39 0;
#X connect 30 0 3 0;
#X connect 30 1 6 0;
#X connect 31 0 17 0;
#X connect 32 0 18 0;
#X connect 33 0 58 0;
#X connect 33 1 58 1;
#X connect 34 0 21 1;
#X connect 37 0 44 0;
#X connect 38 0 42 0;
#X connect 38 1 41 0;
#X connect 39 0 42 1;
#X connect 39 1 40 0;
#X connect 40 0 43 1;
#X connect 41 0 43 0;
#X connect 42 0 51 0;
#X connect 43 0 37 0;
#X connect 45 0 20 0;
#X connect 47 0 54 0;
#X connect 47 1 32 0;
#X connect 47 2 59 0;
#X connect 47 3 12 0;
#X connect 47 4 34 0;
#X connect 48 0 50 0;
#X connect 54 0 55 0;
#X connect 54 1 31 0;
#X connect 57 0 58 4;
#X connect 58 0 56 0;
#X connect 59 0 2 0;
#X connect 59 1 57 0;
#X restore 873 105 pd create-units-archive;
#X obj 636 22 bng 15 100 50 0 \$0-playstop-o \$0-playstop-i > 5 7 0
10 -262144 -262144 -1;
#N canvas 402 321 557 289 toggleize-playstop 0;
#X obj 128 87 tgl 15 0 empty empty empty 17 7 0 10 -262144 -1 -1 0
1;
#X obj 128 105 sel 0 1;
#X obj 201 35 r \$0-playstop-o;
#X obj 147 202 s \$0-playstop-i;
#X obj 172 134 s \$0-stop-o;
#X obj 245 134 s \$0-play-o;
#X obj 55 35 r \$0-stop-i;
#X obj 128 35 r \$0-play-i;
#X msg 55 55 0;
#X msg 128 55 1;
#X msg 147 157 label_font 0 6 \, label_pos 4 7 \, color 13 0 22 \,
label ||;
#X msg 128 177 label_font 0 10 \, label_pos 5 7 \, color 0 0 22 \,
label >;
#X connect 0 0 1 0;
#X connect 1 0 11 0;
#X connect 1 0 4 0;
#X connect 1 1 10 0;
#X connect 1 1 5 0;
#X connect 2 0 0 0;
#X connect 6 0 8 0;
#X connect 7 0 9 0;
#X connect 8 0 0 0;
#X connect 9 0 0 0;
#X connect 10 0 3 0;
#X connect 11 0 3 0;
#X restore 873 86 pd toggleize-playstop;
#X floatatom 193 41 7 0 0 0 rate #0-samplerate-i #0-samplerate-o,
f 7;
#X floatatom 97 41 7 0 0 0 duration #0-duration-i #0-duration-o, f
7;
#X symbolatom 369 41 80 0 0 0 path #0-abspath-i #0-abspath-o, f 80
;
#X floatatom 315 41 2 0 0 0 channels #0-channels-i #0-channels-o,
f 2;
#X obj 21 58 cnv 5 831 5 empty empty empty 20 12 0 14 -1 -66577 0;
#X obj 21 59 cnv 3 831 3 empty empty empty 4 9 0 11 -228856 -66577
0;
#X obj 22 82 project/soundbank-unit \$1 2 \$0;
#X obj 22 609 project/soundbank-unit \$1 33 \$0;
#X obj 22 65 project/soundbank-unit \$1 1 \$0;
#X obj 22 99 project/soundbank-unit \$1 3 \$0;
#X obj 22 116 project/soundbank-unit \$1 4 \$0;
#X obj 22 133 project/soundbank-unit \$1 5 \$0;
#X obj 22 150 project/soundbank-unit \$1 6 \$0;
#X obj 22 167 project/soundbank-unit \$1 7 \$0;
#X obj 22 184 project/soundbank-unit \$1 8 \$0;
#X obj 22 201 project/soundbank-unit \$1 9 \$0;
#X obj 22 218 project/soundbank-unit \$1 10 \$0;
#X obj 22 235 project/soundbank-unit \$1 11 \$0;
#X obj 22 252 project/soundbank-unit \$1 12 \$0;
#X obj 22 269 project/soundbank-unit \$1 13 \$0;
#X obj 22 286 project/soundbank-unit \$1 14 \$0;
#X obj 22 303 project/soundbank-unit \$1 15 \$0;
#X obj 22 320 project/soundbank-unit \$1 16 \$0;
#X obj 22 337 project/soundbank-unit \$1 17 \$0;
#X obj 22 354 project/soundbank-unit \$1 18 \$0;
#X obj 22 371 project/soundbank-unit \$1 19 \$0;
#X obj 22 388 project/soundbank-unit \$1 20 \$0;
#X obj 22 405 project/soundbank-unit \$1 21 \$0;
#X obj 22 422 project/soundbank-unit \$1 22 \$0;
#X obj 22 439 project/soundbank-unit \$1 23 \$0;
#X obj 22 456 project/soundbank-unit \$1 24 \$0;
#X obj 22 473 project/soundbank-unit \$1 25 \$0;
#X obj 22 490 project/soundbank-unit \$1 26 \$0;
#X obj 22 507 project/soundbank-unit \$1 27 \$0;
#X obj 22 524 project/soundbank-unit \$1 28 \$0;
#X obj 22 541 project/soundbank-unit \$1 29 \$0;
#X obj 22 558 project/soundbank-unit \$1 30 \$0;
#X obj 22 575 project/soundbank-unit \$1 31 \$0;
#X obj 22 592 project/soundbank-unit \$1 32 \$0;
#X obj 299 65 project/soundbank-unit \$1 34 \$0;
#X obj 299 82 project/soundbank-unit \$1 35 \$0;
#X obj 299 99 project/soundbank-unit \$1 36 \$0;
#X obj 299 116 project/soundbank-unit \$1 37 \$0;
#X obj 299 133 project/soundbank-unit \$1 38 \$0;
#X obj 299 150 project/soundbank-unit \$1 39 \$0;
#X obj 299 167 project/soundbank-unit \$1 40 \$0;
#X obj 299 184 project/soundbank-unit \$1 41 \$0;
#X obj 299 201 project/soundbank-unit \$1 42 \$0;
#X obj 299 218 project/soundbank-unit \$1 43 \$0;
#X obj 299 235 project/soundbank-unit \$1 44 \$0;
#X obj 299 252 project/soundbank-unit \$1 45 \$0;
#X obj 299 269 project/soundbank-unit \$1 46 \$0;
#X obj 299 286 project/soundbank-unit \$1 47 \$0;
#X obj 299 303 project/soundbank-unit \$1 48 \$0;
#X obj 299 320 project/soundbank-unit \$1 49 \$0;
#X obj 299 337 project/soundbank-unit \$1 50 \$0;
#X obj 299 354 project/soundbank-unit \$1 51 \$0;
#X obj 299 371 project/soundbank-unit \$1 52 \$0;
#X obj 299 388 project/soundbank-unit \$1 53 \$0;
#X obj 299 405 project/soundbank-unit \$1 54 \$0;
#X obj 299 422 project/soundbank-unit \$1 55 \$0;
#X obj 299 439 project/soundbank-unit \$1 56 \$0;
#X obj 299 456 project/soundbank-unit \$1 57 \$0;
#X obj 299 473 project/soundbank-unit \$1 58 \$0;
#X obj 299 490 project/soundbank-unit \$1 59 \$0;
#X obj 299 507 project/soundbank-unit \$1 60 \$0;
#X obj 299 524 project/soundbank-unit \$1 61 \$0;
#X obj 299 541 project/soundbank-unit \$1 62 \$0;
#X obj 299 558 project/soundbank-unit \$1 63 \$0;
#X obj 299 575 project/soundbank-unit \$1 64 \$0;
#X obj 299 592 project/soundbank-unit \$1 65 \$0;
#X obj 299 609 project/soundbank-unit \$1 66 \$0;
#X obj 576 65 project/soundbank-unit \$1 67 \$0;
#X obj 576 82 project/soundbank-unit \$1 68 \$0;
#X obj 576 99 project/soundbank-unit \$1 69 \$0;
#X obj 576 116 project/soundbank-unit \$1 70 \$0;
#X obj 576 133 project/soundbank-unit \$1 71 \$0;
#X obj 576 150 project/soundbank-unit \$1 72 \$0;
#X obj 576 167 project/soundbank-unit \$1 73 \$0;
#X obj 576 184 project/soundbank-unit \$1 74 \$0;
#X obj 576 201 project/soundbank-unit \$1 75 \$0;
#X obj 576 218 project/soundbank-unit \$1 76 \$0;
#X obj 576 235 project/soundbank-unit \$1 77 \$0;
#X obj 576 252 project/soundbank-unit \$1 78 \$0;
#X obj 576 269 project/soundbank-unit \$1 79 \$0;
#X obj 576 286 project/soundbank-unit \$1 80 \$0;
#X obj 576 303 project/soundbank-unit \$1 81 \$0;
#X obj 576 320 project/soundbank-unit \$1 82 \$0;
#X obj 576 337 project/soundbank-unit \$1 83 \$0;
#X obj 576 354 project/soundbank-unit \$1 84 \$0;
#X obj 576 371 project/soundbank-unit \$1 85 \$0;
#X obj 576 388 project/soundbank-unit \$1 86 \$0;
#X obj 576 405 project/soundbank-unit \$1 87 \$0;
#X obj 576 422 project/soundbank-unit \$1 88 \$0;
#X obj 576 439 project/soundbank-unit \$1 89 \$0;
#X obj 576 456 project/soundbank-unit \$1 90 \$0;
#X obj 576 473 project/soundbank-unit \$1 91 \$0;
#X obj 576 490 project/soundbank-unit \$1 92 \$0;
#X obj 576 507 project/soundbank-unit \$1 93 \$0;
#X obj 576 524 project/soundbank-unit \$1 94 \$0;
#X obj 576 541 project/soundbank-unit \$1 95 \$0;
#X obj 576 558 project/soundbank-unit \$1 96 \$0;
#X obj 576 575 project/soundbank-unit \$1 97 \$0;
#X obj 576 592 project/soundbank-unit \$1 98 \$0;
#X obj 576 609 project/soundbank-unit \$1 99 \$0;
#X text 239 40 Hz;
#X text 143 40 ms;
#X connect 0 0 2 0;
#X connect 1 0 0 0;
#X coords 0 -1 1 1 833 606 2 20 20;
