#N canvas 628 29 647 582 10;
#X obj 50 172 route bang;
#X msg 50 227 symbol;
#X obj 50 275 t a;
#X floatatom 50 50 3 1 99 0 - #3-#1-i #3-#1-o, f 3;
#X symbolatom 70 50 23 0 0 0 - #0-soundname-i #0-soundname-o, f 23
;
#X obj 285 271 unpack f f;
#X obj 342 291 expr $f1 * 0.001;
#X obj 285 318 / 44.1;
#X obj 50 297 s \$0-soundname-i;
#X text 134 97 arguments : <instance_name> <soundbank_name> <parent_\$0>
;
#X obj 50 132 r \$3-\$1-o;
#X obj 50 152 text get \$2-soundbank;
#X obj 222 409 s \$3-\$1-info;
#X msg 285 251 \$4 \$5;
#X obj 222 338 list append;
#X obj 107 193 t a a;
#X obj 222 227 t a a;
#X obj 107 227 list split 1;
#X msg 222 359 \$3 \$4 \$5 \$10 \$8;
#X text 326 359 < arrayname samples samplerate duration channels;
#X obj 222 380 list;
#X obj 50 193 t b b;
#X obj 77 360 text get \$2-soundbank;
#X msg 77 339 0;
#X connect 0 0 21 0;
#X connect 0 1 15 0;
#X connect 1 0 2 0;
#X connect 2 0 8 0;
#X connect 5 0 7 0;
#X connect 5 1 6 0;
#X connect 6 0 7 1;
#X connect 7 0 14 1;
#X connect 10 0 11 0;
#X connect 11 0 0 0;
#X connect 13 0 5 0;
#X connect 14 0 18 0;
#X connect 15 0 17 0;
#X connect 15 1 16 0;
#X connect 16 0 14 0;
#X connect 16 1 13 0;
#X connect 17 0 2 0;
#X connect 18 0 20 0;
#X connect 20 0 12 0;
#X connect 21 0 1 0;
#X connect 21 1 23 0;
#X connect 22 0 16 0;
#X connect 23 0 22 0;
#X coords 0 -1 1 1 160 15 2 50 50;
