#N canvas 382 153 728 423 10;
#X obj 261 89 - 1;
#X obj 318 149 list split 1;
#X obj 261 129 route bang;
#X msg 261 149 symbol;
#X obj 292 175 t a;
#X floatatom 50 50 3 1 99 0 - #2-sound-i #2-sound-o, f 3;
#X symbolatom 70 50 23 0 0 0 - #2-soundname-i #2-soundname-o, f 23
;
#X obj 234 69 t f f;
#X obj 234 259 pack s f;
#X msg 234 278 set \$1 \$2;
#X obj 352 175 t a a;
#X msg 352 195 \$3;
#X obj 447 260 unpack f f;
#X msg 447 240 \$2 \$3;
#X obj 504 280 expr $f1 * 0.001;
#X obj 447 307 / 44.1;
#X text 322 50 arguments : <soundbank_name> <parent_\$0>;
#X obj 261 109 text get \$1-soundbank;
#X obj 292 218 s \$2-soundname-i;
#X obj 234 49 r \$2-sound-o;
#X obj 234 297 s \$2-sound-msg;
#X obj 447 327 s \$2-sound-duration;
#X obj 234 240 makefilename \$1-soundbank-array-%d;
#X connect 0 0 17 0;
#X connect 1 0 4 0;
#X connect 1 1 10 0;
#X connect 2 0 3 0;
#X connect 2 1 1 0;
#X connect 3 0 4 0;
#X connect 4 0 18 0;
#X connect 7 0 22 0;
#X connect 7 1 0 0;
#X connect 8 0 9 0;
#X connect 9 0 20 0;
#X connect 10 0 11 0;
#X connect 10 1 13 0;
#X connect 11 0 8 1;
#X connect 12 0 15 0;
#X connect 12 1 14 0;
#X connect 13 0 12 0;
#X connect 14 0 15 1;
#X connect 15 0 21 0;
#X connect 17 0 2 0;
#X connect 19 0 7 0;
#X connect 22 0 8 0;
#X coords 0 -1 1 1 160 15 2 50 50;
